<?xml version="1.0" encoding="UTF-8" standalone="no"?>
<svg width="500px" height="500px" viewBox="0 0 500 500" version="1.1" xmlns="http://www.w3.org/2000/svg" xmlns:xlink="http://www.w3.org/1999/xlink">
    <!-- Generator: Sketch 39.1 (31720) - http://www.bohemiancoding.com/sketch -->
    <title>PHI</title>
    <desc>Created with Sketch.</desc>
    <defs></defs>
    <g id="NBA" stroke="none" stroke-width="1" fill="none" fill-rule="evenodd">
        <g id="PHI">
            <g id="Page-1" transform="translate(1.000000, 0.000000)">
                <path d="M6.05847697,300.838597 C19.6707802,366.009062 57.8564805,421.980745 113.540163,458.452669 C169.2487,494.899732 235.794056,507.479686 300.964097,493.863833 C366.100997,480.256266 422.621468,442.43353 458.528785,386.378975 C494.262116,330.58961 506.888501,264.026898 493.939,198.906157 C480.981214,133.719119 442.157567,77.896605 386.407604,41.3998191 C330.624502,4.87817167 264.095716,-7.7349319 199.058236,5.85606012 C133.904765,19.4636265 77.9311066,57.6675736 41.4852625,113.374067 C5.04770339,169.080559 -7.54554121,235.651559 6.05847697,300.838597" id="Fill-4" fill="#006AB6"></path>
                <path d="M334.862294,55.6173227 C335.690797,65.3133353 331.150601,74.7855938 321.415692,83.8434928 C274.671556,49.5510995 230.147808,32.6535185 186.469134,32.4960619 C177.082195,32.4629132 167.952093,33.2170475 159.095397,34.6010083 C172.865115,28.8165495 187.305921,24.3000308 202.243829,21.1840472 C241.258033,13.029452 280.835618,14.9603673 317.960834,26.3552539 C326.022168,34.0457665 333.876376,44.3135952 334.862294,55.6173227" id="Fill-6" fill="#FEFEFE"></path>
                <path d="M286.09164,458.287754 C335.221864,413.180577 357.99741,316.469067 371.593143,258.682489 L373.722396,249.641165 C380.714961,220.213352 393.101079,198.285447 406.390267,185.117101 C455.677906,261.690739 449.000172,340.808545 436.539488,390.448814 C402.479733,435.779745 353.74719,466.848421 297.756962,478.558221 C281.816565,481.881384 265.776748,483.530535 249.869492,483.54711 C261.526528,477.737789 273.730377,469.616343 286.09164,458.287754" id="Fill-8" fill="#FEFEFE"></path>
                <path d="M375.352061,130.209494 C395.269272,113.485944 411.309088,100.731958 422.560158,92.4447675 C447.183266,119.303551 465.128639,151.615306 475.012679,187.266798 C465.799726,174.952034 454.0267,163.22566 441.29261,160.615195 C430.306661,158.352792 419.039021,161.510211 408.475608,168.952108 C399.17152,155.916358 388.202142,142.930331 375.352061,130.209494" id="Fill-10" fill="#FEFEFE"></path>
                <path d="M20.9524742,239.31864 C43.6285996,178.391218 126.802009,153.529647 158.111135,144.173409 L159.50302,143.75905 C169.784741,140.676215 184.523809,138.173483 201.599254,135.281254 C241.947347,128.452609 291.665808,119.958239 321.657614,97.5331024 C333.820037,106.814755 346.330432,117.455508 359.213652,129.579667 C291.234987,187.324809 186.180815,284.342945 74.0015171,403.587326 C47.8622496,373.753441 29.7097503,337.538419 21.3832958,297.627311 C18.060999,281.765629 16.4122781,265.812788 16.3874231,249.975967 C19.0469175,243.793723 20.9276191,239.393225 20.9524742,239.31864" id="Fill-12" fill="#FEFEFE"></path>
                <path d="M367.487083,122.59108 C354.852413,110.665813 342.400014,99.9339014 330.10503,90.4036326 C341.472091,79.3236592 346.675089,67.3155205 345.55661,54.6526938 C344.885523,46.9538941 341.902912,39.8186232 337.818393,33.4374867 C351.646107,39.0976377 365.034714,46.125175 377.835084,54.48695 C391.364537,63.3625308 403.800366,73.4563285 415.018296,84.6025994 C403.228699,93.295862 387.139172,106.107858 367.487083,122.59108" id="Fill-14" fill="#FEFEFE"></path>
                <path d="M312.630246,90.8378813 C284.419721,110.312778 237.791576,118.235332 199.813002,124.682766 C182.3813,127.641293 167.343972,130.185461 156.416018,133.458901 L155.032418,133.881548 C125.007472,142.84 49.4148641,165.480604 18.2631537,219.894295 C22.7039294,185.328425 34.9243477,151.947622 54.5764373,121.931419 C71.1216409,96.6306273 93.1183939,73.2773252 117.169834,56.454329 C172.472405,33.1010268 234.53556,34.7004545 312.630246,90.8378813" id="Fill-16" fill="#FEFEFE"></path>
                <path d="M439.130217,171.1507 C455.44344,174.507012 472.982847,201.91275 481.334156,217.724709 C488.517277,268.964406 478.649807,320.436145 452.966216,365.410726 C454.22554,357.49646 455.261169,349.159546 455.907401,340.424848 C459.171703,296.701632 453.214767,237.108447 414.67281,178.070503 C423.206391,172.037429 431.748256,169.634144 439.130217,171.1507" id="Fill-18" fill="#FEFEFE"></path>
                <path d="M367.110114,137.169076 C379.976764,149.848477 390.913003,162.793068 400.125956,175.85368 C384.177274,191.085536 370.606396,216.26202 363.26586,247.148378 L361.128323,256.222851 C347.805996,312.799499 325.519267,407.513797 278.824841,450.366857 C259.529008,468.051721 240.614286,477.291938 223.803961,482.12337 C187.904929,478.11237 153.198941,465.698159 122.096941,445.353107 C107.084468,435.516212 93.4307395,424.162762 81.2848864,411.533084 C194.491527,291.153358 300.009661,194.160083 367.110114,137.169076" id="Fill-20" fill="#FEFEFE"></path>
                <path d="M314.449639,319.263507 L320.762831,317.539772 C324.573945,316.528735 327.175444,315.235933 327.175444,309.683516 C327.175444,305.092412 325.882979,296.697488 320.373435,296.697488 C314.449639,296.697488 314.449639,306.658691 314.449639,312.061939 L314.449639,319.263507 Z" id="Fill-22" fill="#FEFEFE"></path>
                <path d="M238.472606,315.695043 C238.472606,295.731202 237.743523,278.477272 224.1975,278.477272 C213.161841,278.477272 211.264569,295.731202 211.264569,315.695043 C211.264569,335.650597 210.692902,352.945964 224.1975,352.945964 C235.688836,352.945964 238.472606,335.650597 238.472606,315.695043" id="Fill-24" fill="#FEFEFE"></path>
                <path d="M314.449639,319.263507 L320.762831,317.539772 C324.573945,316.528735 327.175444,315.235933 327.175444,309.683516 C327.175444,305.092412 325.882979,296.697488 320.373435,296.697488 C314.449639,296.697488 314.449639,306.658691 314.449639,312.061939 L314.449639,319.263507 Z" id="Fill-26" fill="#FEFEFE"></path>
                <path d="M209.773264,269.992018 L209.516428,269.992018 L210.005245,269.992018 C216.508993,259.873358 228.878542,255.041927 240.958115,255.041927 C268.398132,255.041927 285.241596,278.693568 285.241596,310.532953 C285.241596,348.223094 259.673996,370.656518 228.149459,370.656518 C179.590902,370.656518 161.968645,331.482969 161.968645,286.110603 C161.968645,233.859868 184.66134,190.700181 241.19838,190.700181 C263.211703,190.700181 281.355918,204.945861 281.355918,226.641726 C281.355918,240.713375 270.461104,247.60003 260.071677,247.60003 C244.818938,247.60003 239.963911,234.82947 237.793233,223.691486 C236.906735,218.934639 238.671446,208.45963 230.792384,208.45963 C214.37974,208.45963 211.687106,240.63879 210.982878,252.472898 L209.773264,269.992018 Z" id="Fill-28" fill="#FEFEFE"></path>
                <path d="M238.472606,315.695043 C238.472606,295.731202 237.743523,278.477272 224.1975,278.477272 C213.161841,278.477272 211.264569,295.731202 211.264569,315.695043 C211.264569,335.650597 210.692902,352.945964 224.1975,352.945964 C235.688836,352.945964 238.472606,335.650597 238.472606,315.695043" id="Fill-30" fill="#FEFEFE"></path>
                <path d="M395.742347,280.220068 C390.357078,280.220068 386.363694,282.557056 383.331373,285.921655 C383.008257,285.192382 382.668571,284.471397 382.295744,283.750411 L379.694245,278.686938 L342.386758,289.626029 L342.386758,310.037379 L349.271617,310.037379 C349.93442,310.037379 350.315531,310.12025 350.390096,310.078814 C350.713212,310.650631 351.301449,312.564972 351.301449,318.830087 L351.301449,342.5646 L344.48287,343.525914 L344.48287,365.967626 L396.156598,365.967626 L396.156598,343.534202 L389.371159,342.572887 L389.371159,335.611648 C389.371159,331.59236 390.207947,324.001294 391.251861,319.551073 C393.165703,320.114602 395.460656,320.586972 398.00416,320.586972 C407.266823,320.586972 413.737431,312.258346 413.737431,300.324792 C413.737431,288.300078 406.5046,280.220068 395.742347,280.220068" id="Fill-32" fill="#FEFEFE"></path>
                <path d="M460.460025,304.017564 C460.012633,302.31869 459.855218,301.680576 459.855218,300.760698 C459.855218,294.644751 457.419419,280.423933 434.817859,280.423933 C422.31575,280.423933 397.792063,290.053648 397.792063,312.313041 C397.792063,320.57537 400.252717,326.59187 403.790424,331.083527 C398.885687,333.975756 395.853366,339.536461 395.853366,346.505988 C395.853366,354.536275 399.888175,367.994672 426.955366,367.994672 C450.103738,367.994672 463.376355,355.994821 463.376355,335.069665 C463.376355,315.122398 461.619929,308.434636 460.460025,304.017564" id="Fill-34" fill="#FEFEFE"></path>
                <path d="M187.628209,183.980928 C186.219754,182.340064 184.165067,181.395324 181.986104,181.395324 C178.580957,181.395324 175.863467,183.541706 172.582596,187.005752 C161.563507,198.649254 146.667024,204.798349 129.508728,204.798349 C107.014874,204.798349 83.3362597,194.455936 64.5458131,176.42301 C63.0296528,174.964465 61.0661008,174.15232 59.0196986,174.15232 C49.8398861,174.15232 47.4123725,188.92838 47.3958024,189.069262 L47.3626623,263.073871 L53.2450331,263.935739 C75.6146124,267.242328 94.7944553,266.579353 112.325577,261.847367 C93.3860003,278.802958 50.7595243,324.912885 51.3891865,368.909578 C51.4886069,377.01445 56.5093347,377.892892 58.6634423,377.892892 C61.3395068,377.892892 63.104218,376.459208 64.2641221,375.514469 C64.5789533,375.257566 64.9683496,374.942653 65.4488813,374.586303 C71.4969528,370.094646 81.3644227,367.51733 92.4995022,367.51733 C101.712455,367.51733 110.834272,369.357086 117.603141,372.597378 C118.879036,373.194055 120.395196,373.832169 122.234472,373.832169 C124.37201,373.832169 126.335562,372.978589 127.752302,371.420597 C130.146676,368.801845 129.856699,365.56984 129.657859,363.382022 C126.534403,331.492914 133.560108,296.595556 147.147556,276.507407 L149.185673,273.482582 C160.751574,256.369534 184.811299,220.742904 189.351495,191.331665 C189.815457,188.323415 189.235505,185.853833 187.628209,183.980928" id="Fill-36" fill="#FEFEFE"></path>
                <path d="M330.325412,338.303327 C327.732198,338.303327 325.950917,336.662463 324.791012,334.632102 L338.047059,331.06861 C334.285656,335.568554 331.394181,338.004988 330.325412,338.303327 L330.325412,338.303327 Z M359.31473,325.342162 L358.975044,319.731734 C358.751348,316.043934 358.204536,312.54674 357.351178,309.265012 L357.102627,302.834153 L355.917868,304.682196 C350.342043,289.59951 337.823364,280.218411 321.833257,280.218411 C297.897807,280.218411 281.178618,299.146353 281.178618,326.253752 C281.178618,347.029738 293.341041,367.99633 320.507652,367.99633 C336.066937,367.99633 350.325473,360.156648 357.740574,347.543544 L358.759633,345.811521 L357.989125,325.698511 L359.31473,325.342162 Z" id="Fill-38" fill="#FEFEFE"></path>
                <path d="M270.260606,259.876673 C268.901862,257.945758 267.385701,255.791089 266.118092,253.893322 C277.874548,251.53976 288.23912,242.274681 288.23912,226.64504 C288.23912,202.230978 268.015363,183.816841 241.196723,183.816841 C187.277752,183.816841 155.082128,222.053937 155.082128,286.113918 C155.082128,344.215409 181.718498,377.546488 228.147802,377.546488 C265.819831,377.546488 292.124799,349.99158 292.124799,310.536267 C292.124799,290.895626 278.968172,272.224587 270.260606,259.876673" id="Fill-40" fill="#FEFEFE"></path>
                <path d="M314.594627,312.131552 C314.594627,306.728303 314.594627,296.767101 320.518423,296.767101 C326.027967,296.767101 327.320432,305.162025 327.320432,309.753128 C327.320432,315.305545 324.718933,316.598347 320.907819,317.601097 L314.594627,319.33312 L314.594627,312.131552 Z M330.468743,345.263738 C322.100863,345.263738 317.171271,337.622949 316.326198,329.891 L352.250085,320.211562 C351.189601,302.684155 341.057011,287.170534 321.984873,287.170534 C301.686551,287.170534 288.206808,302.999068 288.206808,326.319221 C288.206808,344.534465 298.65423,361.175143 320.659268,361.175143 C333.227658,361.175143 345.431506,355.224941 351.943539,344.128393 L344.843269,335.683746 C341.371842,341.053846 337.328747,345.263738 330.468743,345.263738 L330.468743,345.263738 Z" id="Fill-42" fill="#006AB6"></path>
                <path d="M389.411756,359.143124 L351.516032,359.143124 L351.516032,349.579707 L358.334611,348.618393 L358.334611,318.900529 C358.334611,308.292925 356.942726,303.212877 349.419919,303.212877 L349.419919,294.851102 L376.32141,286.969984 C379.395155,292.953336 380.347934,299.823417 380.78704,306.610625 L381.052161,306.610625 C383.736511,298.530615 387.100233,287.177164 395.882364,287.177164 C403.587441,287.177164 407.000873,293.127367 407.000873,300.395233 C407.000873,307.754258 403.777997,313.762471 398.152462,313.762471 C394.283353,313.762471 390.977626,312.129894 389.130065,311.508355 C384.217042,309.834342 382.626317,331.240155 382.626317,335.682089 L382.626317,348.618393 L389.411756,349.579707 L389.411756,359.143124 Z" id="Fill-44" fill="#006AB6"></path>
                <path d="M453.117004,300.83031 C453.117004,306.722502 448.038281,309.656168 442.686152,309.656168 C436.157548,309.656168 431.567642,304.36894 430.374598,298.004378 C427.599113,298.004378 425.627276,299.429775 425.627276,304.153473 C425.627276,315.150575 456.646426,307.310893 456.646426,335.139278 C456.646426,355.981561 441.584243,361.17763 427.102011,361.17763 C418.28674,361.17763 402.884871,360.017423 402.884871,346.5756 C402.884871,340.492803 406.265163,335.843689 412.321519,335.843689 C421.733312,335.843689 423.357178,344.470654 424.939619,350.5866 C425.38701,352.194315 426.778895,352.459505 428.08793,352.459505 C433.058947,352.459505 436.662935,350.404282 436.662935,347.130842 C436.662935,334.642046 404.823567,339.481766 404.823567,312.374366 C404.823567,295.161872 425.1716,287.3802 434.964504,287.3802 C446.107869,287.3802 453.117004,291.117723 453.117004,300.83031" id="Fill-46" fill="#006AB6"></path>
                <path d="M224.34166,353.015576 C210.837062,353.015576 211.417014,335.72021 211.417014,315.764656 C211.417014,295.800814 213.306001,278.546884 224.34166,278.546884 C237.895968,278.546884 238.616765,295.800814 238.616765,315.764656 C238.616765,335.72021 235.832995,353.015576 224.34166,353.015576 M241.102274,255.11071 C229.022701,255.11071 216.661437,259.942142 210.149404,270.060801 L209.917424,270.060801 L209.660588,270.060801 L209.917424,270.060801 L211.127038,252.541681 C211.831265,240.715861 214.5239,208.528414 230.936543,208.528414 C238.823891,208.528414 237.050895,219.003422 237.937393,223.760269 C240.108071,234.898253 244.963098,247.668813 260.215837,247.668813 C270.605264,247.668813 281.500077,240.782158 281.500077,226.710509 C281.500077,205.014645 263.355863,190.768965 241.34254,190.768965 C184.8055,190.768965 162.112804,233.928652 162.112804,286.187674 C162.112804,331.551753 179.743347,370.725302 228.293619,370.725302 C259.82644,370.725302 285.385756,348.291877 285.385756,310.601736 C285.385756,278.762351 268.542291,255.11071 241.102274,255.11071" id="Fill-48" fill="#006AB6"></path>
                <path d="M54.3941667,189.846601 L54.3941667,257.196596 C92.1076203,262.757301 137.120185,259.061214 168.942982,212.512066 C170.276872,210.531428 171.06395,211.923676 170.210592,213.647411 C161.31247,231.754922 140.293351,248.486759 122.115997,262.757301 C104.64287,276.464313 57.7993137,325.648788 58.420691,368.883059 C58.4621161,372.206222 58.5698215,371.294631 61.4861518,369.123388 C75.7115472,358.565507 103.549246,358.225732 120.649546,366.421764 C123.052205,367.540534 123.226191,367.209047 122.9445,364.126212 C119.663628,330.59624 127.203005,293.983434 141.577531,272.735078 C151.461571,257.992166 178.09794,220.094845 182.687846,190.352119 C183.160093,187.269285 181.577652,187.749942 177.725114,191.810665 C147.551037,223.691486 93.0024034,222.920777 57.7993137,189.133902 C55.5789259,186.995807 54.5847224,187.948834 54.3941667,189.846601" id="Fill-50" fill="#ED174B"></path>
                <path d="M184.375507,149.410085 C184.375507,185.061577 155.477324,213.967297 119.835128,213.967297 C84.1846467,213.967297 55.2864643,185.061577 55.2864643,149.410085 C55.2864643,113.750305 84.1846467,84.8528725 119.835128,84.8528725 C155.477324,84.8528725 184.375507,113.750305 184.375507,149.410085" id="Fill-52" fill="#FEFEFE"></path>
                <polygon id="Fill-54" fill="#006AB6" points="119.777133 87.1326786 121.93124 94.0110465 129.222066 94.0110465 123.289985 98.3120982 125.468948 105.066158 119.777133 100.93085 113.994182 105.066158 116.14829 98.2872367 110.257634 94.0110465 117.54846 94.0110465"></polygon>
                <polygon id="Fill-56" fill="#006AB6" points="162.737495 112.209716 164.949598 119.030074 172.265279 119.030074 166.324913 123.364274 168.503876 130.10176 162.762351 125.941591 156.99597 130.10176 159.224643 123.364274 153.217997 119.030074 160.550248 119.030074"></polygon>
                <polygon id="Fill-58" fill="#006AB6" points="144.299991 92.859127 146.495524 99.7126334 153.81949 99.7126334 147.887409 104.038547 150.041516 110.809181 144.316561 106.607576 138.591606 110.809181 140.745714 104.005398 134.813633 99.7126334 142.112743 99.7126334"></polygon>
                <polygon id="Fill-60" fill="#006AB6" points="169.765686 135.888705 171.961219 142.742211 179.252044 142.742211 173.353104 147.034976 175.490641 153.80561 169.807111 149.620579 164.065586 153.80561 166.252833 147.034976 160.279327 142.742211 167.537013 142.742211"></polygon>
                <polygon id="Fill-62" fill="#006AB6" points="166.687797 160.917677 168.875045 167.746322 176.190726 167.746322 170.258645 172.105384 172.429323 178.859444 166.704368 174.6827 161.004267 178.859444 163.13352 172.072235 157.218009 167.746322 164.51712 167.746322"></polygon>
                <polygon id="Fill-64" fill="#006AB6" points="152.877482 180.901408 155.03159 187.754914 162.363841 187.754914 156.43176 192.080827 158.585867 198.818313 152.918907 194.658143 147.152527 198.818313 149.323204 192.080827 143.357983 187.754914 150.681949 187.754914"></polygon>
                <polygon id="Fill-66" fill="#006AB6" points="131.152478 192.079999 133.364581 198.933505 140.613982 198.933505 134.698471 203.267705 136.894003 210.046627 131.169048 205.87817 125.427523 210.046627 127.58163 203.259418 121.649549 198.933505 128.940375 198.933505"></polygon>
                <polygon id="Fill-68" fill="#006AB6" points="75.9857817 109.989578 73.7736788 116.809936 66.4994231 116.809936 72.398364 121.16071 70.2442563 127.906483 75.9443565 123.721452 81.727307 127.906483 79.5400593 121.16071 85.5052804 116.809936 78.1813144 116.809936"></polygon>
                <polygon id="Fill-70" fill="#006AB6" points="93.9700949 92.859127 91.7745621 99.7126334 84.4837363 99.7126334 90.4158173 104.038547 88.2285695 110.809181 93.9700949 106.607576 99.7116202 110.809181 97.5575126 104.005398 103.489594 99.7126334 96.1821977 99.7126334"></polygon>
                <polygon id="Fill-72" fill="#006AB6" points="67.596361 132.828246 65.4422533 139.648603 58.1348574 139.648603 64.0835085 143.949655 61.9128308 150.745151 67.596361 146.584981 73.3378863 150.745151 71.1837787 143.949655 77.1572848 139.648603 69.866459 139.648603"></polygon>
                <polygon id="Fill-74" fill="#006AB6" points="69.8639735 157.818268 67.6353006 164.688349 60.3444748 164.688349 66.2765558 169.022549 64.1224481 175.793184 69.8225483 171.608152 75.5723587 175.793184 73.3768259 169.005975 79.3089069 164.688349 72.0180811 164.688349"></polygon>
                <polygon id="Fill-76" fill="#006AB6" points="83.6560618 178.256136 81.4853842 185.11793 74.1697032 185.11793 80.1017842 189.435556 77.9145365 196.181329 83.6560618 191.996298 89.4390123 196.181329 87.2269095 189.418982 93.1589905 185.11793 85.8681647 185.11793"></polygon>
                <polygon id="Fill-78" fill="#006AB6" points="105.382723 191.220617 103.212045 198.090698 95.8963642 198.090698 101.828445 202.408324 99.6743376 209.145809 105.341298 205.027076 111.140818 209.145809 108.928715 202.358601 114.902222 198.090698 107.594826 198.090698"></polygon>
            </g>
        </g>
    </g>
</svg>