<?xml version="1.0" encoding="UTF-8" standalone="no"?>
<svg width="500px" height="500px" viewBox="0 0 500 500" version="1.1" xmlns="http://www.w3.org/2000/svg" xmlns:xlink="http://www.w3.org/1999/xlink">
    <!-- Generator: Sketch 39.1 (31720) - http://www.bohemiancoding.com/sketch -->
    <title>MIL</title>
    <desc>Created with Sketch.</desc>
    <defs>
        <polygon id="path-1" points="0.052137931 499.947917 377.419531 499.947917 377.419531 0 0.052137931 0"></polygon>
    </defs>
    <g id="NBA" stroke="none" stroke-width="1" fill="none" fill-rule="evenodd">
        <g id="MIL">
            <g id="MBucks_P_A_pms" transform="translate(62.000000, 0.000000)">
                <g id="Group-4">
                    <mask id="mask-2" fill="white">
                        <use xlink:href="#path-1"></use>
                    </mask>
                    <g id="Clip-2"></g>
                    <path d="M100.63229,428.491319 C98.4025241,426.657986 97.4683862,423.68316 98.2495862,420.90625 L124.591407,327.306424 C124.746083,326.757812 124.961586,326.236979 125.230966,325.751736 L113.134966,306.394965 C112.032248,304.631076 111.738538,302.479167 112.327697,300.482639 L114.008276,294.799479 L97.4388414,293.736111 C81.8617655,292.583333 76.2986483,290.533854 72.5951172,288.488715 C56.9676414,279.868056 52.8835034,255.097222 52.0032414,247.710938 L51.0143586,239.389757 C50.5216552,236.017361 51.3993103,232.730035 53.4344276,230.346354 C55.0072552,228.50434 57.1883586,227.341146 59.5389103,227.061632 C23.5055172,194.491319 -9.072,154.034722 2.30536552,96.9913194 C14.8697379,33.9947917 65.8250069,15.0078125 67.9878621,14.2309028 C68.7986069,13.9392361 69.6310759,13.8003472 70.4513793,13.8003472 C73.0730483,13.8003472 75.5765379,15.2222222 76.8747724,17.6458333 C77.7811034,19.3411458 77.9531586,21.2534722 77.4752276,22.9956597 C94.3070897,8.74045139 110.391641,2.50868056 117.135683,0.348958333 C117.872566,0.112847222 118.620745,0 119.359366,0 C122.145269,0 124.777366,1.60677083 125.986097,4.26215278 C127.515476,7.61979167 126.28589,11.5902778 123.126331,13.4991319 C107.750855,22.7829861 94.3696552,35.4001736 84.2827034,49.9383681 C96.5481517,47.0651042 104.788552,46.7647569 107.657876,46.7647569 C108.64589,46.7647569 109.154234,46.7960069 109.154234,46.7960069 C112.747407,47.0199653 115.664524,49.8342014 115.980828,53.4166667 C116.298,56.9991319 113.971779,60.2769097 110.473324,61.1267361 C110.280414,61.1744792 90.2481517,66.2378472 68.141669,82.0928819 C63.9628138,94.8229167 61.8451448,108.09809 61.8451448,121.587674 C61.8451448,147.169271 70.0412276,173.428819 84.3313655,193.631944 C87.7385793,198.449653 91.1014759,202.657986 94.6355586,206.483507 C93.2608552,180.225694 100.79131,139.190104 148.308083,120.144965 C149.196166,119.789931 150.112924,119.619792 151.017517,119.619792 C153.700014,119.619792 156.263462,121.108507 157.532152,123.639757 C159.227503,127.025174 158.040497,131.143229 154.802731,133.109375 L154.455145,133.320312 C147.125421,138.080729 140.964455,144.232639 136.260745,151.372396 C141.4224,149.773438 145.879324,149.244792 148.872041,148.889757 L149.436869,148.822917 C149.72971,148.788194 150.020814,148.770833 150.30931,148.770833 C153.355034,148.770833 156.12269,150.681424 157.164579,153.606771 C158.304662,156.809896 157.0716,160.375 154.196193,162.19184 L153.959834,162.345486 C153.856428,162.411458 153.753021,162.474826 153.647007,162.53559 C138.440979,171.296875 129.982469,181.497396 128.504359,192.857639 C126.888952,205.278646 133.765076,216.985243 138.695586,223.578125 C151.487628,208.809028 159.811448,183.578125 162.140276,174.061632 C162.944938,170.775174 165.893338,168.515625 169.206703,168.515625 C169.489986,168.515625 169.775007,168.532118 170.061766,168.565104 C173.713159,168.993056 176.471255,172.073785 176.493848,175.744792 C176.684152,206.762153 168.342952,227.947049 159.792331,241.480035 C172.595669,247.959201 185.1444,248.335937 187.858179,248.335937 C188.176221,248.335937 188.607228,248.323785 188.691517,248.323785 C188.783628,248.323785 189.24331,248.335937 189.560483,248.335937 C192.275131,248.335937 204.822993,247.959201 217.626331,241.480035 C209.07571,227.947049 200.73451,206.762153 200.924814,175.744792 C200.947407,172.073785 203.705503,168.993056 207.356897,168.565104 C207.643655,168.532118 207.928676,168.515625 208.211959,168.515625 C211.526193,168.515625 214.473724,170.774306 215.278386,174.061632 C217.607214,183.578125 225.931903,208.809896 238.723945,223.578125 C243.650979,216.989583 250.52971,205.28125 248.914303,192.857639 C247.437062,181.497396 238.978552,171.296007 223.772524,162.53559 C223.673462,162.479167 223.314579,162.250868 223.314579,162.250868 C220.438303,160.434028 219.160055,156.840278 220.300138,153.636285 C221.342897,150.708333 224.076662,148.771701 227.120648,148.771701 C227.4048,148.771701 227.692428,148.788194 227.981793,148.822917 L228.546621,148.889757 C231.539338,149.244792 235.996262,149.773438 241.157917,151.372396 C236.455076,144.233507 230.29411,138.081597 222.966124,133.322049 L222.619407,133.111979 C219.380772,131.146701 218.191159,127.027778 219.88651,123.641493 C221.154331,121.110243 223.718648,119.619792 226.402014,119.619792 C227.305738,119.619792 228.223366,119.789063 229.110579,120.144965 C276.627352,139.190104 284.157807,180.225694 282.783103,206.483507 C286.317186,202.657986 289.680083,198.449653 293.087297,193.631944 C307.377434,173.429687 315.573517,147.170139 315.573517,121.587674 C315.573517,108.096354 313.456717,94.8220486 309.276993,82.0928819 C287.028,66.1284722 267.148676,61.1762153 266.946207,61.1267361 C263.446883,60.2769097 261.120662,56.9982639 261.437834,53.4166667 C261.755007,49.8333333 264.672124,47.0190972 268.265297,46.7960069 C268.265297,46.7960069 268.772772,46.7647569 269.761655,46.7647569 C272.63011,46.7647569 280.871379,47.0651042 293.135959,49.9383681 C283.049876,35.4001736 269.668676,22.7829861 254.292331,13.4991319 C251.131903,11.5902778 249.903186,7.62065972 251.432566,4.26215278 C252.642166,1.60763889 255.273393,0 258.059297,0 C258.797917,0 259.546097,0.112847222 260.282979,0.348958333 C267.027021,2.50868056 283.112441,8.74045139 299.943434,22.9956597 C299.466372,21.2534722 299.637559,19.3411458 300.54389,17.6458333 C301.842124,15.2222222 304.345614,13.8003472 306.967283,13.8003472 C307.788455,13.8003472 308.620055,13.9392361 309.431669,14.2309028 C311.593655,15.0078125 362.548055,33.9947917 375.114166,96.9913194 C386.491531,154.034722 353.914014,194.491319 317.880621,227.061632 C320.230303,227.341146 322.411407,228.503472 323.984234,230.346354 C326.019352,232.730035 326.897007,236.016493 326.405172,239.389757 L325.41629,247.710069 C324.535159,255.098958 320.448414,279.869792 304.820938,288.490451 C301.120883,290.533854 295.556897,292.583333 280.051076,293.730903 L263.410386,294.799479 L265.090966,300.482639 C265.680993,302.479167 265.386414,304.631076 264.283697,306.394965 L252.187697,325.751736 C252.457076,326.236979 252.672579,326.757812 252.827255,327.306424 L279.169945,420.90625 C279.950276,423.68316 279.016138,426.657986 276.786372,428.491319 L188.709766,500 L100.63229,428.491319" id="Fill-1" fill="#D9C59B" mask="url(#mask-2)"></path>
                    <path d="M43.9044828,173.068576 C43.9044828,173.068576 33.2335862,124.769097 41.1663724,96.1875 C39.0521793,98.46875 36.9058345,100.811632 34.9237241,103.375 C15.5961931,128.360243 43.9044828,173.068576 43.9044828,173.068576 L43.9044828,173.068576 Z M333.514179,173.068576 C333.514179,173.068576 361.823338,128.360243 342.494938,103.375 C340.512828,100.811632 338.366483,98.46875 336.253159,96.1875 C344.185076,124.769097 333.514179,173.068576 333.514179,173.068576 L333.514179,173.068576 Z M9.44652414,98.4123264 C21.3513517,38.7222222 70.4531172,21.0737847 70.4531172,21.0737847 C52.4742207,34.3446181 34.1242759,59.2890625 26.5416828,94.3185764 C33.9235448,85.1657986 40.7683862,78.2986111 48.811531,72.8272569 C68.719531,29.9869792 102.691738,12.6145833 119.359366,7.27517361 C97.7377655,20.3307292 79.6572,39.7621528 68.6665241,62.1458333 C93.667531,53.2291667 108.753641,54.0590278 108.753641,54.0590278 C108.753641,54.0590278 86.4064552,59.4852431 61.9833103,77.578125 C57.1848828,91.3645833 54.5640828,106.168403 54.5640828,121.587674 C54.5640828,148.711806 63.3102207,176.518229 78.3850345,197.829861 C86.8687448,209.822917 95.0613517,218.114583 105.258662,225.665799 C101.886207,217.190104 89.0489793,151.732639 151.020124,126.894965 L150.580428,127.162326 C135.943572,136.635417 125.158841,151.388021 120.776648,168.744792 C132.093186,157.922743 144.031903,156.796875 150.305834,156.044271 C150.210248,156.105035 150.106841,156.172743 150.009517,156.235243 C92.4813931,189.377604 138.225476,234.269965 138.225476,234.269965 C156.364262,219.084201 166.936966,185.085938 169.212786,175.789063 C169.433503,211.712674 157.473062,233.224826 149.344759,243.736979 C167.887614,256.447917 188.683697,255.597222 188.691517,255.596354 L188.727145,255.596354 C188.734966,255.597222 209.531917,256.447917 228.074772,243.736979 C219.9456,233.224826 207.985159,211.712674 208.205876,175.789063 C210.481697,185.085938 221.055269,219.084201 239.194055,234.269965 C239.194055,234.269965 284.938138,189.377604 227.409145,156.235243 C227.311821,156.172743 227.208414,156.105035 227.112828,156.044271 C233.386759,156.796875 245.326345,157.922743 256.642883,168.744792 C252.26069,151.388021 241.47509,136.635417 226.838234,127.162326 L226.399407,126.894965 C288.369683,151.732639 275.532455,217.190104 272.160869,225.665799 C282.358179,218.114583 290.550786,209.822917 299.034497,197.829861 C314.108441,176.518229 322.855448,148.711806 322.855448,121.587674 C322.854579,106.168403 320.234648,91.3645833 315.436221,77.578125 C291.012207,59.4852431 268.665021,54.0590278 268.665021,54.0590278 C268.665021,54.0590278 283.751131,53.2291667 308.752138,62.1458333 C297.762331,39.7621528 279.680897,20.3307292 258.059297,7.27517361 C274.727793,12.6145833 308.699131,29.9869792 328.607131,72.8272569 C336.650276,78.2986111 343.495117,85.1657986 350.876979,94.3185764 C343.294386,59.2890625 324.944441,34.3446181 306.966414,21.0737847 C306.966414,21.0737847 356.06731,38.7222222 367.972138,98.4123264 C381.829531,167.884549 326.286993,211.269097 281.499641,248.435764 L315.692566,234.506076 C318.008359,233.523438 319.613338,235.753472 319.188414,238.417535 L318.185628,246.852431 C317.632966,251.492187 314.220538,274.997396 301.301628,282.124132 C298.507903,283.666667 293.692097,285.428819 279.514055,286.477431 L253.845683,288.125 L258.108828,302.543403 L232.910566,342.862847 L245.818179,329.274306 L272.160869,422.875 L199.87771,482.282118 L222.432579,380.080729 L188.709766,421.059028 L154.986083,380.080729 L177.540952,482.282118 L105.258662,422.875 L131.601352,329.274306 L144.508966,342.862847 L119.310703,302.543403 L123.572979,288.125 L97.9046069,286.477431 C83.7265655,285.428819 78.9116276,283.666667 76.1179034,282.124132 C63.1981241,274.997396 59.7856966,251.492187 59.2330345,246.852431 L58.2302483,238.417535 C57.8053241,235.753472 59.4103034,233.523438 61.7269655,234.506076 L95.9198897,248.435764 C51.1325379,211.269097 -4.41086897,167.884549 9.44652414,98.4123264 L9.44652414,98.4123264 Z" id="Fill-3" fill="#2A4832" mask="url(#mask-2)"></path>
                </g>
                <path d="M70.4565931,246.696181 L70.4531172,246.695312 C70.4531172,246.695312 72.9496552,267.654514 81.749669,272.509549 C87.6916552,275.787326 102.209462,275.47309 114.888538,276.446181 C100.846924,271.00434 80.1655448,256.158854 70.4565931,246.696181 L70.4565931,246.696181 Z M148.227269,291.000868 C155.899366,296.918403 162.402703,293.622396 165.894207,290.203125 C167.030814,289.08941 166.684966,287.184028 165.238138,286.520833 C161.570234,284.83941 154.660221,281.671007 147.778883,278.515625 C146.402441,277.884549 144.816579,278.741319 144.5724,280.234375 C144.084041,283.205729 144.155297,287.860243 148.227269,291.000868 L148.227269,291.000868 Z M162.164607,331.668403 L158.032676,349.868056 L168.199572,363.572049 L178.992124,363.572049 L168.995545,348.891493 L170.573586,339.822049 C175.111324,344.658854 181.553834,347.690104 188.709766,347.708333 C195.865697,347.690104 202.307338,344.658854 206.845076,339.822049 L208.423117,348.891493 L198.426538,363.572049 L209.21909,363.572049 L219.385986,349.868056 L215.254055,331.668403 C205.54771,325.47309 203.299697,316.680556 203.299697,316.680556 L196.537407,294.539062 L188.709766,298.333333 L180.881255,294.539062 L174.119834,316.680556 C174.119834,316.680556 171.870952,325.47309 162.164607,331.668403 L162.164607,331.668403 Z M211.524455,290.203125 C215.015959,293.622396 221.519297,296.918403 229.191393,291.000868 C233.263366,287.860243 233.334621,283.205729 232.847131,280.234375 C232.602083,278.741319 231.016221,277.884549 229.640648,278.515625 C222.758441,281.671007 215.848428,284.83941 212.181393,286.520833 C210.734566,287.184028 210.387848,289.08941 211.524455,290.203125 L211.524455,290.203125 Z M203.364,372.019097 L174.054662,372.019097 L181.094152,381.560764 L196.325379,381.560764 L203.364,372.019097 L203.364,372.019097 Z M262.530993,276.446181 C275.2092,275.47309 289.727007,275.787326 295.669862,272.509549 C304.469876,267.654514 306.966414,246.695312 306.966414,246.695312 L306.962069,246.696181 C297.253117,256.158854 276.571738,271.00434 262.530993,276.446181 L262.530993,276.446181 Z" id="Fill-5" fill="#FFFFFF"></path>
            </g>
        </g>
    </g>
</svg>