<?xml version="1.0" encoding="UTF-8" standalone="no"?>
<svg width="500px" height="500px" viewBox="0 0 500 500" version="1.1" xmlns="http://www.w3.org/2000/svg" xmlns:xlink="http://www.w3.org/1999/xlink">
    <!-- Generator: Sketch 39.1 (31720) - http://www.bohemiancoding.com/sketch -->
    <title>CHI</title>
    <desc>Created with Sketch.</desc>
    <defs>
        <polygon id="path-1" points="500 450.205748 500 0.115132042 0.00027824562 0.115132042 0.00027824562 450.205748"></polygon>
    </defs>
    <g id="NBA" stroke="none" stroke-width="1" fill="none" fill-rule="evenodd">
        <g id="CHI">
            <g id="Page-1" transform="translate(0.000000, 25.000000)">
                <g id="Group-3" transform="translate(0.000000, 0.678882)">
                    <mask id="mask-2" fill="white">
                        <use xlink:href="#path-1"></use>
                    </mask>
                    <g id="Clip-2"></g>
                    <path d="M499.829841,95.2774819 C497.847302,60.4139114 482.244127,29.1432548 472.923492,10.4601033 L471.814762,8.23289384 L467.761587,0.114893838 L468.59254,9.15395018 C469.73619,21.6525259 472.496508,64.3228428 459.787778,88.5005717 C444.02746,121.303676 397.676667,118.124443 382.444127,117.077933 L381.28619,116.996149 C356.253651,115.331896 274.840952,112.435332 249.897302,112.544906 C216.906825,112.683859 180.503651,115.366832 151.255238,117.523374 C136.929048,118.581001 124.55127,119.494117 116.221111,119.809341 C115.537778,119.833161 114.56,119.926855 113.200476,120.053897 C72.1877778,123.876281 46.2790476,111.778683 36.1925397,84.0929995 C30.0060317,67.1169783 30.1584127,33.5397107 30.2314286,17.4077266 L30.2449206,12.584091 L30.2687302,5.80718081 C30.2687302,5.81512095 27.0473016,11.7749907 27.0473016,11.7749907 C19.341746,26.0331016 5.00603175,52.5706403 0.188571429,96.5979273 C-2.51380952,148.495482 24.4338095,167.106378 44.9377778,176.59564 C66.3615873,186.51764 88.2433333,187.942896 95.4361905,188.408982 L95.9560317,188.44233 L95.76,188.416128 C97.2346032,188.689269 98.9219048,188.763112 100.706825,188.843308 C102.924286,188.943353 105.310794,189.06722 107.767143,189.533306 C103.888571,190.283649 98.7861905,191.153889 94.3068254,191.924876 C89.5322222,192.741123 85.0250794,193.519257 82.6838095,194.016309 C77.8314286,195.044558 57.1861905,199.866605 46.0655556,203.66358 C36.6147619,206.891248 26.4504762,211.690269 26.3473016,211.736322 L24.4988889,212.619265 L25.694127,214.278755 C25.8369841,214.47567 29.2552381,219.201642 32.7988889,222.693716 C40.0734921,229.854929 60.2869841,242.610765 84.7092063,239.570485 C104.230635,237.148742 114.690952,232.607776 118.723492,230.47823 C119.98381,234.668242 123.01,244.405237 126.055238,251.980926 C134.855238,273.852838 154.86873,315.521109 162.400476,330.015836 C168.489365,341.739454 174.544921,352.154536 178.554444,359.041021 L179.99254,361.528667 C178.675079,366.01167 175.543333,368.812158 173.212381,370.86389 C172.583016,371.41573 172.044921,371.888962 171.589365,372.351873 L171.137778,372.813195 L171.106825,373.460316 C170.917937,377.50423 169.974286,413.723183 194.605238,440.261515 L194.871111,440.545772 L195.243333,440.688695 C207.507619,445.390846 223.523492,450.205748 249.31873,450.205748 C275.633016,450.205748 297.769524,443.964797 305.536984,440.037603 L305.848889,439.883565 L306.071905,439.620746 C323.258413,419.286045 331.06873,388.700623 331.258413,377.589984 L331.26873,376.880135 L330.772698,376.371966 C330.344921,375.932876 329.898889,375.501727 329.429048,375.051521 C326.758413,372.482091 323.445714,369.300477 321.560794,361.781957 C323.647302,358.182691 327.747302,349.612103 331.084603,342.637484 C332.948095,338.735698 334.564762,335.361139 335.454444,333.625424 C342.725873,319.463389 363.949683,273.89889 372.38381,252.369198 C377.711587,238.766149 380.707619,231.956684 381.997302,229.13714 C385.719524,231.152348 395.76873,235.605179 414.746508,237.568776 C439.359206,240.115179 462.817937,223.622712 469.352063,214.648765 C470.452063,213.138551 472.312381,210.962952 472.331429,210.943102 L473.802063,209.217709 L471.741746,208.28633 C471.61,208.224397 470.76873,207.861533 467.102857,206.610167 L453.48619,202.042204 L439.90127,197.486151 C436.20127,196.222874 419.588571,192.618051 407.459206,189.991452 L398.284603,187.984978 L401.275873,187.441873 C429.38381,182.465786 504.030635,169.239894 499.829841,95.2774819" id="Fill-1" fill="#051821" mask="url(#mask-2)"></path>
                </g>
                <path d="M6.54912698,80.9731593 C10.6570635,59.7729833 17.4245238,39.9496276 26.6570635,20.917904 L26.767381,20.6939921 L27.0165873,20.6939921 L27.2046825,20.6939921 L27.2046825,21.0933812 L27.2046825,20.6939921 L27.6221429,20.6939921 L27.6038889,21.1100555 C27.3499206,26.8015484 27.1769048,32.6589903 27.1769048,38.561691 C27.1769048,52.6014481 28.1475397,66.8873495 31.2816667,79.7225871 L31.5864286,80.9731593 L30.6292857,80.1164181 C26.5483333,76.4671294 22.4872222,72.2834692 18.2602381,68.6437086 C14.5435714,72.8083125 10.980873,77.3373688 7.23007937,81.3209375 L6.28642857,82.3213952 L6.54912698,80.9731593 Z" id="Fill-4" fill="#CD1041"></path>
                <path d="M492.601667,72.2774347 L492.215952,72.3727164 L492.595317,72.2583783 C487.173095,54.3509787 482.32627,36.2220491 473.450079,19.7915157 L472.703254,20.0051055 C473.054841,25.6926283 473.235,31.3483907 473.235,36.9581002 C473.235,50.6937498 472.160397,64.1681688 469.938968,77.2439928 L469.80881,78.0054523 L470.504841,77.6695843 C474.856429,75.567035 478.987381,72.7355808 483.431032,70.8394752 L494.162778,78.5914347 L492.601667,72.2774347 Z" id="Fill-6" fill="#CD1041"></path>
                <path d="M317.415714,263.737177 L316.594286,264.100042 C310.49746,266.78778 304.242698,269.464401 297.636349,270.77373 C293.359365,271.875822 289.02127,272.443542 284.742698,272.443542 C271.340317,272.439572 258.541111,266.902118 250.616508,254.754496 L250.364127,254.368605 L250.019683,254.676683 C248.428413,256.091616 247.47127,257.828919 245.810159,259.317695 C237.372857,269.03881 225.126032,272.75956 212.620476,272.761942 C202.904603,272.761942 193.048254,270.50853 184.800635,267.079183 L183.951429,266.72664 L184.274444,267.589734 C190.60381,284.364869 194.481587,302.978148 194.481587,321.684325 C194.481587,330.063556 193.70381,338.461843 192.02127,346.725148 C190.860952,352.519862 188.930794,358.530549 187.378413,364.173607 L187.132381,365.062109 L187.949048,364.630959 C205.79746,355.171869 227.596667,350.378406 249.341111,350.379994 C269.915714,350.379994 290.439524,354.670846 307.516508,363.332746 C310.331587,364.493595 312.972857,366.45481 315.540317,367.284554 L316.295079,367.529905 L316.039524,366.777973 C311.063333,352.020427 308.126032,336.341825 308.126032,319.931142 C308.126032,319.701672 308.127619,319.472996 308.129206,319.241938 C308.101429,318.188281 308.08873,317.150505 308.08873,316.112729 C308.08873,298.183096 311.850635,280.521841 317.133968,264.588361 L317.415714,263.737177 Z" id="Fill-8" fill="#CD1041"></path>
                <path d="M142.83381,281.086862 C140.925873,278.721494 139.373492,276.125862 138.80127,273.112578 L138.629048,272.200256 L139.41,272.702073 C142.617937,274.767304 146.14254,275.620869 149.762381,275.620869 C157.220317,275.626427 165.055238,271.960464 170.916349,267.834767 L171.190159,267.642615 L171.426667,267.878437 L171.620317,268.069795 L171.339365,268.353258 L171.620317,268.069795 L171.754444,268.203983 L171.735397,268.396135 C170.929841,276.009142 168.212381,284.739326 160.12746,287.726407 C158.92746,288.036073 157.748889,288.179789 156.600476,288.179789 C151.187778,288.175819 146.47746,285.014055 142.83381,281.086862" id="Fill-10" fill="#CD1041"></path>
                <path d="M332.510556,278.181405 C330.777222,275.593713 329.819286,272.808312 329.258175,269.657664 L329.075635,268.623064 L329.898651,269.274155 C333.905794,272.444654 338.960556,273.821474 344.127222,273.823062 C350.193889,273.823062 356.406587,271.916634 361.179603,268.843006 L362.140714,268.222087 L361.773254,269.30671 C359.41373,276.202722 353.436746,283.263889 346.168492,284.847948 C345.534365,284.936083 344.905,284.980548 344.285159,284.980548 C339.524841,284.982136 335.23119,282.412706 332.510556,278.181405" id="Fill-12" fill="#CD1041"></path>
                <path d="M341.79873,288.313581 C342.742381,288.510496 343.694762,288.597838 344.643175,288.597838 C347.385238,288.597838 350.138413,287.869727 352.818571,287.02172 L353.619365,286.767635 L353.306667,287.549739 C343.288413,312.599296 331.186825,336.835782 318.711429,360.881704 L318.291587,361.68604 L317.982857,360.833269 C315.470159,353.915818 314.754286,346.568806 314.754286,339.058227 C314.754286,333.549357 315.138413,327.950764 315.491587,322.346612 C317.286825,306.18128 321.174921,290.627338 326.00746,275.663348 L326.301111,274.754996 L326.740794,275.603003 C329.709841,281.387396 335.336032,287.347266 341.775714,288.310405" id="Fill-14" fill="#CD1041"></path>
                <path d="M183.644048,360.975954 C168.537698,337.921755 157.062302,313.542346 145.971032,288.795309 L145.494048,287.728948 L146.523413,288.281582 C149.528175,289.894225 153.556746,291.174969 157.394048,291.173381 C159.979762,291.173381 162.472619,290.592957 164.537698,289.178024 C169.395635,285.783614 172.241667,280.435929 174.156746,275.038221 L174.471032,274.149719 L174.890873,274.992962 C183.221032,291.861792 187.218651,312.273512 187.220238,332.474024 C187.220238,342.038718 186.321825,351.561329 184.561508,360.637704 L184.539286,360.754424 L184.455952,360.841765 L183.91627,361.388841 L183.644048,360.975954 Z" id="Fill-16" fill="#CD1041"></path>
                <path d="M196.923333,438.176037 L196.843175,438.140307 L196.785238,438.075992 C181.392381,421.187312 175.590794,399.460705 174.756667,376.472409 L174.74873,376.259613 L174.920952,376.134159 C195.160635,361.390905 222.21619,353.604009 248.897143,353.602421 C266.408254,353.602421 283.759841,356.955543 298.921746,363.923016 C308.605079,368.255951 317.927302,372.985099 326.486825,379.866025 L326.237619,380.178073 L326.486825,379.866025 L326.659048,380.004183 L326.632857,380.226507 C324.042381,401.854657 316.310635,421.133319 302.680476,437.846521 L302.61381,437.928305 L302.517778,437.968006 C286.283651,444.305826 267.14873,447.726439 248.087619,447.726439 C230.138413,447.726439 212.253492,444.688541 196.923333,438.176037" id="Fill-18" fill="#CD1041"></path>
                <path d="M467.598571,210.970098 C467.596984,210.970098 458.08746,207.323191 455.639841,206.402929 C429.542222,196.573035 395.997778,190.573464 367.500952,189.885848 C364.777143,158.118139 361.123968,138.259846 354.94381,120.315128 L354.856508,120.061837 L354.589841,120.045957 C339.89381,119.191598 274.707302,116.568176 249.512063,116.568176 C224.310476,116.568176 160.296984,120.534276 145.612857,121.389429 L145.34619,121.402133 L145.259683,121.655424 C139.346984,138.764045 132.612063,160.091264 129.47873,191.509607 C100.672381,193.27073 61.8930159,201.524507 35.7977778,211.355195 C33.904127,212.069808 32.522381,212.745514 31.5866667,213.242566 C31.12,213.491093 30.7620635,213.695948 30.5168254,213.834107 C30.4565079,213.868249 30.4025397,213.897628 30.3557143,213.922242 L29.5580952,213.020242 L29.8422222,214.46376 C29.8573016,214.545543 29.8961905,214.610653 29.9446032,214.662264 C33.9414286,219.193702 48.6311111,236.822403 75.9263492,237.44094 C76.3731746,237.450468 76.8406349,237.45285 77.3247619,237.45285 C86.2398413,237.450468 101.339048,235.722693 111.450159,231.299241 C113.91127,230.210647 118.677937,228.250227 119.975556,227.718237 C120.463651,228.648028 121.893016,231.428665 122.609683,233.42561 C125.544603,241.572195 129.031111,253.25373 131.593016,258.358447 C135.393016,265.939693 141.573968,272.023429 151.603333,272.248135 C151.739048,272.252105 151.870794,272.252105 152.001746,272.252105 C161.050952,272.228285 167.309683,264.989258 168.401746,263.452841 L168.82,262.858918 L168.096984,262.824776 C142.858095,261.557529 132.538254,248.150602 130.827937,227.89689 L130.800952,227.589607 L130.500159,227.536408 C127.519206,227.004418 125.627937,226.582797 124.454127,225.943616 C123.288254,225.300464 122.768413,224.512008 122.376349,222.958123 C122.209683,222.276859 122.12873,221.587654 122.12873,220.881776 C122.126349,218.408422 123.131905,215.709568 125.000159,212.589093 C126.960476,209.983933 129.830317,207.406563 135.549365,207.394653 C137.916032,207.394653 140.773968,207.843271 144.250159,208.94695 C152.10254,211.425068 158.390635,216.494848 162.783492,220.345022 C168.019206,224.931248 183.238254,240.800413 192.465238,246.345808 C197.88746,249.598883 206.121587,252.629635 214.509683,252.631223 C221.209683,252.635193 228.023175,250.679536 233.483492,245.322323 C245.216825,233.815471 246.63746,223.911734 248.173175,217.781151 L248.294603,217.297596 L247.796984,217.285686 C227.555714,216.708438 208.374762,214.724991 190.705714,212.281015 C188.667619,211.98326 188.056508,211.124137 188.056508,210.399996 C188.058095,209.509906 189.044603,208.451485 190.665238,208.449897 C190.977937,208.449897 191.31127,208.48801 191.666825,208.579322 C191.722381,208.589644 225.058095,213.00198 248.404921,213.152843 L248.77873,213.154431 L248.805714,212.78045 C248.988254,210.053806 249.033492,205.282575 249.19619,199.902336 L249.208095,199.501359 L248.807302,199.491036 C234.964444,199.176607 211.723968,197.720385 189.686667,193.277876 C187.780317,192.883251 187.035873,191.733519 187.031905,190.775144 C187.049365,189.847735 187.677937,189.039429 189.054921,189.018785 C189.363651,189.018785 189.707302,189.062455 190.088254,189.167265 C193.366032,190.029565 229.245397,195.105697 248.768413,195.112049 C248.830317,195.112049 248.883492,195.109667 248.930317,195.112049 L249.332698,195.125547 L249.341429,194.721394 C249.423968,190.548056 249.464444,184.671558 249.485873,179.019765 L249.48746,178.618788 L249.086667,178.620376 C248.686667,178.622758 248.279524,178.622758 247.866825,178.622758 C235.233492,178.622758 216.962857,177.34916 190.976349,173.389411 C188.849365,173.053543 188.096984,172.030059 188.103333,171.231281 C188.104921,170.415035 188.866825,169.546383 190.485079,169.533679 C190.62873,169.533679 190.77873,169.540031 190.935873,169.558293 C190.931905,169.558293 222.657302,174.276325 247.394603,174.277913 C247.963651,174.277913 248.52873,174.273943 249.091429,174.271561 L249.485873,174.268385 L249.485873,173.87376 C249.485873,170.035496 249.470794,165.563609 249.431111,161.066313 C249.431111,161.030582 249.429524,161.007556 249.429524,160.990087 C249.43746,158.553258 250.52,157.578209 251.305714,157.574239 C252.04619,157.578209 253.004127,158.42304 253.016825,160.669306 C253.016825,162.37326 253.109683,167.218334 253.109683,173.285396 L253.109683,173.629998 L253.112857,174.035739 L253.520794,174.023829 C277.436667,173.290954 298.477937,170.490466 308.344603,168.731725 C308.915238,168.627709 309.414444,168.580862 309.84619,168.580862 C311.807302,168.618181 312.322381,169.398697 312.340635,170.159362 C312.350159,170.944642 311.680317,171.845054 310.683492,172.019737 C307.453333,172.607308 279.745397,177.968491 253.371587,178.539387 L252.981111,178.547327 L252.984286,178.937982 C252.995397,183.592492 253.164444,189.64685 253.244603,194.574501 L253.250952,194.978654 L253.657302,194.964362 C271.377937,194.329945 291.90254,193.666943 309.535079,189.773098 C310.353333,189.591269 311.070794,189.511867 311.688254,189.511867 C313.74619,189.528542 314.507302,190.342406 314.508889,191.036374 C314.539841,191.831183 313.472381,193.059522 310.953333,193.477174 C293.67873,196.360239 268.764444,199.315559 253.776349,199.433073 L253.37,199.437838 L253.379524,199.841197 C253.488254,204.159045 253.525556,209.391598 253.74381,212.821739 L253.766825,213.202866 L254.151746,213.194926 C282.427143,212.51922 309.201746,208.50389 313.760476,207.716228 C314.090635,207.659059 314.399365,207.631269 314.679524,207.631269 C316.451746,207.647149 317.266825,208.598378 317.268413,209.49879 C317.27,210.37697 316.48746,211.444124 314.358889,211.750614 C309.373968,212.427114 276.201746,216.715584 254.955714,217.246779 L254.439841,217.25869 L254.584286,217.756536 C256.682698,224.954274 257.090635,235.424938 267.527143,244.406031 C272.62873,248.796929 279.490635,250.770054 286.565238,250.770054 C293.536667,250.768466 300.722381,248.854098 306.682698,245.415223 C316.008095,240.007987 330.750952,223.851389 335.981111,219.274691 C340.327937,215.457866 350.248571,206.267947 363.52,206.275887 C363.706508,206.275887 363.885873,206.275887 364.066032,206.281445 C370.886667,206.419603 374.204921,208.214869 375.947778,210.168938 C377.697778,212.136505 377.89619,214.293841 378.316032,215.468188 C378.62,216.297139 378.873968,217.411934 378.872381,218.540228 C378.866032,220.201306 378.346984,221.836181 376.699365,222.847755 C374.375556,224.282538 372.188254,223.901411 369.735873,225.025735 L369.54381,225.114665 L369.509683,225.323491 C367.770794,236.393635 364.298571,248.986698 355.620794,255.565105 C350.939841,259.131022 344.89619,261.137496 340.025556,262.238793 C335.158095,263.343267 331.485873,263.541771 331.477937,263.545741 L330.639841,263.591793 L331.205714,264.212712 C331.208095,264.216683 333.260476,266.470095 333.94619,267.124362 C335.489841,268.584554 339.853333,270.702984 345.57,270.714894 C346.179524,270.714894 346.80254,270.690279 347.441429,270.638668 C353.689841,270.106679 360.886667,265.356093 363.957302,262.207033 C368.606508,256.166968 372.874762,243.645366 376.018413,235.584535 C377.136667,232.70941 379.666032,227.726177 380.692222,225.1631 C383.268413,226.380323 384.762857,227.183072 389.681111,229.161755 C399.879524,233.245369 412.823968,235.046193 421.523175,235.048575 C422.019206,235.048575 422.501746,235.041429 422.97,235.032695 C437.17,234.669036 453.227937,226.073834 462.909683,217.091153 C464.606508,215.512653 467.758095,211.602927 467.766032,211.594987 L468.11127,211.165426 L467.598571,210.970098 Z" id="Fill-20" fill="#CD1041"></path>
                <path d="M264.591429,385.490424 C263.09381,388.007448 262.42873,390.900836 262.42873,393.845834 C262.424762,398.605948 264.17873,403.482783 266.930317,407.03679 C267.10254,407.267054 267.323968,407.363924 267.592222,407.369482 C267.897778,407.369482 268.247778,407.214649 268.494603,406.93595 C268.49619,406.851785 268.49619,406.767619 268.49619,406.681866 C268.519206,403.862322 266.699365,401.416758 266.674762,398.329632 C266.674762,397.607079 266.783492,396.853559 267.04381,396.068279 L267.315238,395.247269 L267.762857,395.986496 C270.529524,400.563987 274.992222,403.454198 279.644603,405.008878 C281.466032,405.486874 283.282698,405.717933 285.058889,405.717933 C291.271587,405.716345 297.030317,402.903153 301.107302,397.895306 C303.029524,395.175014 304.51127,391.747255 304.508095,388.383017 C304.508095,386.803723 304.185873,385.236339 303.438254,383.742005 L303.436667,383.742005 C300.50254,378.037808 294.559683,374.751383 288.594603,373.765218 C287.57,373.656438 286.551746,373.604033 285.539841,373.604033 C276.889841,373.608003 268.82,377.468499 264.591429,385.490424" id="Fill-22" fill="#051821"></path>
                <path d="M230.751984,409.290678 C231.246429,409.315293 231.841667,408.738045 232.245635,408.041694 C234.519444,404.474189 236.055159,399.843499 236.053571,395.327147 C236.053571,392.361504 235.394048,389.446678 233.869444,386.891541 L234.212302,386.687479 L233.85754,386.871691 C231.479762,382.307698 226.622619,378.62903 221.978175,377.083085 C219.332143,376.220786 216.536905,375.77455 213.763889,375.77455 C207.123413,375.776932 200.630556,378.322541 196.535317,383.804414 C194.962302,385.880761 194.167063,388.547854 194.167063,391.20542 C194.167063,392.598914 194.385317,393.989233 194.821032,395.279506 C197.009921,401.367212 202.782937,406.181319 208.896429,407.34058 C210.271032,407.58593 211.622619,407.707414 212.944841,407.707414 C220.05754,407.705826 226.331349,404.216134 230.790873,398.09905 L231.232143,397.489247 L231.490079,398.197508 C231.682143,398.737437 231.749603,399.303569 231.749603,399.872083 C231.746429,401.126626 231.423413,402.398636 231.295635,403.425296 C231.082937,405.21818 229.675,406.601353 229.719444,407.843191 C229.721825,408.24258 229.836111,408.639587 230.187698,409.106467 C230.405159,409.243832 230.587698,409.290678 230.751984,409.290678" id="Fill-24" fill="#051821"></path>
                <path d="M198.530079,432.792384 C214.089603,426.252884 232.68246,422.475759 251.14119,422.475759 C265.070556,422.475759 278.925317,424.628331 291.357063,429.389239 C294.472937,430.718419 297.772937,431.803042 300.915,432.772533 C301.708651,431.749049 302.09119,431.518785 302.621349,430.612815 C287.444365,423.162581 269.63246,419.703855 251.734841,419.703855 C232.627698,419.703855 213.42373,423.648517 197.234841,430.858165 C197.546746,431.666472 197.958651,432.188933 198.530079,432.792384" id="Fill-26" fill="#051821"></path>
                <path d="M212.096905,317.748001 C221.397698,329.342988 235.288968,334.479465 249.496111,334.481053 C254.715952,334.481053 259.973889,333.788673 265.050079,332.46664 C288.724683,325.896967 303.016746,300.078011 307.911984,277.494663 C307.220714,276.846747 306.61119,276.717323 305.716746,276.441006 C302.756429,289.73836 297.088968,302.791951 288.709603,313.776342 C278.681825,325.997013 263.880238,332.175236 249.301667,332.175236 C244.121508,332.175236 238.966746,331.396309 234.063571,329.831307 C212.381825,323.063925 201.127063,299.283203 199.025476,277.759069 C198.140556,277.767803 197.533413,277.816238 196.84373,278.304557 C198.306429,293.135946 202.753254,306.35231 212.096905,317.748001" id="Fill-28" fill="#051821"></path>
                <path d="M35.9579365,94.6136861 C48.3793651,118.591323 73.4253968,126.309934 98.8968254,125.090329 C113.153175,124.971227 126.844444,123.484832 140.913492,122.590772 L140.907143,123.56344 C133.749206,143.752836 129.10873,164.321771 126.146032,185.494156 C89.2666667,186.849538 51.4611111,183.926772 24.2166667,159.287721 C5.76111111,140.508494 1.05,114.759411 5.06190476,89.3223762 C9.45793651,84.0993516 13.984127,79.7219519 18.5722222,74.4997213 C24.6222222,80.7486121 34.2880952,85.8580928 35.9579365,94.6136861" id="Fill-30" fill="#FEFEFE"></path>
                <path d="M494.590476,83.8507458 C495.522222,87.5524394 495.69127,91.0532475 496.049206,94.9455046 C497.80873,123.33389 485.547619,149.51174 461.336508,163.959621 C434.834127,179.951858 404.205556,185.428968 371.703175,186.226158 C371.148413,183.306568 370.787302,179.60805 370.424603,176.304158 C367.857143,157.632123 364.342063,138.755232 359.110317,120.840686 C393.897619,120.445267 436.235714,129.614542 459.203175,97.6626208 C462.26746,93.2097898 465.33254,89.1372915 468.020635,84.2922176 C473.163492,81.9856067 478.120635,78.7095046 483.074603,76.0138268 C487.244444,78.171957 490.415873,81.498082 494.590476,83.8507458" id="Fill-32" fill="#FEFEFE"></path>
                <path d="M362.366984,227.579285 C362.501905,238.4676 359.026508,249.725926 349.301111,254.919572 C344.73127,257.424686 339.403492,258.367181 334.271746,258.140093 C334.091587,257.174572 333.713016,256.001813 334.102698,254.839376 C342.079683,255.075198 349.702698,252.201661 353.914603,245.615315 C356.793175,240.770241 357.955079,235.332038 357.990794,229.308647 C359.325714,228.538454 360.846349,227.959617 362.366984,227.579285" id="Fill-34" fill="#FEFEFE"></path>
                <path d="M166.009365,257.138444 C164.57127,257.381412 163.894286,257.746659 161.183175,257.151148 C148.389524,257.151148 134.994286,246.886134 135.777619,229.500402 C137.287143,228.911243 138.990317,229.138331 140.563333,229.647294 C140.563333,239.519271 144.54746,253.001631 165.481587,253.001631 C166.92127,255.289979 165.536349,255.521037 166.009365,257.138444" id="Fill-36" fill="#FEFEFE"></path>
            </g>
        </g>
    </g>
</svg>