<?xml version="1.0" encoding="UTF-8" standalone="no"?>
<svg width="500px" height="500px" viewBox="0 0 500 500" version="1.1" xmlns="http://www.w3.org/2000/svg" xmlns:xlink="http://www.w3.org/1999/xlink">
    <!-- Generator: Sketch 44.1 (41455) - http://www.bohemiancoding.com/sketch -->
    <title>CLE</title>
    <desc>Created with Sketch.</desc>
    <defs></defs>
    <g id="Page-1" stroke="none" stroke-width="1" fill="none" fill-rule="evenodd">
        <g id="CLE">
            <g id="Page-1" transform="translate(0.000000, 33.000000)">
                <g id="Group-3" transform="translate(0.000000, 7.732528)" fill="#FDBA30">
                    <path d="M364.451613,88.7923611 C357.258065,88.05125 341.870968,92.0629167 318.048387,102.067917 C282.491935,116.994861 240.459677,148.51625 213.709677,177.202083 C185.032258,207.96625 128.072581,279.080694 128.83871,312.14875 C128.83871,313.30875 129.701613,317.634583 134.475806,319.487361 L136.572581,320.139861 C153.903226,324.135417 178.217742,321.460972 231.169355,304.995417 C231.169355,304.995417 312.032258,280.522639 412.564516,236.482917 L441.516129,220.395972 L426.685484,295.11125 L424.951613,296.609583 C350.419355,361.271528 235.08871,422.05875 137.443548,426.62625 C114.870968,427.673472 88.5080645,426.521528 65.2822581,417.249583 C34.6854839,405.061528 15.8145161,386.485417 7.55645161,363.277361 C4.25,356.583194 -23.8145161,292.098472 54.7258065,193.627361 L3.58064516,206.258472 L44.7016129,142.675972 C127.951613,73.8895833 373,-68.8790278 487.443548,39.8468056 L496.346774,48.8931944 L496.346774,85.2881944 C496.346774,85.2881944 313.854839,191.621528 314.806452,189.921806 C316.451613,186.917083 354.572581,111.790972 354.572581,111.790972 C359.290323,102.543194 362.508065,94.9468056 364.451613,88.7923611" id="Fill-1"></path>
                </g>
                <path d="M370.673387,84.2699722 C358.939516,80.4999722 337.71371,87.0974722 312.915323,97.5535833 C275.302419,113.342472 231.729839,146.056083 203.955645,175.853583 C176.955645,204.861639 114.544355,280.487194 115.512097,320.209139 C115.576613,321.884694 115.689516,323.536083 115.931452,325.131083 C109.915323,320.15275 106.254032,312.910806 105.96371,302.478861 C105.020161,262.764972 167.399194,187.163583 194.375,158.18775 C222.173387,128.382194 265.778226,95.6766389 303.358871,79.8555278 C342.278226,63.4624722 372.375,56.4783056 370.673387,84.2699722" id="Fill-4" fill="#002C62"></path>
                <path d="M484.143548,62.5385 L484.433871,86.0043333 L346.474194,169.379333 C347.941935,167.881 363.506452,137.833778 364.45,135.691 L484.143548,62.5385 Z" id="Fill-6" fill="#002C62"></path>
                <path d="M77.3685484,182.160278 C62.7717742,185.664444 48.0056452,189.313611 34.8604839,192.551944 C36.6830645,190.111111 50.2153226,171.526944 53.3120968,167.499167 C69.4330645,163.729167 85.9733871,160.015556 100.949194,156.543611 C93.691129,163.753333 85.6266129,172.405 77.3685484,182.160278" id="Fill-8" fill="#002C62"></path>
                <path d="M416.249194,294.292806 C342.991129,357.843083 230.426613,416.680861 136.829839,421.103361 C114.902419,422.10225 90.8137097,420.829472 70.2572581,412.580583 C42.1685484,401.399472 26.6040323,385.175583 19.9669355,366.156417 C28.6120968,377.579194 41.8137097,387.350583 60.6766129,394.922806 C81.2895161,403.083083 105.378226,404.404194 127.305645,403.340861 C228.305645,398.660583 351.329839,330.518639 423.265323,261.466417 L416.249194,294.292806 Z" id="Fill-10" fill="#002C62"></path>
                <path d="M478.129032,57.15175 L366.427419,125.567583 C414.387097,31.7123056 328.016129,53.7361944 270.322581,87.6581389 C237.508065,104.880917 199.895161,139.745361 188.096774,152.303972 C92.1129032,254.392028 24.8870968,390.828972 235.056452,325.482306 C235.056452,325.482306 316.75,300.775917 418.16129,256.244806 C131.08871,498.483417 -139.870968,397.184806 126.75,142.516472 C102.483871,148.058694 77.983871,153.327028 54.016129,160.021194 C139.387097,89.4545278 373.58871,-42.1974167 478.129032,57.15175" id="Fill-12" fill="#860037"></path>
            </g>
        </g>
    </g>
</svg>