<?xml version="1.0" encoding="UTF-8" standalone="no"?>
<svg width="500px" height="500px" viewBox="0 0 500 500" version="1.1" xmlns="http://www.w3.org/2000/svg" xmlns:xlink="http://www.w3.org/1999/xlink">
    <!-- Generator: Sketch 39.1 (31720) - http://www.bohemiancoding.com/sketch -->
    <title>BOS</title>
    <desc>Created with Sketch.</desc>
    <defs></defs>
    <g id="NBA" stroke="none" stroke-width="1" fill="none" fill-rule="evenodd">
        <g id="BOS">
            <g id="Page-1">
                <g id="Group-3" transform="translate(0.000000, 1.103077)" fill="#008348">
                    <path d="M242.704651,499.908372 C380.388372,503.603721 495.002326,394.975814 498.7,257.292093 C502.393023,119.608372 393.769767,4.99674419 256.086047,1.30604651 C118.397674,-2.39395349 3.78372093,106.231628 0.0906976744,243.915349 C-3.60232558,381.596744 105.016279,496.213023 242.704651,499.908372" id="Fill-1"></path>
                </g>
                <path d="M386.447907,282.644308 C378.101395,271.119692 363.37814,264.247385 350.52,262.668923 C337.66186,261.092769 328.413023,262.643538 317.413023,265.925077 C303.359535,269.151231 292.86186,274.152 278.243256,279.732 C285.82,271.415077 295.064186,261.637385 301.615349,250.198154 C310.733953,234.175846 315.985116,223.018154 316.752558,206.121231 C317.503721,189.473538 308.401395,170.114308 294.206047,160.308923 C283.071163,152.776615 267.329302,152.093538 255.031628,160.027385 C249.931628,163.288154 246.268837,166.546615 243.84093,169.032 C233.152558,161.559692 222.638605,157.396615 209.396744,159.522 C197.464186,160.627385 188.854884,171.157385 183.664186,180.618923 C166.538605,215.275846 195.743256,249.939692 217.347907,274.800462 C178.745581,263.400462 169.222326,263.162769 159.254884,262.320462 C149.289767,261.475846 133.380465,262.597385 121.954884,269.056615 C110.529302,275.515846 100.436279,286.285846 99.464186,305.626615 C98.7548837,319.749692 106.552558,333.473538 120.882791,341.628923 C112.908372,360.602769 118.280465,379.938923 138.243256,388.528154 C161.094419,398.361231 180.789767,392.019692 196.387442,380.642769 C211.982791,369.265846 225.347907,354.785077 237.02,339.378923 C233.396744,423.399692 286.143256,449.282769 286.143256,449.282769 L292.022326,428.465077 C282.043256,421.371231 255.482791,397.043538 257.929302,340.265077 L262.564186,344.829692 C276.245581,358.888154 288.724651,370.458923 305.150233,383.852769 C321.575814,397.246615 352.971163,401.862 371.173488,379.952769 C379.468837,369.969692 382.04093,349.938923 376.926977,341.580462 L377.096744,339.621231 C384.985116,334.576615 391.631628,328.558154 394.42,319.244308 C398.780465,306.658154 393.031628,292.514308 386.447907,282.644308" id="Fill-4" fill="#FEFEFE"></path>
                <polygon id="Fill-6" fill="#FEFEFE" points="66.5962791 180.489462 53.8590698 176.192538 48.8613953 190.770231 116.05907 213.436385 120.842791 199.470231 108.205581 195.207923 111.661395 185.111769 123.377674 189.064846 131.135814 200.211 124.326512 220.091769 112.389302 224.478692 46.1148837 202.128692 38.2567442 190.491 43.3125581 175.726385 48.2311628 173.979462 44.3613953 172.671 47.58 163.269462 69.9148837 170.801769"></polygon>
                <polygon id="Fill-8" fill="#FEFEFE" points="394.143256 121.724308 403.382791 112.013538 392.09907 101.444308 343.380465 152.652 354.194419 162.782769 363.352558 153.145846 371.168837 160.463538 362.675814 169.389692 349.231628 171.755077 333.845581 157.336615 334.782791 144.745846 382.829302 94.242 396.768837 91.9850769 408.19907 102.697385 407.757209 107.857385 410.559535 104.905846 417.836279 111.722769 401.643256 128.744308"></polygon>
                <polygon id="Fill-10" fill="#FEFEFE" points="110.046512 116.054308 99.9116279 107.273538 91.9162791 116.354308 114.393023 135.833538 121.944186 127.253538 129.54186 133.837385 121.993023 142.415077 145.374419 162.672 153.72093 153.180462 143.751163 144.540462 150.174419 137.238923 167.662791 152.395846 141.332558 182.324308 133.811628 175.812 138.023256 171.025846 84.5627907 124.705846 80.3511628 129.494308 72.7511628 122.905846 99.0860465 92.9796923 116.82093 108.344308"></polygon>
                <polygon id="Fill-12" fill="#FEFEFE" points="183.501163 143.181 179.622093 134.056385 185.115116 131.753308 157.526744 66.8702308 152.026744 69.171 148.10814 59.9448462 169.103488 51.1548462 173.026744 60.3833077 167.526744 62.6863846 195.115116 127.569462 205.510465 123.212538 200.366279 111.113308 209.863953 107.134846 218.894186 128.363308"></polygon>
                <polygon id="Fill-14" fill="#FEFEFE" points="267.706977 59.6201538 267.706977 46.2655385 258.916279 46.2655385 258.916279 116.691692 264.997674 116.691692 264.997674 126.596308 241.230233 126.596308 241.230233 116.691692 247.848837 116.691692 247.848837 46.2655385 239.276744 46.2655385 239.276744 59.6201538 228.646512 59.6201538 228.646512 36.2524615 277.911628 36.2524615 277.911628 59.6201538"></polygon>
                <polygon id="Fill-16" fill="#FEFEFE" points="333.85093 63.5453077 308.453256 129.305308 313.727674 131.315308 310.153256 140.562231 288.774186 132.429923 292.343953 123.180692 298.425349 125.493 323.816047 59.733 317.741628 57.4183846 321.355581 48.0722308 342.834651 56.2391538 339.220698 65.5899231"></polygon>
                <polygon id="Fill-18" fill="#FEFEFE" points="374.928837 219.221077 368.63814 203.974154 371.224186 199.628769 367.486977 201.188769 363.284651 191.254154 384.556744 182.406462 388.752093 192.336462 376.542791 197.415692 382.793953 212.214923 412.014884 200.055692 403.624186 180.191077 407.570698 172.829538 437.498605 160.379538 450.298605 163.926462 456.447442 178.471846 453.98 183.038769 457.717209 181.481077 461.761395 191.039538 440.026512 200.076462 435.877674 190.243385 448.286977 185.078769 442.077674 170.383385 415.22186 181.559538 423.698605 201.618 419.10093 209.018769 387.075349 222.341077"></polygon>
            </g>
        </g>
    </g>
</svg>