<?xml version="1.0" encoding="UTF-8" standalone="no"?>
<svg width="500px" height="500px" viewBox="0 0 500 500" version="1.1" xmlns="http://www.w3.org/2000/svg" xmlns:xlink="http://www.w3.org/1999/xlink">
    <!-- Generator: Sketch 39.1 (31720) - http://www.bohemiancoding.com/sketch -->
    <title>LAC</title>
    <desc>Created with Sketch.</desc>
    <defs>
        <polygon id="path-1" points="1.02949853 498.657407 348.128642 498.657407 348.128642 0.346364883 1.02949853 0.346364883"></polygon>
    </defs>
    <g id="NBA" stroke="none" stroke-width="1" fill="none" fill-rule="evenodd">
        <g id="LAC">
            <g id="Page-1" transform="translate(76.000000, 0.000000)">
                <g id="Group-3" transform="translate(0.000000, 0.029150)" fill="#FEFEFE">
                    <path d="M348.126066,207.4357 L348.126066,47.0447531 C348.126066,16.4806241 332.084571,0.311213992 301.710497,0.311213992 L47.0646399,0.311213992 C16.9567798,0.311213992 1.02692227,16.4806241 1.02692227,47.0447531 L1.02692227,451.897291 C1.02692227,482.46142 16.9567798,498.63083 47.0646399,498.63083 L301.710497,498.63083 C332.084571,498.63083 348.126066,482.46142 348.126066,451.897291 L348.126066,291.352023 L284.458161,291.352023 L284.483924,207.4357 L348.126066,207.4357 Z" id="Fill-1"></path>
                </g>
                <polygon id="Fill-4" fill="#ED174B" points="81.0781061 74.0012003 81.0781061 423.581104 268.157323 423.581104 268.157323 375.527263 131.143373 375.527263 131.143373 74.0012003"></polygon>
                <path d="M331.759104,191.120542 L331.759104,47.0704733 C331.759104,25.4998285 323.051354,16.6949588 301.711356,16.6949588 L47.0654987,16.6949588 C26.0003016,16.6949588 17.3956023,25.4998285 17.3956023,47.0704733 L17.3956023,451.923011 C17.3956023,473.502229 26.0003016,482.307099 47.0654987,482.307099 L301.711356,482.307099 C323.051354,482.307099 331.759104,473.502229 331.759104,451.923011 L331.759104,307.727195 L281.298811,307.727195 L281.298811,438.102709 L67.4780439,438.102709 L67.4780439,60.8993484 L281.298811,60.8993484 L281.298811,191.120542 L331.759104,191.120542 Z" id="Fill-6" fill="#006AB6"></path>
                <mask id="mask-2" fill="white">
                    <use xlink:href="#path-1"></use>
                </mask>
                <g id="Clip-9"></g>
                <path d="M194.901447,224.317558 L219.290016,224.317558 L219.290016,122.054184 L194.901447,122.054184 L194.901447,224.317558 Z M268.075741,361.997599 L268.153029,74.0003429 L146.596623,74.0003429 L145.420132,361.997599 L194.102807,361.997599 L194.875684,272.217078 L219.624929,272.217078 L219.272841,361.997599 L268.075741,361.997599 Z" id="Fill-8" fill="#ED174B" mask="url(#mask-2)"></path>
            </g>
        </g>
    </g>
</svg>