<?xml version="1.0" encoding="UTF-8" standalone="no"?>
<svg width="500px" height="500px" viewBox="0 0 500 500" version="1.1" xmlns="http://www.w3.org/2000/svg" xmlns:xlink="http://www.w3.org/1999/xlink">
    <!-- Generator: Sketch 39.1 (31720) - http://www.bohemiancoding.com/sketch -->
    <title>MEM</title>
    <desc>Created with Sketch.</desc>
    <defs>
        <polygon id="path-1" points="0 466.952347 499.999206 466.952347 499.999206 0.496386054 0 0.496386054"></polygon>
    </defs>
    <g id="NBA" stroke="none" stroke-width="1" fill="none" fill-rule="evenodd">
        <g id="MEM">
            <g id="MGrizzlies_P_pms" transform="translate(0.000000, 17.000000)">
                <g id="Group-3">
                    <mask id="mask-2" fill="white">
                        <use xlink:href="#path-1"></use>
                    </mask>
                    <g id="Clip-2"></g>
                    <path d="M467.519048,113.087068 C465.55873,110.123048 463.588095,107.290073 461.603968,104.511105 C511.031746,23.4325986 394.413492,-38.7189065 352.190476,30.0921139 C300.212698,20.5074949 256.757143,39.5337738 250.912698,42.2587347 C245.054762,39.552835 202.136508,20.7664099 150.652381,29.899119 C99.6587302,-41.8886293 -5.53333333,32.3222772 40.8531746,103.579488 C38.6325397,106.637226 36.4388889,109.783122 34.2801587,113.087068 C-31.6666667,213.492862 17.8277778,281.539051 17.8277778,281.539051 L27.9738095,271.393714 C27.9738095,271.393714 42.3904762,341.39209 118.501587,387.378883 L121.251587,372.275245 C168.12381,422.392764 211.559524,421.24909 251.995238,467 C289.394444,423.637303 343.709524,423.637303 386.021429,369.539165 L386.021429,388.738583 C464.202381,350.667759 471.400794,268.30659 471.400794,268.30659 L478.622222,281.68201 C478.622222,281.68201 533.435714,213.492862 467.519048,113.087068" id="Fill-1" fill="#002344" mask="url(#mask-2)"></path>
                </g>
                <path d="M301.740476,184.206085 C305.399206,182.868622 311.855556,186.737257 315.311905,193.465869 C331.184921,188.878468 330.323016,167.487009 330.234921,165.979583 C317.655556,170.879906 307.271429,179.308939 301.740476,184.206085" id="Fill-4" fill="#F3B336"></path>
                <path d="M311.06746,196.854796 C349.474603,300.337389 300.539683,366.79832 300.539683,366.79832 C330.690476,287.841963 311.322222,222.160954 298.12619,197.7745 C291.349206,198.447202 283.223016,198.057241 283.223016,198.057241 C283.223016,198.057241 293.392063,191.761478 299.995238,185.766723 C300.515873,185.299723 301.111111,184.758066 301.77619,184.175111 C301.761111,184.182259 301.748413,184.194172 301.740476,184.206085 C305.399206,182.868622 311.855556,186.737257 315.311905,193.465869 C331.153968,188.890381 330.323016,167.575961 330.234921,165.995468 C334.853968,164.194182 339.761905,162.868633 344.84127,162.373835 C344.84127,162.373835 341.198413,196.391767 311.06746,196.854796 L311.06746,196.854796 Z M330.234921,165.979583 L330.234921,165.995468 C330.069048,166.060594 329.903175,166.130485 329.729365,166.200376 C329.903175,166.130485 330.061111,166.053446 330.234921,165.979583 L330.234921,165.979583 Z M74.0968254,96.3409881 C72.7142857,83.2935799 89.181746,70.3621276 89.181746,70.3621276 C82.4039683,63.3483912 70.5357143,69.4313044 70.5357143,69.4313044 C81.3031746,48.3678571 105.394444,58.6680663 105.394444,58.6680663 C96.2571429,47.4751565 76.915873,48.1828044 76.915873,48.1828044 C100.856349,24.4460204 129.747619,60.7314439 129.747619,60.7314439 C104.019048,66.5594133 74.0968254,96.3409881 74.0968254,96.3409881 L74.0968254,96.3409881 Z M371.685714,63.3325068 C371.685714,63.3325068 387.311111,24.2522313 435.17619,33.678801 C435.17619,33.678801 391.234127,4.74306803 360.655556,57.0716888 C360.655556,57.0716888 317.25873,36.4688878 251.847619,64.7700408 C251.847619,64.7700408 189.870635,43.1434932 143.137302,55.394301 C143.137302,55.394301 115.887302,8.07084014 77.518254,27.5680901 C39.1380952,47.0423078 59.1666667,92.1252806 65.8436508,103.808223 C65.8436508,103.808223 2.25238095,168.638624 26.1698413,248.796633 L38.9642857,232.828092 C38.9642857,232.828092 57.2198413,320.116587 104.351587,347.625905 L107.178571,326.176468 C107.178571,326.176468 156.380159,385.581568 214.244444,410.813864 C219.747619,413.391895 250.442063,428.638491 251.392063,436.158939 L251.392063,394.582437 C251.392063,394.582437 211.211905,397.92927 200.611111,379.393818 C193.419841,366.79832 147.276984,284.406177 170.074603,198.13031 C170.074603,198.13031 147.880159,194.814451 143.700794,157.322611 C143.700794,157.322611 127.133333,149.25733 106.560317,150.930747 C106.560317,150.930747 143.369048,139.374879 177.852381,152.73918 C212.331746,166.091568 221.55873,200.101558 244.939683,185.067811 L251.847619,89.2613316 L258.424603,185.067811 C281.789683,200.101558 291.030952,166.091568 325.499206,152.73918 C359.995238,139.374879 396.803968,150.930747 396.803968,150.930747 C396.803968,150.930747 382.088889,140.542379 358.423016,135.815196 C338.684127,131.86158 309.661905,144.557944 309.661905,144.557944 C309.661905,144.557944 313.659524,117.377432 326.839683,102.887724 C338.147619,90.4208895 363.775397,87.6728963 371.685714,63.3325068 L371.685714,63.3325068 Z M251.538889,287.536983 C255.918254,286.872223 325.346032,284.348993 282.806349,327.536963 C312.465873,288.247808 258.642063,287.942828 251.538889,287.536983 L251.538889,287.536983 Z" id="Fill-5" fill="#5F81A8"></path>
                <path d="M174.851587,165.93749 C174.75873,167.521954 173.940476,188.890381 189.770635,193.465869 C193.173016,186.857184 199.271429,183.011582 202.970635,184.156049 C194.497619,177.570396 183.876984,170.242944 174.851587,165.93749" id="Fill-6" fill="#F3B336"></path>
                <path d="M251.392063,339.768709 L251.392063,359.436716 L238.018254,360.147541 C224.007937,360.565299 205.670635,366.261429 205.670635,366.261429 C171.680952,282.029878 190.530952,218.29232 199.611111,195.537189 C165.919048,202.853522 160.465873,162.373835 160.465873,162.373835 C163.949206,161.66301 169.074603,163.185526 174.851587,165.93749 C174.75873,167.521954 173.940476,188.890381 189.770635,193.465869 C193.173016,186.865126 199.255556,183.027466 202.947619,184.152078 C205.461905,186.0995 207.798413,187.989738 209.833333,189.709219 C232.754762,209.006327 250.538889,205.086862 250.538889,205.086862 C250.538889,205.086862 250.790476,278.509111 250.790476,287.536983 C250.790476,287.536983 184.499206,282.349947 220.118254,327.536963 C220.118254,327.536963 225.830159,311.014852 231.912698,316.220949 C240.350794,323.46342 251.392063,338.2041 251.392063,339.768709 L251.392063,339.768709 Z M174.894444,165.960522 C174.874603,165.956551 174.859524,165.948609 174.851587,165.93749 C174.859524,165.948609 174.874603,165.956551 174.894444,165.960522 L174.894444,165.960522 Z M251.407143,384.653922 C202.947619,384.653922 209.481746,373.971694 209.481746,373.971694 C214.7,370.713813 248.626984,370.045082 251.334921,370.045082 C254.022222,370.045082 288.084127,370.713813 293.29127,373.971694 C293.29127,373.971694 299.829365,384.653922 251.407143,384.653922 L251.407143,384.653922 Z" id="Fill-7" fill="#B8CCDE"></path>
            </g>
        </g>
    </g>
</svg>