<?xml version="1.0" encoding="UTF-8" standalone="no"?>
<svg width="500px" height="500px" viewBox="0 0 500 500" version="1.1" xmlns="http://www.w3.org/2000/svg" xmlns:xlink="http://www.w3.org/1999/xlink">
    <!-- Generator: Sketch 39.1 (31720) - http://www.bohemiancoding.com/sketch -->
    <title>MIA</title>
    <desc>Created with Sketch.</desc>
    <defs>
        <polygon id="path-1" points="0.000236369749 499.92665 476.327308 499.92665 476.327308 0.531784841 0.000236369749 0.531784841 0.000236369749 499.92665"></polygon>
    </defs>
    <g id="NBA" stroke="none" stroke-width="1" fill="none" fill-rule="evenodd">
        <g id="MIA">
            <g id="MHeat_P_pms" transform="translate(12.000000, 0.000000)">
                <g id="Group-3">
                    <mask id="mask-2" fill="white">
                        <use xlink:href="#path-1"></use>
                    </mask>
                    <g id="Clip-2"></g>
                    <path d="M50.3345077,192.061125 C51.8058692,175.432763 111.751315,153.47066 208.661815,150.042787 C199.674646,156.784841 189.025315,168.561125 186.388362,187.50489 L185.394,194.663814 C184.759223,199.075795 183.980123,203.59291 182.269038,208.04401 C178.538654,217.833741 168.022638,225.899756 156.756877,232.050122 C117.738277,227.145477 85.1310462,218.93154 66.0767308,208.622249 L66.0437077,208.617359 C55.6328769,202.973105 49.8905308,196.93643 50.3345077,192.061125 L50.3345077,192.061125 Z M422.618331,187.066015 C426.320585,191.134474 426.082085,193.779951 426.014815,194.644254 C425.605085,199.338631 419.708631,205.002445 409.843292,210.198044 L409.818831,210.202934 C389.098685,221.085575 353.457,229.317848 311.050477,233.658924 C312.914446,232.46088 314.930077,231.409535 317.137731,230.517115 L317.829992,230.234719 C330.037523,225.292176 343.839946,219.682152 344.504077,199.53423 C344.594585,196.330073 344.752362,186.507335 346.5246,182.987775 C348.808085,178.48044 354.637269,171.502445 359.744838,169.630807 C359.825562,169.5978 351.173515,167.91687 351.173515,167.91687 C350.724646,167.869193 350.289231,167.854523 349.845254,167.839853 C352.745169,165.734719 354.819508,163.222494 356.323892,160.577017 C390.770631,167.749389 413.9565,177.506112 422.618331,187.066015 L422.618331,187.066015 Z M464.934346,161.766504 C446.731292,141.695599 406.565446,125.410758 354.819508,115.555012 C355.0629,109.618582 358.674646,107.102689 365.119038,102.641809 C368.4825,100.326406 372.296054,97.6858191 376.121838,94.0464548 C392.800938,78.2017115 373.213362,53.9290954 372.376777,52.9022005 L361.594131,39.7603912 L364.1736,56.5696822 C365.950731,68.0831296 361.717662,72.1711491 349.190908,80.8997555 C347.594792,81.9987775 346.233508,83.2298289 345.03,84.5391198 C345.564485,76.8410758 345.922846,68.2787286 343.333592,57.5391198 C340.734554,46.7897311 335.450862,42.4437653 335.450862,42.4437653 L334.083462,58.0305623 C334.0749,58.1210269 332.870169,70.198044 316.736562,84.797066 C318.1272,83.2444988 319.426108,81.6259169 320.581915,79.9352078 C328.498892,68.4315403 326.210515,55.3471883 323.5491,40.1992665 L322.999938,37.0146699 C320.295715,21.2127139 324.509215,11.3655257 327.223223,9.74205379 C329.879746,6.52322738 335.130415,1.16625917 335.130415,1.16625917 C335.130415,1.16625917 332.345469,-0.0855745721 324.586269,0.926650367 C314.4861,2.32151589 297.525692,8.35207824 297.984346,22.1577017 C298.184931,28.2322738 300.134515,33.9865526 301.863946,39.0635697 C303.716908,44.5158924 305.456123,49.6552567 303.904038,52.309291 C302.666285,54.400978 298.92,56.0684597 293.057792,57.1381418 C269.304415,61.4596577 251.086685,72.5806846 241.780292,88.4449878 C238.703031,93.6833741 236.658046,99.3141809 235.617208,105.216381 C176.631877,105.392421 120.809423,112.742054 77.4953769,126.136919 C28.9734692,141.141809 2.22355385,161.566015 0.1272,185.212714 C-0.977238462,197.657702 4.65136154,215.594132 35.8019077,232.856968 L35.5964308,233.077017 L44.4392769,237.308068 L44.4539538,237.316626 L49.1114308,239.556235 L49.1738077,239.49511 C63.5253923,245.903423 80.3720538,251.442543 99.1389462,256.022005 C92.4548308,259.779951 86.3015308,264.121027 80.7732231,269.045232 C50.5925769,293.804401 33.1930846,330.513447 33.1930846,369.643032 C33.1930846,404.464548 46.7655692,437.199267 71.3946692,461.816626 C96.0335538,486.447433 128.7741,500 163.608554,500 C225.268754,500 278.931254,456.320293 291.333254,396.074572 C301.863946,364.595355 300.649431,330.819071 300.172431,318.08802 C299.130369,289.149144 313.348638,273.136919 322.398185,265.91687 C363.581631,260.711491 400.053785,251.690709 427.190192,239.595355 L427.247677,239.643032 L431.623846,237.561125 C431.638523,237.556235 431.638523,237.551345 431.662985,237.551345 L441.054992,233.072127 L440.801815,232.823961 C462.650862,220.632029 474.857169,206.295844 476.195215,191.02445 C477.107631,180.848411 473.305085,171.001222 464.934346,161.766504 L464.934346,161.766504 Z" id="Fill-1" fill="#0F1216" mask="url(#mask-2)"></path>
                </g>
                <path d="M350.256208,114.700489 C351.130708,103.02445 362.205669,100.842298 372.897808,90.6748166 C386.647638,77.6283619 368.774815,55.8581907 368.774815,55.8581907 C371.033838,70.4987775 364.249431,76.0819071 351.852323,84.7200489 C347.920131,87.4523227 345.082592,91.3056235 344.671638,96.1528117 C344.226438,101.581907 343.882754,107.43643 342.689031,113.386308 C345.244038,113.806846 347.757462,114.246944 350.256208,114.700489" id="Fill-4" fill="#ED992D"></path>
                <path d="M350.256208,114.700489 C351.130708,103.02445 362.205669,100.842298 372.897808,90.6748166 C386.647638,77.6283619 368.774815,55.8581907 368.774815,55.8581907 C371.033838,70.4987775 364.249431,76.0819071 351.852323,84.7200489 C347.920131,87.4523227 345.082592,91.3056235 344.671638,96.1528117 C344.226438,101.581907 343.882754,107.43643 342.689031,113.386308 C345.244038,113.806846 347.757462,114.246944 350.256208,114.700489 L350.256208,114.700489 Z" id="Stroke-5" stroke="#ED992D" stroke-width="0.949877751"></path>
                <path d="M312.412985,94.3520782 C309.110677,96.8166259 306.024854,99.3422983 303.134723,101.925428 C301.070169,103.893643 299.067992,105.855746 297.215031,107.732274 C309.297808,108.773839 321.032008,110.134474 332.345469,111.787286 C339.559177,98.6259169 343.013146,83.7127139 338.732377,58.3031785 C338.732377,58.3031785 337.724562,75.5085575 312.412985,94.3520782" id="Fill-6" fill="#ED992D"></path>
                <path d="M312.412985,94.3520782 C309.110677,96.8166259 306.024854,99.3422983 303.134723,101.925428 C301.070169,103.893643 299.067992,105.855746 297.215031,107.732274 C309.297808,108.773839 321.032008,110.134474 332.345469,111.787286 C339.559177,98.6259169 343.013146,83.7127139 338.732377,58.3031785 C338.732377,58.3031785 337.724562,75.5085575 312.412985,94.3520782 L312.412985,94.3520782 Z" id="Stroke-7" stroke="#ED992D" stroke-width="0.949877751"></path>
                <path d="M244.943169,105.231051 C258.755377,105.369193 272.309515,105.918093 285.5004,106.825183 C285.954162,106.386308 286.360223,105.942543 286.823769,105.507335 C295.691077,95.99511 309.412777,87.9633252 316.746346,77.294621 C324.079915,66.6356968 321.127408,53.594132 318.408508,37.797066 C313.736354,10.5831296 325.216154,5.5403423 325.216154,5.5403423 C325.216154,5.5403423 302.197846,8.71026895 302.636931,22.00978 C303.235015,39.8655257 321.633762,56.6699267 293.904162,61.7176039 C263.470338,67.2518337 244.550562,83.7127139 240.365192,105.226161 C241.889146,105.231051 243.417992,105.221271 244.943169,105.231051" id="Fill-8" fill="#ED992D"></path>
                <path d="M244.943169,105.231051 C258.755377,105.369193 272.309515,105.918093 285.5004,106.825183 C285.954162,106.386308 286.360223,105.942543 286.823769,105.507335 C295.691077,95.99511 309.412777,87.9633252 316.746346,77.294621 C324.079915,66.6356968 321.127408,53.594132 318.408508,37.797066 C313.736354,10.5831296 325.216154,5.5403423 325.216154,5.5403423 C325.216154,5.5403423 302.197846,8.71026895 302.636931,22.00978 C303.235015,39.8655257 321.633762,56.6699267 293.904162,61.7176039 C263.470338,67.2518337 244.550562,83.7127139 240.365192,105.226161 C241.889146,105.231051 243.417992,105.221271 244.943169,105.231051 L244.943169,105.231051 Z" id="Stroke-9" stroke="#ED992D" stroke-width="0.949877751"></path>
                <path d="M38.2284923,378.867971 C41.6445462,396.017115 51.4719692,416.556235 70.9690385,430.261614 C76.8654923,434.405868 83.2866462,437.767726 90.0796154,440.342298 C85.8563308,433.165037 80.9689154,425.933985 75.9763154,418.561125 C66.6552462,404.808068 57.0039462,390.591687 50.8702154,375.292176 C44.5395692,359.49022 42.8248154,342.933985 45.5901923,326.297066 C40.5927,339.805623 37.8603462,354.399756 37.8603462,369.643032 C37.8603462,372.751834 37.9948846,375.826406 38.2284923,378.867971" id="Fill-10" fill="#81112B"></path>
                <path d="M59.2446231,371.940098 C65.0065385,386.337408 74.3716385,400.161369 83.4248538,413.508557 C90.4343077,423.838631 97.2798692,433.924205 102.482838,444.128362 C108.225185,445.46577 114.149769,446.325183 120.197885,446.693154 C113.949185,437.777506 108.5175,427.639364 103.849015,416.030562 C85.7425846,371.066015 88.3746462,315.48044 110.824223,283.309291 C122.415323,266.718826 136.275231,255.435208 154.124815,245.707824 C169.503785,237.326406 179.0976,234.819071 188.862646,228.998778 C199.4973,222.666259 205.178492,212.079462 198.188608,188.326406 C196.138731,181.387531 195.770585,175.905868 196.196215,171.651589 C193.774523,176.336186 191.882423,181.798289 191.003031,188.135697 L191.065408,188.08313 C189.970754,194.797066 189.493754,202.179707 186.617077,209.705379 C177.223846,234.299511 131.741285,247.952323 125.740869,249.766504 C108.483254,254.986553 94.6575923,262.922983 83.8884,272.511002 C52.7231769,300.213936 47.1716308,341.764059 59.2446231,371.940098" id="Fill-11" fill="#81112B"></path>
                <path d="M249.003785,149.707824 C249.462438,151.227384 249.825692,152.726161 250.036062,154.191932 C251.22,162.797066 248.620962,169.726161 238.063362,171.42176 C227.217115,173.169927 223.519754,163.723716 222.669715,156.030562 C222.582877,153.361858 222.7749,151.222494 223.018292,149.669927 C221.178785,149.702934 219.382085,149.742054 217.567038,149.779951 C214.088608,151.776284 209.559554,154.865526 205.201731,159.301956 C203.038108,163.948655 200.434177,170.389976 204.4422,185.46577 C211.532377,212.055012 208.522385,228.124694 187.143,237.316626 C159.919754,249.030562 142.4958,255.898533 119.142369,285.271394 C108.0246,299.224939 101.952023,322.385086 100.9491,345.684597 C99.9889846,368.305623 104.6379,392.459658 112.611138,412.262836 C117.933969,425.50978 124.159431,437.013447 131.493,446.812958 C138.783762,446.535452 146.183377,445.590465 153.565869,443.96577 C145.448308,434.468215 140.771262,422.9022 139.939569,409.937653 C137.154623,366.800733 160.388192,348.660147 196.172977,319.992665 L212.168377,306.574572 C276.016662,252.359413 257.407546,197.227384 264.415777,150.147922 C259.370585,149.947433 254.229992,149.803178 249.003785,149.707824" id="Fill-12" fill="#81112B"></path>
                <path d="M274.588108,150.611247 C272.633631,160.018337 271.754238,169.831296 271.134138,179.988998 C268.601146,220.98533 269.834008,267.4022 217.900938,313.531785 L202.201523,326.229829 C167.434338,354.084352 147.564231,371.481663 148.931631,409.364303 C149.385392,421.856968 154.644623,432.810513 163.474015,441.397311 C173.1828,438.479218 182.794962,434.391198 192.035308,429.152812 C237.198646,403.528117 265.610723,365.229829 276.470423,316.081907 C283.350231,285.023227 283.202238,259.732274 283.101946,239.427873 C283.034677,229.161369 284.377615,209.008557 284.377615,209.008557 C285.811062,196.301956 287.884177,178.47066 302.633262,155.113692 C303.115154,154.359413 303.616615,153.585575 304.109515,152.826406 C294.7065,151.899756 284.8644,151.150367 274.588108,150.611247" id="Fill-13" fill="#81112B"></path>
                <path d="M289.781169,282.430318 C289.794623,282.396088 289.794623,282.330073 289.794623,282.295844 C289.794623,282.348411 289.771385,282.443765 289.771385,282.496333 C288.3624,289.860636 287.989362,298.127139 287.095292,306.364303 C286.670885,309.520782 286.225685,312.567237 285.781708,315.537897 C285.623931,316.377751 285.466154,317.209046 285.275354,318.030562 C273.871385,369.766504 244.354869,410.046455 196.875023,436.988998 C188.714654,441.622249 180.453992,445.408313 172.135846,448.364303 C186.048346,457.600244 202.278577,460.43154 213.429369,458.760391 C256.079285,452.366748 276.856915,424.555012 286.847008,394.827628 C297.114738,364.303178 296.0103,331.735941 295.523515,318.254279 C293.904162,273.204156 328.761854,256.600244 328.761854,256.600244 C301.653577,255.139364 292.7667,266.933985 289.781169,282.430318" id="Fill-14" fill="#81112B"></path>
                <path d="M261.310385,448.579462 C243.896215,463.139364 225.091408,466.333741 216.554331,467.633252 C199.765154,470.211491 179.895046,466.228606 162.318208,452.366748 C162.012438,452.122249 161.749477,451.893643 161.468169,451.655257 C153.932792,453.669927 146.398638,455.017115 138.874269,455.636919 C156.087854,474.103912 178.734346,484.590465 209.1009,486.639364 C209.234215,486.657702 209.368754,486.672372 209.502069,486.672372 C209.506962,486.682152 209.526531,486.682152 209.539985,486.682152 C230.208762,478.56846 248.229577,465.155257 261.874223,448.08802 C261.678531,448.254279 261.502408,448.41687 261.310385,448.579462" id="Fill-15" fill="#81112B"></path>
                <path d="M102.665077,479.585575 C103.018546,470.09291 100.342454,460.756724 95.9565,451.415648 C85.5407769,448.41687 75.3268615,443.942543 65.4847615,437.958435 C59.9478923,434.606357 54.9650769,429.468215 50.5497692,424.673594 C50.5350923,424.655257 50.5167462,424.640587 50.5020692,424.630807 C61.8399923,447.882641 80.1335538,467.084352 102.665077,479.600244 L102.665077,479.585575" id="Fill-16" fill="#81112B"></path>
                <path d="M189.6075,492.531785 C172.618962,488.596577 158.065569,482.579462 145.305208,472.909535 C138.783762,467.953545 132.854285,462.370416 127.431162,456.037897 C120.556246,455.952323 113.720469,455.303178 106.945846,454.033007 C110.710477,463.727384 112.597685,473.602689 111.392954,483.984108 L111.392954,483.998778 C127.297846,491.261614 144.979869,495.354523 163.608554,495.354523 C172.604285,495.354523 181.356623,494.393643 189.784846,492.589242 C189.727362,492.569682 189.664985,492.541565 189.6075,492.531785" id="Fill-17" fill="#81112B"></path>
                <path d="M335.699146,183.832518 C332.779662,193.627139 323.123469,192.462103 320.338523,187.185819 C315.899977,178.833741 317.591492,172.371638 322.1976,167.964548 C326.812269,163.556235 334.380669,161.202934 341.719131,157.893643 C341.752154,157.874083 341.775392,157.864303 341.819423,157.845966 C333.338608,156.388753 324.318415,155.085575 314.763738,153.973105 C314.648769,154.121027 314.505669,154.259169 314.371131,154.41198 C313.535769,155.386308 312.679615,156.341076 311.867492,157.343521 C296.703785,180.127139 294.797008,197.026895 293.335431,210.020782 L292.857208,214.023227 C292.021846,220.837408 292.054869,229.422983 292.107462,239.380196 C292.122138,240.735941 292.131923,242.150367 292.131923,243.586797 C292.031631,247.06357 291.897092,250.482885 291.744208,253.830073 C291.821262,253.849633 291.878746,253.867971 291.935008,253.882641 C292.064654,252.492665 292.122138,251.958435 292.107462,252.679707 C296.412692,239.017115 304.280746,230.712714 315.388731,226.205379 C327.404238,221.328851 339.268085,216.839853 339.836815,199.381418 C340.080208,192.094132 340.601238,184.806846 342.278077,181.081907 C345.306415,174.339853 350.729538,172.54401 350.729538,172.54401 C344.910138,171.98533 338.5269,174.430318 335.699146,183.832518" id="Fill-18" fill="#81112B"></path>
                <path d="M244.866115,112.364303 C117.332215,111.094132 10.9294154,144.011002 7.22593846,185.848411 C5.75457692,202.51467 20.8143231,218.096577 47.5067538,230.870416 C64.0036154,238.778729 84.9634846,245.5978 109.199977,250.974328 C114.059262,248.816626 119.137477,246.896088 124.470092,245.277506 C128.693377,244.007335 136.500277,241.452323 145.070377,237.727384 C109.362646,232.513447 80.4674538,224.51956 62.6851385,214.897311 C49.5370615,207.795844 42.4848,199.811736 43.2357692,191.430318 C45.7100538,163.347188 135.004454,141.418093 242.678031,142.477995 C350.328369,143.537897 435.603738,167.172372 433.109885,195.265281 C432.440862,202.925428 425.317662,210.116137 413.134592,216.515892 C390.655662,228.330073 350.925231,237.413203 302.680962,241.634474 C301.007792,243.92176 299.556,246.447433 298.332923,249.322738 C320.271254,241.003667 345.564485,253.305623 345.564485,253.305623 C345.564485,253.305623 347.260892,253.959658 348.431377,254.751834 C380.464985,249.055012 407.970762,240.93154 428.585723,231.108802 C452.9751,219.50489 467.757208,205.531785 469.095254,190.389976 C472.797508,148.552567 372.4098,113.616137 244.866115,112.364303" id="Fill-19" fill="#FFFFFF"></path>
            </g>
        </g>
    </g>
</svg>