<?xml version="1.0" encoding="UTF-8" standalone="no"?>
<svg width="500px" height="500px" viewBox="0 0 500 500" version="1.1" xmlns="http://www.w3.org/2000/svg" xmlns:xlink="http://www.w3.org/1999/xlink">
    <!-- Generator: Sketch 39.1 (31720) - http://www.bohemiancoding.com/sketch -->
    <title>CHA</title>
    <desc>Created with Sketch.</desc>
    <defs></defs>
    <g id="NBA" stroke="none" stroke-width="1" fill="none" fill-rule="evenodd">
        <g id="CHA">
            <g id="Page-1" transform="translate(9.000000, 0.000000)">
                <g id="Group-3" fill="#828382">
                    <path d="M426.945504,243.73776 C426.483353,243.441753 425.950837,243.119705 425.408765,242.804601 L286.19444,126.966927 L321.476895,180.124045 L376.245272,232.968663 C370.801098,234.132726 365.799963,236.205642 361.260111,239.171788 C345.612127,222.400955 327.554355,213.098003 307.50638,211.501649 C300.807796,210.940017 293.545422,213.679601 286.525416,219.334983 C177.442125,121.432205 26.3439146,10.0259549 24.8080441,8.90182292 L12.71567,-8.68055554e-05 L15.3678264,14.7733507 C15.4268984,15.0849826 20.4384577,42.9044271 29.4182617,77.8705729 C18.5707419,71.8740451 12.3438642,68.5172743 12.3438642,68.5172743 L0.000434352518,61.8480035 L3.7167545,75.371441 C3.91742536,76.0736979 23.4719757,146.422656 52.8698228,207.216059 C66.6101304,238.021615 105.61933,271.040712 166.082069,280.38967 C193.852832,284.785503 225.339915,287.700434 259.759746,289.071094 C260.451235,294.600608 261.768192,299.949566 263.715828,305.078038 C248.832305,307.73776 234.920862,314.668316 223.852692,325.034635 C194.635535,352.384462 191.151159,398.279427 215.717269,429.281163 C216.220249,429.98342 266.930037,499.999913 364.604625,499.999913 C375.291434,499.999913 386.299665,499.157031 397.327006,497.491233 L417.434053,494.455642 L398.89415,486.120573 C384.681267,479.732552 347.660533,460.021615 335.999906,441.22908 C336.031179,441.203906 336.071139,441.163108 336.100675,441.138802 C349.679404,428.417448 357.48385,410.433073 358.066751,390.501649 C358.729573,367.829774 349.840114,344.500781 334.27292,328.111892 C334.142614,327.966059 333.99146,327.825434 333.861154,327.680469 C342.93999,326.38533 351.508028,324.127517 359.452335,320.935677 C370.430161,334.153559 385.033093,345.268142 397.668407,349.839323 C399.667298,350.567622 402.077085,351.275087 404.820456,352.062413 C421.511754,356.894878 449.453652,364.985156 466.316085,407.637066 L473.186674,425.011198 L477.696121,406.88533 C477.976713,405.761198 504.744121,294.058941 426.945504,243.73776" id="Fill-1"></path>
                </g>
                <path d="M423.681172,248.755903 C423.159949,248.425174 422.546643,248.063194 421.933337,247.696875 L313.794328,157.718576 L326.468735,176.811458 L384.662416,232.757639 L395.931258,238.524132 C384.200265,236.728125 371.123648,238.031944 360.436839,247.250694 C347.782413,232.347049 330.264976,219.319271 307.02451,217.467708 C300.565688,216.946875 293.22513,220.744618 286.515253,227.379167 C176.125429,127.689931 21.2622507,13.7194444 21.2622507,13.7194444 C21.2622507,13.7194444 27.5099773,48.6300347 38.8092237,89.9286458 C20.5394881,79.7420139 9.50259065,73.7810764 9.50259065,73.7810764 C9.50259065,73.7810764 28.7548317,143.597917 58.3342381,204.777604 C72.0033119,235.438194 112.890652,265.882639 167.026612,274.478125 C201.727035,279.973785 237.542875,282.327083 265.272808,283.294965 C265.705423,292.236806 267.91454,301.320139 272.494353,310.005903 C256.414623,311.124826 240.585949,317.558854 227.951503,329.400868 C200.531697,355.057986 197.810044,397.034549 220.589227,425.813194 C220.589227,425.813194 279.897458,509.183854 396.422945,491.574479 C396.422945,491.574479 339.746891,466.123958 328.447645,439.718576 C329.642983,438.755035 330.867857,437.826215 332.003254,436.772396 C360.998891,409.61441 357.18267,360.924306 329.933999,332.230729 C326.599909,328.714236 322.98349,325.628299 319.156844,322.937326 C332.304695,322.531944 347.108297,320.143056 361.300332,313.634375 C372.238197,328.101389 387.374513,339.74809 399.717943,344.215104 C414.059395,349.433854 451.221727,353.171701 471.890826,405.439931 C471.890826,405.439931 498.78854,297.345312 423.681172,248.755903" id="Fill-4" fill="#1C1060"></path>
                <path d="M353.265939,255.269531 C348.916333,249.548177 337.828182,236.782552 322.190623,231.583767 C322.190623,231.583767 339.716747,251.359809 347.158943,270.730469 C347.942515,265.400608 349.881465,260.197483 353.265939,255.269531" id="Fill-6" fill="#008CA8"></path>
                <path d="M54.5777838,79.5409722 C165.368949,159.629514 262.430232,230.153819 305.729097,261.642535 C270.656,229.295313 167.438205,136.982813 46.8037424,55.6607639 C54.356264,81.7440972 54.5777838,79.5409722 54.5777838,79.5409722" id="Fill-8" fill="#008CA8"></path>
                <path d="M96.831423,143.296441 L308.319401,272.59158 L329.77381,279.125434 C329.77381,279.125434 204.720245,188.077691 54.5776101,79.5412326 C54.5776101,79.5412326 62.5723025,99.8702257 73.1279374,128.542969 L38.3771299,108.726997 L47.0841604,131.859809 C52.4284338,149.176649 61.337004,174.864149 73.5501281,198.84592 C102.616999,242.242622 158.307941,250.471788 158.307941,250.471788 L240.686371,262.620226 L247.897491,264.286892 L96.831423,143.296441 Z" id="Fill-10" fill="#FEFEFE"></path>
                <path d="M302.093392,407.54809 C302.394833,403.066319 300.466308,398.259028 295.684955,393.6375 C281.433849,379.827604 267.623177,367.583681 262.088657,355.439583 C254.807171,361.19566 248.641103,368.968229 244.543421,379.060243 C242.745202,383.470833 241.670614,387.655729 241.037328,391.660937 C252.879515,400.768576 271.440267,407.753819 300.627018,407.592361 C301.00838,407.592361 301.530472,407.572396 302.093392,407.54809" id="Fill-12" fill="#008CA8"></path>
                <path d="M274.955221,426.621181 C286.99721,425.688021 296.076915,420.448438 300.234537,413.529167 C286.002543,414.025694 261.366068,413.383333 240.445045,401.115104 C240.564926,404.507465 241.007097,411.882465 245.356703,420.760069 C251.061489,423.865972 261.125437,427.71059 274.955221,426.621181" id="Fill-14" fill="#008CA8"></path>
                <path d="M300.496191,460.994705 C308.119078,451.817622 318.393253,451.029427 325.736416,451.992969 C322.060056,447.270747 319.307999,442.223003 318.152621,436.898351 C320.422547,435.402691 322.622977,433.782031 324.650535,431.880122 C346.11363,411.768142 345.702733,375.426997 329.251197,350.97908 C324.882479,348.178733 319.900456,346.076302 314.527515,344.701302 C346.244805,393.17526 318.865828,429.622309 318.865828,429.622309 L318.172601,429.526823 C334.503387,388.820226 319.067368,360.297656 301.901756,342.88967 C289.910152,342.438281 278.350294,344.942622 267.562715,351.872309 C275.457506,372.360156 313.543272,389.473003 310.127524,410.643142 C308.530844,420.544184 297.733709,439.191753 252.748688,431.844531 C262.419981,442.046788 279.244191,448.254253 308.430943,440.094531 C308.430943,440.094531 300.947918,447.45651 289.026679,451.79158 C292.481519,454.867101 296.308164,457.964323 300.496191,460.994705" id="Fill-16" fill="#008CA8"></path>
                <path d="M340.037733,466.103385 C339.214201,465.847309 338.269919,465.511372 337.124965,465.034809 C325.344456,460.101649 320.97487,468.456684 319.428575,473.680642 C336.522084,481.348177 355.987158,486.471441 380.242271,489.005295 C380.242271,489.005295 357.423996,479.461892 340.037733,466.103385" id="Fill-18" fill="#FEFEFE"></path>
                <path d="M399.164491,249.468229 C399.18534,249.473438 399.194896,249.478646 399.214876,249.478646 C399.194896,249.478646 399.18534,249.473438 399.164491,249.468229" id="Fill-20" fill="#008CA8"></path>
                <path d="M424.013364,262.053385 C419.714143,258.891927 411.598701,253.628038 402.590229,250.531684 C361.6221,242.13151 358.277586,301.269531 414.289949,331.302517 C425.328584,335.532552 447.907096,337.670573 465.915352,372.331163 C465.915352,372.331163 475.527573,300.005642 424.013364,262.053385" id="Fill-22" fill="#008CA8"></path>
                <path d="M457.438615,350.471615 C457.438615,350.471615 456.795773,313.83967 435.573309,288.604427 C414.713095,263.79974 390.175653,257.732899 388.247128,266.921267 C388.247128,266.921267 399.878219,265.043663 414.531536,281.218142 C414.531536,281.218142 395.478228,315.029774 442.793985,326.732031 C442.793985,326.732031 446.079428,327.429948 448.680331,327.177344 C452.195111,334.504601 455.40932,342.503733 457.438615,350.471615" id="Fill-24" fill="#1C1060"></path>
                <path d="M434.880169,302.684549 C434.880169,302.684549 438.87795,308.094271 443.286628,317.102083 C443.286628,317.102083 425.921214,321.799132 434.880169,302.684549" id="Fill-26" fill="#FEFEFE"></path>
            </g>
        </g>
    </g>
</svg>