<?xml version="1.0" encoding="UTF-8" standalone="no"?>
<svg width="500px" height="500px" viewBox="0 0 500 500" version="1.1" xmlns="http://www.w3.org/2000/svg" xmlns:xlink="http://www.w3.org/1999/xlink">
    <!-- Generator: Sketch 39.1 (31720) - http://www.bohemiancoding.com/sketch -->
    <title>UTA</title>
    <desc>Created with Sketch.</desc>
    <defs>
        <polygon id="path-1" points="0.0564971751 331.943569 499.383239 331.943569 499.383239 0.522923513 0.0564971751 0.522923513"></polygon>
    </defs>
    <g id="NBA" stroke="none" stroke-width="1" fill="none" fill-rule="evenodd">
        <g id="UTA">
            <g id="UJazz_2nd_pms" transform="translate(0.000000, 84.000000)">
                <g id="Group-3">
                    <mask id="mask-2" fill="white">
                        <use xlink:href="#path-1"></use>
                    </mask>
                    <g id="Clip-2"></g>
                    <path d="M258.489642,0.522923513 C258.489642,0.522923513 178.04049,180.269416 178.555556,180.269416 C160.686441,153.884351 129.584746,136.906266 97.2448211,136.906266 C41.9849341,136.906266 0,179.156793 0,233.900113 C0,288.585122 42.2702448,332 97.5301318,332 C152.80791,332 193.445386,286.81132 195.259887,235.851671 C195.308851,234.403286 254.344633,103.476782 254.344633,103.476782 L453.756121,102.95762 L499.383239,0.801314448 L258.489642,0.522923513" id="Fill-1" fill="#ADACA8" mask="url(#mask-2)"></path>
                </g>
                <path d="M189.50565,234.069405 C189.50565,284.553156 148.54049,325.479445 97.9915254,325.479445 C47.4416196,325.479445 6.47645951,284.553156 6.47645951,234.069405 C6.47645951,183.588476 47.4416196,142.662187 97.9915254,142.662187 C148.54049,142.662187 189.50565,183.588476 189.50565,234.069405" id="Fill-4" fill="#FFFFFF"></path>
                <path d="M6.24576271,238.513314 C7.38135593,262.588487 17.8389831,284.195762 34.0150659,299.90698 C51.2956685,284.731853 62.5433145,262.939297 63.7570621,238.513314 L6.24576271,238.513314" id="Fill-5" fill="#111B2B"></path>
                <path d="M71.8060264,238.513314 C70.6101695,264.992431 58.5856874,288.684816 40.079096,305.299864 C54.846516,317.291365 73.4143126,324.809802 93.7363465,325.682595 L93.7363465,238.513314 L71.8060264,238.513314" id="Fill-6" fill="#ED9B2D"></path>
                <path d="M6.21563089,230.473836 L63.7749529,230.473836 C62.7617702,205.80238 51.4416196,183.734255 34.027307,168.419932 C17.6694915,184.271286 7.18079096,206.124034 6.21563089,230.473836" id="Fill-7" fill="#111B2B"></path>
                <path d="M40.079096,163.024227 C58.7617702,179.781292 70.7984934,203.735139 71.8248588,230.473836 L93.7485876,230.473836 L93.7485876,142.634912 C73.4143126,143.514289 54.8644068,151.04119 40.079096,163.024227" id="Fill-8" fill="#ED9B2D"></path>
                <path d="M189.281544,238.513314 L131.793785,238.513314 C132.983992,262.939297 144.26742,284.731853 161.512241,299.90698 C177.712806,284.195762 188.146893,262.588487 189.281544,238.513314" id="Fill-9" fill="#111B2B"></path>
                <path d="M123.721281,238.513314 L101.79661,238.513314 L101.79661,325.682595 C122.112994,324.809802 140.69209,317.291365 155.448211,305.299864 C136.953861,288.684816 124.929379,264.992431 123.721281,238.513314" id="Fill-10" fill="#2A4832"></path>
                <path d="M155.448211,163.024227 C140.680791,151.04119 122.112994,143.514289 101.79661,142.634912 L101.79661,230.473836 L123.702448,230.473836 C124.753296,203.735139 136.790019,179.781292 155.448211,163.024227" id="Fill-11" fill="#2A4832"></path>
                <path d="M456.76742,8.85301983 L261.919021,8.85301983 L180.516949,195.004385 C175.775895,185.03404 169.354049,176.016431 161.5,168.419932 C144.097928,183.734255 132.801318,205.787331 131.752354,230.473836 L189.329567,230.473836 C189.329567,230.458788 248.159134,95.8012805 248.159134,95.8012805 L420.086629,95.8012805 L458.096045,8.85301983 L456.76742,8.85301983" id="Fill-12" fill="#111B2B"></path>
                <polyline id="Fill-13" fill="#2A4832" points="448.942561 95.8012805 486.934087 8.85301983 470.745763 8.85301983 432.748588 95.8012805 448.942561 95.8012805"></polyline>
            </g>
        </g>
    </g>
</svg>