<?xml version="1.0" encoding="UTF-8" standalone="no"?>
<svg width="500px" height="500px" viewBox="0 0 500 500" version="1.1" xmlns="http://www.w3.org/2000/svg" xmlns:xlink="http://www.w3.org/1999/xlink">
    <!-- Generator: Sketch 39.1 (31720) - http://www.bohemiancoding.com/sketch -->
    <title>SAC</title>
    <desc>Created with Sketch.</desc>
    <defs></defs>
    <g id="Page-1" stroke="none" stroke-width="1" fill="none" fill-rule="evenodd">
        <g id="SAC">
            <g id="Page-1" transform="translate(26.000000, 0.000000)">
                <path d="M443.393914,184.666667 C439.160486,179.423077 415.248029,157.076923 376.326143,140.461538 C376.813629,139.474359 382.855886,126.192308 382.855886,126.192308 L370.322371,120.410256 C369.976,120.24359 340.149571,107.24359 305.114743,97.1794872 L305.114743,0.41025641 L270.054257,35.4871795 L245.795429,10.4871795 L221.498114,34.8076923 L197.855057,10.4871795 L172.839343,35.4871795 L148.567686,10.4871795 L124.270371,34.8076923 L88.7480571,0 L88.7480571,124.75641 C35.2272571,161.089744 0,222.423077 0,291.846154 C0,403.128205 90.5312286,493.666667 201.831914,493.666667 C202.075657,493.666667 202.3194,493.653846 202.575971,493.653846 C202.8582,493.653846 203.140429,493.666667 203.422657,493.666667 C314.697686,493.666667 405.228914,403.128205 405.228914,291.858974 C405.228914,286.064103 404.869714,280.358974 404.382229,274.692308 C413.7984,272.294872 422.021514,266.371795 428.127914,257.423077 C444.830714,232.820513 446.3958,195.461538 446.459943,193.884615 L446.639543,188.705128 L443.393914,184.666667 Z" id="Fill-1" fill="#FEFEFE"></path>
                <path d="M315.312174,157.205128 C288.346517,140.820513 262.971603,140.820513 262.971603,140.820513 C278.71226,145.320513 287.384374,153.025641 287.384374,153.025641 C281.919403,154.307692 271.964431,160.089744 271.964431,160.089744 C309.205774,167.794872 321.418574,185.448718 321.418574,185.448718 C319.802174,173.576923 311.142889,162.987179 311.142889,162.987179 C312.733631,161.705128 315.312174,157.205128 315.312174,157.205128" id="Fill-3" fill="#592C81"></path>
                <path d="M404.060231,212.674359 C413.694489,219.738462 405.753603,234.058974 402.110289,240.251282 C398.479803,246.45641 389.923146,241.95641 389.923146,241.95641 C386.92126,247.328205 375.567974,254.597436 375.567974,254.597436 C377.287003,248.815385 376.850831,236.828205 376.850831,236.828205 C342.82946,217.994872 326.344746,241.95641 319.48146,249.879487 C314.888831,255.2 320.135717,269.789744 327.20426,280.494872 C334.259974,291.2 356.953717,272.789744 356.953717,272.789744 C356.953717,282.648718 349.243746,293.558974 349.243746,293.558974 C349.243746,293.558974 358.313546,300.44359 352.245631,319.238462 C345.010317,341.635897 323.304374,352.95641 323.304374,352.95641 C333.13106,328.123077 308.141003,307.264103 308.141003,307.264103 C247.692774,259.853846 285.44726,238.328205 285.44726,238.328205 C285.44726,238.328205 232.785974,228.482051 211.375089,194.238462 C189.977031,159.982051 210.10506,144.148718 210.10506,144.148718 C201.75366,125.94359 182.921317,129.584615 182.921317,129.584615 C191.914146,140.930769 191.914146,156.353846 191.914146,156.353846 C151.01666,137.289744 171.991374,111.815385 190.823717,112.238462 C209.668889,112.687179 224.665489,127.661538 224.665489,127.661538 C224.665489,127.661538 240.495946,115.238462 273.042031,122.097436 C314.36286,130.802564 340.687089,142.866667 340.687089,142.866667 C338.980889,148.2 333.40046,159.341026 333.40046,159.341026 C392.48886,176.033333 409.396917,197.007692 409.396917,197.007692 C401.686946,196.379487 385.227889,192.135897 385.227889,192.135897 C382.649346,205.828205 394.425974,205.610256 404.060231,212.674359 M358.493146,147.866667 C361.661803,142.430769 365.933717,133.007692 365.933717,133.007692 C364.933089,132.546154 330.129174,117.520513 292.669746,107.751282 L292.669746,33.9179487 L252.952489,73.6358974 L242.035374,73.6358974 L266.024803,49.6358974 L245.794146,30.1230769 L221.496831,54.4435897 L197.853774,30.1230769 L155.737574,73.6358974 L144.807631,73.6358974 L168.809889,49.6358974 L148.566403,30.1230769 L124.269089,54.4435897 L104.05126,33.4948718 L104.05126,135.046154 L104.012774,135.084615 L104.115403,135.033333 C104.115403,135.033333 44.87306,192.7 86.1682314,249.494872 C124.461517,302.135897 256.057003,334.815385 256.057003,415.366667 C256.057003,424.417949 253.760689,433.046154 250.220003,441.033333 C250.220003,441.033333 250.104546,441.276923 249.61706,442.341026 C242.830746,456.94359 231.887974,469.212821 222.85666,477.417949 C225.28126,477.161538 227.70586,476.892308 230.13046,476.533333 C236.32666,475.623077 242.394574,474.417949 248.347031,472.930769 C280.033603,456.238462 301.457317,425.058974 295.928203,387.45641 C287.96166,333.123077 246.076374,307.828205 186.231089,272.392308 C180.573689,269.046154 175.557717,265.597436 171.106203,262.110256 C137.161803,238.879487 104.461774,204.430769 142.793546,156.969231 C142.793546,156.969231 120.908003,200.866667 171.555203,243.058974 C217.930489,278.776923 296.813374,303.2 309.475174,382.674359 C314.747717,415.661538 307.62786,438.148718 296.31306,453.482051 C359.314174,416.969231 397.389374,345.174359 387.575517,268.828205 C390.231031,267.046154 393.412517,264.738462 396.517031,262.033333 C405.663803,261.917949 413.001746,257.071795 418.069031,249.610256 C432.732089,228.058974 434.027774,193.379487 434.027774,193.379487 C432.154803,191.071795 405.804917,164.45641 358.493146,147.866667" id="Fill-5" fill="#592C81"></path>
                <path d="M232.216386,441.007692 C193.089243,436.866667 100.685043,420.2 50.1661286,353.584615 C30.9489286,328.251282 20.0189857,298.507692 17.3378143,264.674359 C14.6566429,282.44359 14.4642143,300.879487 17.2095286,319.571795 C30.5127571,410.238462 100.8005,479.315385 188.393986,482.648718 C200.593957,476.546154 221.260786,463.482051 232.216386,441.007692" id="Fill-7" fill="#627179"></path>
                <path d="M237.832734,424.726923 C238.538306,421.483333 239.051449,418.111538 239.30802,414.573077 C242.489506,371.508974 175.99902,337.252564 116.487277,298.932051 C58.3866771,261.534615 43.54402,219.457692 61.1704771,173.688462 C49.4579914,186.932051 34.02522,209.714103 33.5377343,238.316667 C30.0868486,282.047436 38.69482,314.842308 62.2480771,343.585897 C112.895277,405.419231 206.005049,421.098718 237.832734,424.726923" id="Fill-9" fill="#627179"></path>
            </g>
        </g>
    </g>
</svg>