<?xml version="1.0" encoding="UTF-8" standalone="no"?>
<svg width="500px" height="500px" viewBox="0 0 500 500" version="1.1" xmlns="http://www.w3.org/2000/svg" xmlns:xlink="http://www.w3.org/1999/xlink">
    <!-- Generator: Sketch 39.1 (31720) - http://www.bohemiancoding.com/sketch -->
    <title>NY</title>
    <desc>Created with Sketch.</desc>
    <defs>
        <polygon id="path-1" points="0.0519031142 373.948056 499.207612 373.948056 499.207612 0 0.0519031142 0"></polygon>
    </defs>
    <g id="NBA" stroke="none" stroke-width="1" fill="none" fill-rule="evenodd">
        <g id="NY">
            <g id="NYKnicks_P_pms" transform="translate(0.000000, 63.000000)">
                <g id="Group-3">
                    <mask id="mask-2" fill="white">
                        <use xlink:href="#path-1"></use>
                    </mask>
                    <g id="Clip-2"></g>
                    <path d="M250.200692,374 C185.008651,374 131.931661,320.896329 131.92128,255.631597 C131.92128,244.255764 133.583045,232.931009 136.761246,222.079815 C105.884083,232.608954 67.2794118,257.564796 67.2794118,257.564796 L0,190.117532 L73.6046713,28.2828843 L113.688581,12.0000324 L118.004325,0 L156.375433,17.1295463 L160.341696,25.3540833 C189.646194,19.2090556 189.402249,16.225713 248.518166,15.2508889 C301.205882,14.3964028 336.544118,24.7800972 336.564879,24.7878889 L339.675606,17.9823009 L360.198097,4.53475 L425.504325,27.5608565 L450.533737,81.7138056 L446.920415,89.1349352 L456.50692,95.5717176 L499.207612,189.589431 L431.044983,259.841694 C431.044983,259.841694 385.975779,229.750278 363.895329,223.024338 C366.948097,233.586375 368.469723,244.488648 368.469723,255.631597 C368.469723,320.896329 315.429931,374 250.200692,374" id="Fill-1" fill="#FFFFFF" mask="url(#mask-2)"></path>
                </g>
                <path d="M448.431661,102.93138 L448.347751,102.74438 L448.17128,102.626639 L433.267301,92.6013611 L438.808824,82.0046944 L438.964533,81.6826389 L438.829585,81.345 L418.327855,36.3818889 L418.198097,36.0987917 L417.902249,35.9975 L362.649654,16.3010324 L362.275087,16.1529907 L361.942907,16.4023241 L347.288062,27.6076065 L347.132353,27.7236157 L347.049308,27.9166759 L344.546713,34.0668981 C344.546713,34.0668981 321.629758,28.2958704 287.969723,24.941125 C284.562284,24.5956944 275.402249,23.8468287 260.794983,22.6876019 L259.366782,22.5811157 L257.886678,22.4728981 L257.538927,22.4495231 L257.314879,22.6832731 L246.394464,33.5708287 L246.410035,22.4001759 C246.410035,22.4001759 215.429066,24.1515694 195.145329,26.9132824 C174.861592,29.6654722 154.904844,34.6936944 154.904844,34.6936944 L151.124567,26.580838 L124.08045,14.1938194 L120.75692,23.2105093 L119.785467,20.8695463 L81.5294118,36.2416389 L12.5614187,187.858815 L69.0605536,244.488648 C69.0605536,244.488648 102.638408,224.282259 136.294118,210.874532 C136.294118,210.874532 141.684256,208.801083 147.318339,206.925023 C162.40917,201.924505 201.589965,190.241333 239.576125,190.241333 L240.012111,190.241333 C241.538927,190.241333 243.029412,190.275097 244.551038,190.303667 C270.359862,191.029157 300.463668,196.707551 321.256055,200.968727 C351.270761,207.137995 363.355536,211.513449 363.355536,211.513449 C394.788062,223.232981 429.492215,246.355185 429.492215,246.355185 L486.692907,187.404301 L448.431661,102.93138" id="Fill-4" fill="#005D9C"></path>
                <path d="M442.272491,108.18556 L387.320934,71.4469861 L377.75,44.5856481 L394.772491,50.6458333 L401.658304,67.4429352 L427.534602,75.7427917 L412.429066,42.3407824 L363.573529,24.9800833 L354.630623,31.9233241 L370.858997,84.7335093 L423.146194,121.712759 L436.549308,155.143338 L414.786332,145.316315 L407.334775,124.506505 L380.673875,116.658565 L394.928201,163.663958 C399.315744,165.282894 403.67301,166.958968 408.00346,168.718153 C419.875433,173.523014 431.497405,178.836931 442.874567,184.66856 C450.731834,188.685597 458.485294,192.970148 466.102076,197.476329 L477.449827,185.800949 L442.272491,108.18556" id="Fill-5" fill="#E87C31"></path>
                <path d="M71.5017301,133.076472 L89.816609,116.711375 L94.1842561,121.809722 L76.1072664,173.868444 C85.9948097,169.486931 96.0588235,165.516644 106.288927,161.886593 L119.395329,118.96663 L108.09083,100.264898 L131.526817,77.9798657 L145.199827,32.3232963 L128.384948,24.7489306 L113.257785,67.8013519 L89.017301,88.6726296 L111.128893,32.8816991 L87.3814879,42.3537685 L21.9394464,186.019116 L32.1695502,196.311907 C38.2352941,192.767565 44.4100346,189.361741 50.6574394,186.09963 L71.5017301,133.076472" id="Fill-6" fill="#E87C31"></path>
                <path d="M237.348616,30.6316389 L217.267301,31.6843796 L207.82699,139.458713 C216.363322,138.650111 224.948097,138.107292 233.583045,137.808611 L237.348616,30.6316389" id="Fill-7" fill="#E87C31"></path>
                <path d="M296.870242,117.087972 L273.564014,115.692398 L269.814879,49.691787 L289.573529,50.6588194 L287.252595,32.471338 L260.726644,30.5693056 L248.820069,42.4342824 L248.804498,124.979199 L261.272491,137.751472 C274.130623,138.14625 286.857266,139.115014 299.455882,140.63612 L296.870242,117.087972" id="Fill-8" fill="#E87C31"></path>
                <path d="M164.82872,73.167213 L173.230969,114.138394 L167.820069,145.175199 C175.931661,143.616866 184.157439,142.27237 192.455882,141.17894 L192.487024,141.168551 L205.468858,33.0981343 L186.831315,35.8130972 L180.730104,71.2028472 L173.786332,37.8995324 L151.878028,43.3909259 L121.41609,156.847981 C130.176471,154.112241 139.07699,151.635356 148.070934,149.452824 L164.82872,73.167213" id="Fill-9" fill="#E87C31"></path>
                <path d="M326.791522,111.134273 L333.334775,102.255236 L342.910035,110.157718 L351.733564,150.333282 C360.987024,152.662125 370.137543,155.29138 379.131488,158.214986 L362.700692,99.2857454 L345.74654,85.3932037 L355.410035,72.5075185 L347.376298,42.5979074 L326.9109,38.0380509 L334.944637,68.1727546 L322.216263,85.2226528 L312.786332,35.6624583 L293.83737,33.2669537 C293.83737,33.2669537 303.351211,105.916454 307.82699,141.729551 C316.426471,142.938125 324.901384,144.427199 333.355536,146.150023 L326.791522,111.134273" id="Fill-10" fill="#E87C31"></path>
                <path d="M210.766436,159.930019 C210.766436,159.930019 218.66436,155.306963 234.476644,153.545181 L233.942042,141.088037 C225.285467,141.378926 216.685986,141.927806 208.148789,142.732944 C208.885813,147.594079 210.002595,154.860241 210.766436,159.930019" id="Fill-11" fill="#B6B7B6"></path>
                <path d="M260.966263,152.789389 C267.394464,153.545181 274.259516,155.63681 280.304498,157.341454 C285.75692,158.664306 291.641003,161.01306 296.454152,163.144514 L299.108131,143.984806 C286.400519,142.405694 274.4109,141.464634 261.411765,141.062065 C261.205017,144.788213 261.205017,150.021616 260.966263,152.789389" id="Fill-12" fill="#B6B7B6"></path>
                <path d="M177.852941,183.165634 C185.205882,177.695884 189.641003,172.067704 197.367647,167.348551 C195.893599,160.384532 193.930796,151.378231 192.518166,144.489532 C184.105536,145.61413 175.74481,146.994986 167.487889,148.610458 C170.655709,158.917102 174.685121,172.751639 177.852941,183.165634" id="Fill-13" fill="#B6B7B6"></path>
                <path d="M302.862457,167.018704 C310.029412,171.16387 315.616782,175.863977 322.034602,182.090384 L323.301903,183.072134 L333.41263,149.60606 C324.688581,147.797528 316.218858,146.243523 307.354671,144.993394 L302.862457,167.018704" id="Fill-14" fill="#B6B7B6"></path>
                <path d="M334.716263,196.072963 L358.816609,201.742699 L379.094291,161.650245 C369.74308,158.599375 360.732699,156.099981 351.147059,153.688028 L334.716263,196.072963" id="Fill-15" fill="#B6B7B6"></path>
                <path d="M140.983564,201.742699 C147.276817,199.419917 156.037197,196.265157 164.268166,194.077431 L148.601211,152.690694 C139.170415,154.977116 130.913495,157.396861 121.717128,160.314407 C127.527682,174.172319 134.070934,188.441458 140.983564,201.742699" id="Fill-16" fill="#B6B7B6"></path>
                <path d="M104.673875,216.642963 C106.060554,215.452569 119.749135,209.549083 129.07526,205.589185 C121.981834,192.694843 113.423875,178.481111 106.288927,165.384185 C96.0847751,169.024625 86.8261246,172.798389 76.9437716,177.184231 L104.673875,216.642963" id="Fill-17" fill="#B6B7B6"></path>
                <path d="M70.5717993,234.749065 C74.9178201,232.125005 79.5242215,229.448134 84.6029412,226.512407 L52.6410035,188.786023 C46.5544983,191.94944 40.5717993,195.241852 34.6730104,198.6875 L70.5717993,234.749065" id="Fill-18" fill="#B6B7B6"></path>
                <path d="M371.570069,206.712051 C390.75346,214.164347 417.558824,229.210056 428.230104,236.381852 C433.143599,231.673088 459.855536,203.630014 463.511246,199.784394 C441.333045,186.752398 418.025952,175.67438 393.775087,166.753787 L371.570069,206.712051" id="Fill-19" fill="#B6B7B6"></path>
                <polyline id="Fill-20" fill="#B6B7B6" points="257.278547 152.159995 248.134083 151.840537 247.967993 129.568491 257.492215 139.458713 257.278547 152.159995"></polyline>
                <path d="M250.200692,147.737792 C190.685121,147.758569 142.42128,196.041796 142.42128,255.631597 C142.42128,315.190231 190.685121,363.491639 250.200692,363.491639 C309.74827,363.491639 357.99654,315.190231 357.99654,255.631597 C357.99654,196.041796 309.74827,147.758569 250.200692,147.737792" id="Fill-21" fill="#005D9C"></path>
                <path d="M256.852941,155.818616 C248.564879,158.718847 240.594291,162.915958 232.705882,166.579773 C227.320934,163.357486 224.24654,162.539361 220.601211,160.194935 C231.932526,156.06362 244.135813,155.44981 256.852941,155.818616" id="Fill-22" fill="#E87C31"></path>
                <path d="M334.051038,201.618898 C308.653114,176.004227 270.557958,177.859509 238.24654,168.811653 C238.24654,168.811653 257.25346,159.73263 267.077855,157.234968 C293.488754,161.743745 319.054498,177.553037 334.051038,201.618898" id="Fill-23" fill="#E87C31"></path>
                <path d="M191.287197,205.469713 C166.884948,242.939838 163.572664,289.090745 183.004325,329.53469 C157.911765,308.433991 142.961938,267.553713 154.214533,227.879412 C163.462803,214.964292 175.323529,203.557292 191.287197,205.469713" id="Fill-24" fill="#E87C31"></path>
                <path d="M217.407439,232.141454 C230.561419,271.264278 233.458478,314.58681 267.519896,353.991866 C240.967993,359.375042 214.67128,351.41369 193.706747,338.129764 C167.716263,300.191273 170.156574,243.605593 196.153114,206.835852 C208.792388,210.478889 215.683391,227.037046 217.407439,232.141454" id="Fill-25" fill="#E87C31"></path>
                <path d="M199.143599,202.683759 C203.096021,197.128301 207.561419,191.862866 212.557093,186.954981 C267.774221,202.559093 320.430796,259.872861 329.460208,316.166787 C326.838235,320.41844 320.519031,326.342704 316.266436,330.573579 C302.551038,342.932028 287.429931,349.324657 272.930796,352.774634 C247.136678,326.020648 238.652249,291.272412 229.538062,256.993407 C222.548443,230.706056 217.682526,210.874532 199.16955,202.839593 L199.143599,202.683759" id="Fill-26" fill="#E87C31"></path>
                <path d="M328.16782,202.455204 C301.49654,178.899264 264.33564,181.908579 233.157439,170.934449 C227.144464,174.638088 221.271626,178.992764 216.228374,183.511931 C271.465398,200.84406 321.557093,254.872343 333.495675,310.710889 C342.16263,298.20613 347.376298,283.664282 349.510381,268.234185 C350.850346,244.571759 350.612457,223.024338 328.16782,202.455204" id="Fill-27" fill="#E87C31"></path>
                <path d="M208.019031,185.226963 C202.679931,190.342625 198.686851,195.391625 194.527682,201.290782 L194.429066,201.238838 C179.784602,197.969801 168.261246,205.531181 159.012976,214.964292 C163.4109,203.79537 172.675606,190.54088 182.495675,181.885204 C191.531142,182.27219 198.115917,182.147523 208.019031,185.226963" id="Fill-28" fill="#E87C31"></path>
                <path d="M211.918685,181.799495 C217.137543,177.145273 222.211073,173.073694 228.483564,169.307722 L214.327855,162.271847 C204.903114,166.125259 194.813149,171.140495 187.906574,177.501093 C198.603806,178.748625 203.184256,179.416111 211.918685,181.799495" id="Fill-29" fill="#E87C31"></path>
            </g>
        </g>
    </g>
</svg>