<?xml version="1.0" encoding="UTF-8" standalone="no"?>
<svg width="500px" height="500px" viewBox="0 0 500 500" version="1.1" xmlns="http://www.w3.org/2000/svg" xmlns:xlink="http://www.w3.org/1999/xlink">
    <!-- Generator: Sketch 39.1 (31720) - http://www.bohemiancoding.com/sketch -->
    <title>LAL</title>
    <desc>Created with Sketch.</desc>
    <defs></defs>
    <g id="NBA" stroke="none" stroke-width="1" fill="none" fill-rule="evenodd">
        <g id="LAL">
            <g id="LALakers_2nd_pms" transform="translate(0.000000, 43.000000)">
                <path d="M496.729024,234.797679 C492.666412,227.832876 485.061085,223.703759 476.981899,224.093806 L441.62774,225.84005 C435.408058,226.147156 429.636409,229.10165 425.766933,233.961544 C423.63569,236.641436 421.464023,239.277615 419.275512,241.90819 C430.373024,210.311028 430.863726,177.097637 420.297341,146.265998 C412.135061,122.461928 397.874371,102.020332 378.961552,86.4644094 C381.430785,82.3969375 382.829905,80.1283888 382.829905,80.1283888 C385.777488,75.299877 388.939544,71.8017839 391.918568,70.0364854 C394.505704,68.513285 399.028701,67.6547335 404.608336,67.6547335 L438.803674,67.6547335 C446.312433,67.6547335 453.295679,63.763231 457.207824,57.3711692 L471.994026,33.3261222 C474.121901,29.8751038 475.187522,25.9701514 475.187522,22.0472658 C475.187522,18.4270028 474.274614,14.7966525 472.437567,11.5216034 C468.616376,4.70474911 461.401815,0.48484506 453.580893,0.48484506 L250.508669,0.48484506 C242.990927,0.48484506 236.016664,4.38083085 232.086552,10.777376 L217.321685,34.8224229 C213.229878,41.4778785 213.067059,49.8134499 216.883759,56.6303042 C219.472018,61.2503426 223.630075,64.6296283 228.46299,66.3590604 C192.697853,80.6013767 161.116601,107.344248 141.755749,143.661202 C121.539256,181.654909 117.621497,223.673497 130.750314,261.991122 C131.535214,264.259671 132.359414,266.48787 133.254357,268.694773 C111.958768,303.592763 96.6818631,328.601719 96.6818631,328.601719 C94.3484998,332.401314 91.6030363,335.230275 88.2950054,337.200684 C85.356405,338.960379 82.1629087,339.775218 78.246272,339.775218 L43.1604833,339.775218 C35.9447988,339.775218 29.1939903,343.374186 25.1897682,349.380684 L3.94246317,381.161661 C1.53498922,384.765112 0.320023356,388.946908 0.320023356,393.127583 C0.320023356,396.616709 1.16555875,400.11144 2.86785843,403.297944 C6.63178225,410.30758 13.9518954,414.690004 21.9221613,414.690004 L384.067328,414.690004 C391.458184,414.690004 398.335879,410.920671 402.296308,404.698974 L496.280992,257.210806 C500.618712,250.406281 500.795005,241.763603 496.729024,234.797679" id="Fill-4" fill="#49256C"></path>
                <path d="M263.589202,96.5641585 L282.181998,66.0923042 C286.480417,59.1050846 287.598814,54.0165416 285.573123,50.8423667 C283.511498,47.6816418 277.423194,46.096796 267.290244,46.096796 L235.735941,46.096796 L250.508669,22.0472658 L453.580893,22.0472658 L438.803674,46.096796 L404.608336,46.096796 C394.914436,46.096796 387.005929,47.8968401 380.90415,51.4823575 C374.815846,55.0813248 369.29797,60.8815913 364.376347,68.9122985 L347.498203,96.5641585 L263.589202,96.5641585 L263.589202,96.5641585 Z M485.921218,241.072055 C484.214427,238.138857 480.999596,236.395975 477.612963,236.567461 L442.24196,238.296893 C439.618891,238.436996 437.18896,239.679991 435.566385,241.728858 C408.621542,275.599052 376.307043,305.838896 346.892966,324.709096 C318.399659,342.988622 294.126168,352.261203 274.760825,352.261203 L217.962855,352.261203 C210.44399,352.261203 206.159046,351.788215 203.71564,351.324193 C204.571281,349.091511 206.312882,345.374857 209.953288,339.4513 C209.953288,339.4513 212.330444,335.567643 216.462675,328.785534 C218.637711,329.651932 220.848679,330.471254 223.107932,331.215482 C255.623428,342.0079 290.410528,339.389655 321.237199,326.37352 C335.001572,315.484711 369.518056,284.942244 386.19408,240.931952 C379.132231,241.1337 370.35124,245.945399 360.402443,255.148489 C358.340819,256.9037 309.478306,298.413434 278.756064,311.62235 C278.343963,311.824098 252.399614,323.531109 220.567957,322.051621 C222.01087,319.692286 223.586283,317.108785 225.270616,314.350436 C253.021694,314.595897 275.120149,304.665392 275.550216,304.451315 C305.279824,291.67952 354.796982,249.600408 355.183255,249.285456 C367.824739,237.587412 379.145706,232.192883 388.909226,233.182571 C390.812522,227.188402 392.356495,220.949893 393.483875,214.514119 L286.098635,214.636289 C287.695383,212.02701 289.292131,209.413247 290.888879,206.786035 L394.629222,206.663865 C395.528656,198.795677 395.738636,190.901711 395.264777,182.990932 C380.790738,184.128569 363.069305,177.649082 342.454186,163.65671 L342.348635,163.590581 L331.071461,154.917642 L330.887307,154.72486 C330.817688,154.663215 328.961552,152.825063 325.523266,150.03533 C326.917894,147.73764 328.308031,145.469092 329.663358,143.231926 C333.396964,146.217802 335.64611,148.38996 336.260331,149.003051 C336.620778,149.278774 346.708812,157.037121 346.936759,157.207486 C369.658417,172.614339 384.905004,175.836709 394.55848,175.145161 C391.317822,147.825065 379.882321,120.33012 360.341807,92.9696745 C367.710205,80.8905494 372.144493,73.6309694 372.144493,73.6309694 C376.237424,66.9587015 380.750314,62.1301898 385.540559,59.2967456 C390.18595,56.5608131 396.598769,55.182199 404.608336,55.182199 L438.803674,55.182199 C441.965729,55.182199 444.899838,53.5357079 446.558345,50.8423667 L461.340056,26.8018031 C462.230507,25.3436105 462.672925,23.7027235 462.672925,22.0472658 C462.672925,20.5240654 462.292266,18.9952608 461.524209,17.6166468 C459.910618,14.748457 456.874326,12.9753127 453.580893,12.9753127 L250.508669,12.9753127 C247.342122,12.9753127 244.403521,14.6128372 242.758489,17.3050576 L227.972287,41.3512253 C226.253144,44.1488031 226.186894,47.6637086 227.788133,50.5318984 C229.410708,53.4045714 232.441385,55.182199 235.735941,55.182199 L267.290244,55.182199 C272.572314,55.182199 275.501931,55.6495828 277.085205,56.0530796 C276.703423,57.1436418 275.957824,58.859624 274.431818,61.3422502 C274.431818,61.3422502 272.528521,64.459263 269.150871,69.9972566 C241.420005,73.4606041 214.725566,85.1239033 192.758489,103.184869 L343.45468,103.197198 L327.449021,129.418886 L243.534405,129.418886 L254.763295,111.035123 L183.915738,111.035123 C176.130749,118.521109 169.099218,126.888064 163.001931,136.038475 L323.399883,136.056408 L307.214562,162.579598 L223.301069,162.579598 L234.714112,143.884246 L158.125225,143.884246 C154.830668,149.575792 151.887576,155.521766 149.34311,161.71208 C148.325773,164.203672 147.405004,166.699748 146.531396,169.20367 L303.171038,169.212637 L285.138564,198.765415 L201.216089,198.765415 L214.46281,177.058408 L144.075638,177.058408 C141.404285,186.458763 139.763744,195.940937 139.149524,205.385004 L281.09055,205.398454 L202.198617,334.700125 C195.167086,346.149347 192.535034,353.457122 194.338394,356.595431 C196.10133,359.769606 203.987379,361.342122 217.962855,361.342122 L274.760825,361.342122 C295.985672,361.342122 321.667266,351.68734 351.81908,332.34079 C381.969772,313.002085 415.055695,282.1088 442.689993,247.367726 L478.060995,245.638294 L384.067328,393.127583 L21.9221613,393.127583 L43.1604833,361.342122 L78.246272,361.342122 C86.0323841,361.342122 93.0762666,359.47707 99.383534,355.7111 C105.673958,351.955217 110.945922,346.661564 115.138789,339.826776 L192.390181,213.226292 L138.85645,213.226292 C138.772233,231.234579 142.426114,248.948088 149.84841,265.484732 C125.517652,305.353579 107.367275,335.099139 107.367275,335.099139 C103.989625,340.597903 99.7260151,344.923165 94.7168074,347.918008 C89.8221344,350.834393 84.4266529,352.261203 78.246272,352.261203 L43.1604833,352.261203 C40.1208229,352.261203 37.2866511,353.776557 35.5978261,356.307379 L14.3516439,388.088356 C13.3376752,389.608194 12.8245149,391.367888 12.8245149,393.127583 C12.8245149,394.594742 13.1849623,396.065264 13.8991197,397.413615 C15.4868847,400.360263 18.557986,402.199536 21.9221613,402.199536 L384.067328,402.199536 C387.190083,402.199536 390.075907,400.623657 391.746766,398.005411 L485.737064,250.511638 C487.561759,247.647932 487.622395,243.996286 485.921218,241.072055 L485.921218,241.072055 Z" id="Fill-5" fill="#F3B336"></path>
                <path d="M263.589202,96.5641585 L282.181998,66.0923042 C286.480417,59.1050846 287.598814,54.0165416 285.573123,50.8423667 C283.511498,47.6816418 277.423194,46.096796 267.290244,46.096796 L235.735941,46.096796 L250.508669,22.0472658 L453.580893,22.0472658 L438.803674,46.096796 L404.608336,46.096796 C394.914436,46.096796 387.005929,47.8968401 380.90415,51.4823575 C374.815846,55.0813248 369.29797,60.8815913 364.376347,68.9122985 L347.498203,96.5641585 L263.589202,96.5641585 L263.589202,96.5641585 Z M485.921218,241.072055 C484.214427,238.138857 480.999596,236.395975 477.612963,236.567461 L442.24196,238.296893 C439.618891,238.436996 437.18896,239.679991 435.566385,241.728858 C408.621542,275.599052 376.307043,305.838896 346.892966,324.709096 C318.399659,342.988622 294.126168,352.261203 274.760825,352.261203 L217.962855,352.261203 C210.44399,352.261203 206.159046,351.788215 203.71564,351.324193 C204.571281,349.091511 206.312882,345.374857 209.953288,339.4513 C209.953288,339.4513 212.330444,335.567643 216.462675,328.785534 C218.637711,329.651932 220.848679,330.471254 223.107932,331.215482 C255.623428,342.0079 290.410528,339.389655 321.237199,326.37352 C335.001572,315.484711 369.518056,284.942244 386.19408,240.931952 C379.132231,241.1337 370.35124,245.945399 360.402443,255.148489 C358.340819,256.9037 309.478306,298.413434 278.756064,311.62235 C278.343963,311.824098 252.399614,323.531109 220.567957,322.051621 C222.01087,319.692286 223.586283,317.108785 225.270616,314.350436 C253.021694,314.595897 275.120149,304.665392 275.550216,304.451315 C305.279824,291.67952 354.796982,249.600408 355.183255,249.285456 C367.824739,237.587412 379.145706,232.192883 388.909226,233.182571 C390.812522,227.188402 392.356495,220.949893 393.483875,214.514119 L286.098635,214.636289 C287.695383,212.02701 289.292131,209.413247 290.888879,206.786035 L394.629222,206.663865 C395.528656,198.795677 395.738636,190.901711 395.264777,182.990932 C380.790738,184.128569 363.069305,177.649082 342.454186,163.65671 L342.348635,163.590581 L331.071461,154.917642 L330.887307,154.72486 C330.817688,154.663215 328.961552,152.825063 325.523266,150.03533 C326.917894,147.73764 328.308031,145.469092 329.663358,143.231926 C333.396964,146.217802 335.64611,148.38996 336.260331,149.003051 C336.620778,149.278774 346.708812,157.037121 346.936759,157.207486 C369.658417,172.614339 384.905004,175.836709 394.55848,175.145161 C391.317822,147.825065 379.882321,120.33012 360.341807,92.9696745 C367.710205,80.8905494 372.144493,73.6309694 372.144493,73.6309694 C376.237424,66.9587015 380.750314,62.1301898 385.540559,59.2967456 C390.18595,56.5608131 396.598769,55.182199 404.608336,55.182199 L438.803674,55.182199 C441.965729,55.182199 444.899838,53.5357079 446.558345,50.8423667 L461.340056,26.8018031 C462.230507,25.3436105 462.672925,23.7027235 462.672925,22.0472658 C462.672925,20.5240654 462.292266,18.9952608 461.524209,17.6166468 C459.910618,14.748457 456.874326,12.9753127 453.580893,12.9753127 L250.508669,12.9753127 C247.342122,12.9753127 244.403521,14.6128372 242.758489,17.3050576 L227.972287,41.3512253 C226.253144,44.1488031 226.186894,47.6637086 227.788133,50.5318984 C229.410708,53.4045714 232.441385,55.182199 235.735941,55.182199 L267.290244,55.182199 C272.572314,55.182199 275.501931,55.6495828 277.085205,56.0530796 C276.703423,57.1436418 275.957824,58.859624 274.431818,61.3422502 C274.431818,61.3422502 272.528521,64.459263 269.150871,69.9972566 C241.420005,73.4606041 214.725566,85.1239033 192.758489,103.184869 L343.45468,103.197198 L327.449021,129.418886 L243.534405,129.418886 L254.763295,111.035123 L183.915738,111.035123 C176.130749,118.521109 169.099218,126.888064 163.001931,136.038475 L323.399883,136.056408 L307.214562,162.579598 L223.301069,162.579598 L234.714112,143.884246 L158.125225,143.884246 C154.830668,149.575792 151.887576,155.521766 149.34311,161.71208 C148.325773,164.203672 147.405004,166.699748 146.531396,169.20367 L303.171038,169.212637 L285.138564,198.765415 L201.216089,198.765415 L214.46281,177.058408 L144.075638,177.058408 C141.404285,186.458763 139.763744,195.940937 139.149524,205.385004 L281.09055,205.398454 L202.198617,334.700125 C195.167086,346.149347 192.535034,353.457122 194.338394,356.595431 C196.10133,359.769606 203.987379,361.342122 217.962855,361.342122 L274.760825,361.342122 C295.985672,361.342122 321.667266,351.68734 351.81908,332.34079 C381.969772,313.002085 415.055695,282.1088 442.689993,247.367726 L478.060995,245.638294 L384.067328,393.127583 L21.9221613,393.127583 L43.1604833,361.342122 L78.246272,361.342122 C86.0323841,361.342122 93.0762666,359.47707 99.383534,355.7111 C105.673958,351.955217 110.945922,346.661564 115.138789,339.826776 L192.390181,213.226292 L138.85645,213.226292 C138.772233,231.234579 142.426114,248.948088 149.84841,265.484732 C125.517652,305.353579 107.367275,335.099139 107.367275,335.099139 C103.989625,340.597903 99.7260151,344.923165 94.7168074,347.918008 C89.8221344,350.834393 84.4266529,352.261203 78.246272,352.261203 L43.1604833,352.261203 C40.1208229,352.261203 37.2866511,353.776557 35.5978261,356.307379 L14.3516439,388.088356 C13.3376752,389.608194 12.8245149,391.367888 12.8245149,393.127583 C12.8245149,394.594742 13.1849623,396.065264 13.8991197,397.413615 C15.4868847,400.360263 18.557986,402.199536 21.9221613,402.199536 L384.067328,402.199536 C387.190083,402.199536 390.075907,400.623657 391.746766,398.005411 L485.737064,250.511638 C487.561759,247.647932 487.622395,243.996286 485.921218,241.072055 L485.921218,241.072055 Z" id="Stroke-6" stroke="#F3B336" stroke-width="0.777039166"></path>
                <path d="M403.616825,241.334328 C406.963034,232.47309 409.371631,223.497527 410.871811,214.48722 L401.467616,214.50067 C400.278476,221.7468 398.580668,228.729536 396.475252,235.415254 C399.379042,236.921642 401.721389,239.018704 403.616825,241.334328" id="Fill-7" fill="#F3B336"></path>
                <path d="M403.616825,241.334328 C406.963034,232.47309 409.371631,223.497527 410.871811,214.48722 L401.467616,214.50067 C400.278476,221.7468 398.580668,228.729536 396.475252,235.415254 C399.379042,236.921642 401.721389,239.018704 403.616825,241.334328 L403.616825,241.334328 Z" id="Stroke-8" stroke="#F3B336" stroke-width="0.777039166"></path>
                <path d="M393.892607,242.971852 C383.641754,270.707774 366.802911,293.094001 351.743847,309.109461 C372.114175,294.254054 389.040604,274.189055 399.94947,250.16082 C398.782788,247.670348 396.817733,244.841387 393.892607,242.971852" id="Fill-9" fill="#F3B336"></path>
                <path d="M393.892607,242.971852 C383.641754,270.707774 366.802911,293.094001 351.743847,309.109461 C372.114175,294.254054 389.040604,274.189055 399.94947,250.16082 C398.782788,247.670348 396.817733,244.841387 393.892607,242.971852 L393.892607,242.971852 Z" id="Stroke-10" stroke="#F3B336" stroke-width="0.777039166"></path>
                <path d="M411.704995,177.343097 C409.432267,178.93691 406.581252,180.451144 403.046398,181.532739 C403.616825,189.916506 403.449515,198.29691 402.542221,206.650415 L411.937433,206.641448 C412.981719,196.799489 412.906486,186.987792 411.704995,177.343097" id="Fill-11" fill="#F3B336"></path>
                <path d="M411.704995,177.343097 C409.432267,178.93691 406.581252,180.451144 403.046398,181.532739 C403.616825,189.916506 403.449515,198.29691 402.542221,206.650415 L411.937433,206.641448 C412.981719,196.799489 412.906486,186.987792 411.704995,177.343097 L411.704995,177.343097 Z" id="Stroke-12" stroke="#F3B336" stroke-width="0.777039166"></path>
                <path d="M410.248608,168.323823 C408.345311,158.709391 405.353935,149.295586 401.191385,140.2595 C395.602767,128.123213 388.186085,117.234403 379.268101,107.794819 C391.905093,129.65538 399.594637,151.607847 402.296308,173.521086 C406.16466,172.053927 408.713618,169.956864 410.248608,168.323823" id="Fill-13" fill="#F3B336"></path>
                <path d="M410.248608,168.323823 C408.345311,158.709391 405.353935,149.295586 401.191385,140.2595 C395.602767,128.123213 388.186085,117.234403 379.268101,107.794819 C391.905093,129.65538 399.594637,151.607847 402.296308,173.521086 C406.16466,172.053927 408.713618,169.956864 410.248608,168.323823 L410.248608,168.323823 Z" id="Stroke-14" stroke="#F3B336" stroke-width="0.777039166"></path>
            </g>
        </g>
    </g>
</svg>