<?xml version="1.0" encoding="UTF-8" standalone="no"?>
<svg width="500px" height="500px" viewBox="0 0 500 500" version="1.1" xmlns="http://www.w3.org/2000/svg" xmlns:xlink="http://www.w3.org/1999/xlink">
    <!-- Generator: Sketch 39.1 (31720) - http://www.bohemiancoding.com/sketch -->
    <title>ORL</title>
    <desc>Created with Sketch.</desc>
    <defs></defs>
    <g id="NBA" stroke="none" stroke-width="1" fill="none" fill-rule="evenodd">
        <g id="ORL">
            <g id="Orlando_Magic_P_pms" transform="translate(0.000000, 108.000000)">
                <g id="Group-3" fill="#C1C9CA">
                    <path d="M188.207937,131.580849 C225.349206,125.884983 262.420635,127.555665 294.872222,141.251128 L298.830952,132.55343 C246.319048,115.666536 180.321429,116.532022 131.162698,143.437453 L145.162698,110.905173 C83.3674603,127.600089 41.7968254,162.431341 0,198.314503 C30.4746032,126.359374 96.7277778,67.2024916 171.657937,45.7398659 L167.848413,57.6805587 C233.461111,36.2766369 305.477778,32.2181341 363.790476,41.8447821 L350.130159,24.0852626 L383.584127,32.603676 L405.092857,0.483117318 L413.598413,40.2113855 L446.497619,50.870905 C446.497619,50.870905 422.530159,60.8957877 423.686508,61.3701788 C548.260317,112.666291 508.385714,283.093263 389.925397,283.996827 C330.004762,284.494223 283.515873,230.374771 285.546825,173.761196 C255.088889,153.72095 224.520635,144.072883 188.207937,131.580849" id="Fill-1"></path>
                </g>
                <path d="M411.360317,61.4185698 C418.211905,58.4333966 431.011111,52.8501788 431.011111,52.8501788 L431.965873,52.4344916 L430.969048,52.1076536 C430.969048,52.1076536 410.388095,45.3384581 405.964286,43.899419 C405.299206,39.2475307 402.047619,16.8749944 402.047619,16.8749944 L401.887302,15.7873855 L394.400794,27.9589274 C394.403968,27.9589274 390.114286,34.8732961 387.798413,38.6335196 C382.919048,37.3935978 361.648413,31.9817318 361.648413,31.9817318 L360.52619,31.6993184 L361.238095,32.6116089 C361.25,32.630648 369.893651,43.7486927 375.134127,50.5202682 C353.729365,45.873933 329.022222,43.2758883 300.706349,43.2758883 C291.415079,43.2758883 281.728571,43.5543352 271.659524,44.1334413 C233.051587,46.3356313 195.080159,53.526067 158.640476,66.683676 L162.809524,54.2939777 L162.064286,54.5264134 C105.044444,72.3319441 42.684127,125.765196 15.118254,178.592369 L15.7420635,179.06914 C54.7134921,142.521196 107.468254,113.346145 154.747619,102.721531 L142.329365,131.660179 L143.288095,131.196101 C165.295238,120.579419 194.184127,115.88152 223.328571,115.883106 C253.150794,115.88152 283.252381,120.799955 306.507143,129.269184 L297.592063,148.700972 C276.384127,138.979128 245.70873,132.432056 220.260317,132.425709 C215.726984,132.425709 211.361111,132.634346 207.238889,133.074626 L207.172222,133.852849 C237.228571,142.334771 268.353175,151.921754 293.013492,171.677207 C292.862698,173.777855 292.787302,175.869777 292.787302,177.961698 C292.803968,229.971777 337.723016,277.038034 390.435714,277.055486 C390.787302,277.055486 391.146825,277.052313 391.503175,277.052313 C449.595238,276.361352 492.647619,223.116112 492.655556,167.611564 C492.664286,126.718737 469.25,84.5899553 411.360317,61.4185698" id="Fill-4" fill="#0F1216"></path>
                <path d="M379.671429,156.686291 C358.219841,156.686291 336.757143,148.826313 315.196825,140.908425 C309.512698,152.916547 306.619841,165.502983 306.619841,178.313128 C306.619841,185.122782 307.44127,192.002246 309.093651,198.883296 C310.87381,198.924547 312.661111,198.94676 314.450794,198.94676 C356.077778,198.94676 400.242857,187.383676 435.919841,166.238369 C431.806349,158.590994 426.707937,151.452916 421.41746,144.575039 C407.530159,153.361587 393.600794,156.69105 379.671429,156.686291" id="Fill-5" fill="#C1C9CA"></path>
                <path d="M312.953968,207.020927 L311.546032,207.020927 C324.569048,240.666201 354.415873,262.964961 390.821429,263.471877 C402.47381,234.784704 415.398413,203.435229 444.957143,188.779084 C443.40873,183.609173 441.515873,178.579676 439.423016,173.618402 C401.368254,195.846559 356.944444,207.020927 312.953968,207.020927" id="Fill-6" fill="#C1C9CA"></path>
                <path d="M402.916667,101.425285 C389.975397,96.4878101 381.730159,94.9543687 380.956349,94.8171285 C377.335714,95.3081788 372.421429,95.7976425 368.453175,96.5845922 C390.449206,105.340201 406.692857,115.965609 423.012698,134.149542 C431.395238,127.522346 438.762698,120.016972 443.876984,110.802838 C428.910317,96.2577542 400.727778,78.4308045 330.445238,72.9007374 C360.124603,79.9626592 387.414286,89.4718994 403.285714,100.730358 L402.916667,101.425285" id="Fill-7" fill="#C1C9CA"></path>
                <path d="M205.861905,91.6788492 C210.219048,91.582067 214.927778,91.5241564 219.9,91.5241564 C269.833333,91.5455754 346.902381,97.4151732 376.78254,132.881855 L376.280159,133.486346 C365.942063,127.72781 345.261111,118.186838 332.365873,118.197151 C331.946825,118.197151 331.538095,118.209844 331.144444,118.228089 C326.707937,123.12352 322.788889,128.536972 319.278571,134.145575 C339.251587,141.50895 359.472222,148.81362 379.511905,148.809654 C392.101587,148.809654 404.607937,145.935542 416.997619,138.383363 C382.36746,100.659754 323.746825,84.2052067 268.449206,84.2091732 C246.48254,84.2091732 225.049206,86.8008715 205.861905,91.6788492" id="Fill-8" fill="#C1C9CA"></path>
                <path d="M442.148413,162.289341 C451.805556,155.721642 460.151587,148.855665 467.730952,140.036592 C462.962698,130.980324 454.718254,120.805508 448.807937,115.568168 C443.303175,125.265419 436.259524,133.276916 427.687302,140.318212 C432.734921,147.042983 438.063492,154.887888 442.148413,162.289341" id="Fill-9" fill="#C1C9CA"></path>
                <path d="M399.288095,263.124413 C416.830952,260.98648 432.961111,254.999475 446.523016,243.485575 C448.607937,235.72952 449.499206,227.697397 449.499206,219.647028 C449.499206,211.956816 448.681746,204.242804 447.300794,196.73743 C420.840476,209.446827 409.853968,237.35657 399.288095,263.124413" id="Fill-10" fill="#C1C9CA"></path>
                <path d="M457.312698,224.818525 C457.312698,227.471307 457.246032,230.124089 457.120635,232.784011 C467.40873,218.868804 472.925397,206.782145 475.984127,188.988514 C468.472222,189.658056 461.030159,190.91781 453.947619,193.265173 C456.25873,203.745408 457.312698,214.242302 457.312698,224.818525" id="Fill-11" fill="#C1C9CA"></path>
                <path d="M445.794444,169.651922 C448.113492,174.957486 450.171429,180.346346 451.973016,185.860547 C460.225397,183.173654 468.187302,181.793318 476.788095,181.27133 C476.800794,180.655732 476.800794,180.052827 476.800794,179.450715 C476.800794,168.062156 475.119048,159.309721 471.409524,148.416179 C463.524603,156.489553 455.186508,163.359497 445.794444,169.651922" id="Fill-12" fill="#C1C9CA"></path>
                <path d="M476.788095,181.27133 C468.187302,181.793318 460.225397,183.173654 451.973016,185.860547 C450.171429,180.346346 448.113492,174.957486 445.794444,169.651922 C455.186508,163.359497 463.524603,156.489553 471.409524,148.416179 C475.119048,159.309721 476.800794,168.062156 476.800794,179.450715 C476.800794,180.052827 476.800794,180.655732 476.788095,181.27133" id="Fill-13" fill="#C1C9CA"></path>
                <path d="M448.807937,115.568168 C454.718254,120.805508 462.962698,130.980324 467.730952,140.036592 C460.151587,148.855665 451.805556,155.721642 442.148413,162.289341 C438.063492,154.887888 432.734921,147.042983 427.687302,140.318212 C436.259524,133.276916 443.303175,125.265419 448.807937,115.568168" id="Fill-14" fill="#C1C9CA"></path>
                <path d="M330.445238,72.9007374 C400.727778,78.4308045 428.910317,96.2577542 443.876984,110.802838 C438.762698,120.016972 431.395238,127.522346 423.012698,134.149542 C406.692857,115.965609 390.449206,105.340201 368.453175,96.5845922 C372.421429,95.7976425 377.335714,95.3081788 380.956349,94.8171285 C381.730159,94.9543687 389.975397,96.4878101 402.916667,101.425285 L403.285714,100.730358 C387.414286,89.4718994 360.124603,79.9626592 330.445238,72.9007374" id="Fill-15" fill="#C1C9CA"></path>
                <path d="M314.450794,198.94676 C312.661111,198.94676 310.87381,198.924547 309.093651,198.883296 C307.44127,192.002246 306.619841,185.122782 306.619841,178.313128 C306.619841,165.502983 309.512698,152.916547 315.196825,140.908425 C336.757143,148.826313 358.219841,156.686291 379.671429,156.686291 C393.600794,156.69105 407.530159,153.361587 421.41746,144.575039 C426.707937,151.452916 431.806349,158.590994 435.919841,166.238369 C400.242857,187.383676 356.077778,198.94676 314.450794,198.94676" id="Fill-16" fill="#C1C9CA"></path>
                <path d="M390.821429,263.471877 C354.415873,262.964961 324.569048,240.666201 311.546032,207.020927 L312.953968,207.020927 C356.944444,207.020927 401.368254,195.846559 439.423016,173.618402 C441.515873,178.579676 443.40873,183.609173 444.957143,188.779084 C415.398413,203.435229 402.47381,234.784704 390.821429,263.471877" id="Fill-17" fill="#C1C9CA"></path>
                <path d="M457.120635,232.784011 C457.246032,230.124089 457.312698,227.471307 457.312698,224.818525 C457.312698,214.242302 456.25873,203.745408 453.947619,193.265173 C461.030159,190.91781 468.472222,189.658056 475.984127,188.988514 C472.925397,206.782145 467.40873,218.868804 457.120635,232.784011" id="Fill-18" fill="#C1C9CA"></path>
                <path d="M416.997619,138.383363 C404.607937,145.935542 392.101587,148.809654 379.511905,148.809654 C359.472222,148.81362 339.251587,141.50895 319.278571,134.145575 C322.788889,128.536972 326.707937,123.12352 331.144444,118.228089 C331.538095,118.209844 331.946825,118.197151 332.365873,118.197151 C345.261111,118.186838 365.942063,127.72781 376.280159,133.486346 L376.78254,132.881855 C346.902381,97.4151732 269.833333,91.5455754 219.9,91.5241564 C214.927778,91.5241564 210.219048,91.582067 205.861905,91.6788492 C225.049206,86.8008715 246.48254,84.2091732 268.449206,84.2091732 C323.746825,84.2052067 382.36746,100.659754 416.997619,138.383363" id="Fill-19" fill="#C1C9CA"></path>
                <path d="M446.523016,243.485575 C432.961111,254.999475 416.830952,260.98648 399.288095,263.124413 C409.853968,237.35657 420.840476,209.446827 447.300794,196.73743 C448.681746,204.242804 449.499206,211.956816 449.499206,219.647028 C449.499206,227.697397 448.607937,235.72952 446.523016,243.485575" id="Fill-20" fill="#C1C9CA"></path>
                <polyline id="Fill-21" fill="#C1C9CA" points="377.084127 68.9302905 392.369841 63.5898212 403.972222 76.7490168 402.615873 59.5693966 417.416667 53.1222793 401.314286 47.8357542 398.815079 30.693419 390.218254 44.6141788 373.907143 40.4517542 384.723016 54.3479218 377.084127 68.9302905"></polyline>
                <polyline id="Fill-22" fill="#FFFFFF" points="295.659524 81.3009497 306.273016 76.0636089 315.120635 83.9291397 313.396825 72.2375419 323.618254 66.2965475 311.944444 64.3029944 309.428571 52.7732291 303.953968 63.2510838 292.171429 62.0500335 300.447619 70.5010168 295.659524 81.3009497"></polyline>
                <polyline id="Fill-23" fill="#FFFFFF" points="176.303968 104.768235 183.293651 101.31581 189.103175 106.49524 187.969048 98.8058212 194.686508 94.8893184 187.010317 93.5676872 185.353175 85.9869497 181.744444 92.8568939 174.001587 92.0953296 179.447619 97.6515754 176.303968 104.768235"></polyline>
                <path d="M440.557937,210.283754 L440.545238,208.858201 L430.697619,225.353207 L433.522222,210.827162 L432.827778,210.497151 C418.386508,227.998056 412.869841,240.577352 408.384127,256.087084 L408.165873,256.818503 L408.894444,256.571788 C425.1,250.949698 433.463492,244.460536 436.895238,241.736358 L436.970635,241.67924 L437.007937,241.591184 C439.419841,236.357017 440.562698,225.771274 440.570635,212.803263 C440.570635,211.966335 440.562698,211.129408 440.557937,210.283754" id="Fill-24" fill="#006CAA"></path>
                <path d="M407.613492,172.078615 C391.842857,175.284324 373.443651,177.162056 356.58254,177.162056 C354.051587,177.162056 351.555556,177.124771 349.107937,177.036715 L385.280159,166.339117 L385.186508,165.560101 C361.304762,164.439966 342.86746,163.991754 319.53254,153.051408 L319.194444,152.896715 L319.014286,153.218793 C315.539683,159.447754 313.569048,168.180358 313.569048,177.016089 C313.569048,182.036067 314.204762,187.098089 315.580952,191.750771 L315.661905,192.022078 L315.945238,192.034771 C315.957937,192.034771 316.78254,192.059363 318.319048,192.059363 C328.749206,192.05619 371.609524,190.909877 407.872222,172.828279 L407.613492,172.078615" id="Fill-25" fill="#006CAA"></path>
                <path d="M415.592063,201.406771 C397.350794,214.953888 383.618254,225.906134 356.725397,230.968156 C381.629365,218.027911 398.334921,209.129508 414.042063,193.239788 L413.557143,192.620223 C385.711111,208.81933 349.442857,215.76543 323.852381,216.727698 L323.161111,216.752291 L323.534921,217.337743 C344.596032,250.656179 371.25,253.643732 379.918254,253.643732 L379.96746,253.643732 C381.764286,253.643732 382.77619,253.518391 382.793651,253.518391 L382.977778,253.493799 L383.078571,253.333553 C394.378571,235.469318 401.569841,218.265899 416.126984,201.993017 L415.592063,201.406771" id="Fill-26" fill="#006CAA"></path>
                <path d="M396.915079,90.3802235 C395.592857,89.6852961 394.246032,89.0284469 392.847619,88.4009497 C414.385714,94.7893631 428.905556,103.095966 437.025397,109.415363 C435.774603,111.266916 434.384127,113.051039 432.953175,114.786771 C422.98254,104.455676 410.811905,96.0388045 396.915079,90.3802235 M463.273016,210.945363 L463.196825,209.539642 C464.361111,203.745408 465.018254,197.930547 465.219841,192.194223 C466.742063,191.788056 468.3,191.473911 469.869048,191.181184 C468.199206,198.309743 466.119048,204.786212 463.273016,210.945363 M472.268254,173.17495 C469.459524,173.542246 466.855556,173.948413 464.28254,174.504514 C463.70873,170.338123 462.871429,166.21695 461.815873,162.167966 C464.604762,159.820603 467.283333,157.436749 469.996032,154.879955 C471.552381,160.874894 472.204762,166.489844 472.268254,173.17495 M462.662698,137.81457 C460.26746,140.389609 457.957937,142.669542 455.604762,144.799542 C452.992857,139.184592 449.946825,133.806045 446.414286,128.71943 C448.246825,126.497408 450.033333,124.211128 451.695238,121.807441 C456.2,126.792514 460.109524,132.614514 462.662698,137.81457" id="Fill-27" fill="#FFFFFF"></path>
            </g>
        </g>
    </g>
</svg>