<?xml version="1.0" encoding="UTF-8" standalone="no"?>
<svg width="500px" height="500px" viewBox="0 0 500 500" version="1.1" xmlns="http://www.w3.org/2000/svg" xmlns:xlink="http://www.w3.org/1999/xlink">
    <!-- Generator: Sketch 39.1 (31720) - http://www.bohemiancoding.com/sketch -->
    <title>DAL</title>
    <desc>Created with Sketch.</desc>
    <defs>
        <path d="M27.1165682,40.5430946 C27.12147,40.478867 27.1260164,40.4099058 27.1302448,40.3362882 L27.1302448,12.8922065 C26.6673522,8.43274196 25.7592486,4.0720326 24.1101104,0.359946256 L2.01034007,0.359946256 C1.1803246,3.28515152 0.616427875,7.04392187 0.496503497,11.8685096 C0.448426573,13.3025884 0.291083916,14.5312995 0.0524475524,16.4495219 C19.0277492,-27.1698945 26.8087038,37.7860405 27.1006994,40.5430946 L27.1165682,40.5430946 L27.1165682,40.5430946 Z" id="path-1"></path>
    </defs>
    <g id="NBA" stroke="none" stroke-width="1" fill="none" fill-rule="evenodd">
        <g id="DAL">
            <g id="DMavericks_P_pms" transform="translate(0.000000, 1.000000)">
                <g id="Group-5">
                    <path d="M454.017483,396.864925 C455.29458,394.864555 455.923077,390.781669 455.923077,390.781669 C455.977273,389.436729 456.987762,388.822373 456.987762,388.822373 C460.444056,386.965324 461.631993,385.701657 461.789336,385.497163 C485.758741,348.397256 499.622378,304.490499 499.622378,257.408844 C499.622378,207.746546 484.19493,161.613079 457.766608,123.264361 C456.319056,121.7761 452.910839,119.774856 452.910839,119.774856 C451.661713,119.297704 451.41521,118.150266 451.41521,118.150266 C450.725524,113.92406 449.831294,112.394725 449.831294,112.394725 C428.354021,84.6622102 400.839161,61.6129545 369.227273,45.0498249 C363.586538,42.5093818 358.505245,42.2437145 358.505245,42.2437145 C357.365385,42.2777968 356.819056,41.3698091 356.819056,41.3698091 C354.947552,38.7480928 349.340909,35.8869264 347.237762,34.8766918 C318.02972,23.0309037 285.966783,16.4696217 252.340035,16.4696217 C242.137238,16.4696217 232.112762,17.0848511 222.237762,18.2654974 L235.212413,0.842444834 C183.339161,-0.707863398 146.120629,39.7924098 146.120629,39.7924098 L146.140734,39.8535832 C133.711538,45.6432067 121.788462,52.3818914 110.581294,60.055655 L110.622378,59.9944816 C83.5655594,69.7035709 75.7666084,91.4961506 75.7666084,91.4961506 C68.916958,97.2246007 55.3479021,115.241909 55.3479021,115.241909 C51.4685315,117.487846 47.4195804,121.181844 46.1896853,122.342391 C39.9685315,128.821525 28.5568182,143.418368 22.486014,168.577231 C22.3225524,169.001075 22.1311189,169.396954 21.9536713,169.819925 C21.7071678,171.219921 21.4414336,172.803438 21.2229021,174.373846 C20.6215035,177.357359 20.1092657,180.45011 19.7001748,183.686182 L19.9527972,183.338368 C19.8496503,184.006905 19.7884615,184.409776 19.7884615,184.409776 C19.1468531,184.846729 15.2674825,200.352433 15.2674825,200.352433 C14.6258741,202.311729 7.55769231,223.538018 7.55769231,223.538018 L7.51660839,223.503935 C7.50961538,223.538018 7.50961538,223.5922 7.50961538,223.633273 C-11.0856643,288.575807 13.6153846,327.91466 17.8146853,333.984807 C50.6564685,429.520149 143.238636,498.340201 252.340035,498.340201 C335.587413,498.340201 409.225524,458.283872 454.017483,396.864925" id="Fill-1" fill="#FFFFFF"></path>
                    <path d="M457.766608,123.264361 C456.319056,121.7761 452.910839,119.774856 452.910839,119.774856 C451.661713,119.297704 451.41521,118.150266 451.41521,118.150266 C450.725524,113.92406 449.831294,112.394725 449.831294,112.394725 C428.354021,84.6622102 400.839161,61.6129545 369.227273,45.0498249 C363.586538,42.5093818 358.505245,42.2437145 358.505245,42.2437145 C357.365385,42.2777968 356.819056,41.3698091 356.819056,41.3698091 C354.947552,38.7480928 349.340909,35.8869264 347.237762,34.8766918 C318.02972,23.0309037 285.966783,16.4696217 252.340035,16.4696217 C242.137238,16.4696217 232.112762,17.0848511 222.237762,18.2654974 L235.212413,0.842444834 C183.339161,-0.707863398 146.120629,39.7924098 146.120629,39.7924098 L146.140734,39.8535832 C133.711538,45.6432067 121.788462,52.3818914 110.581294,60.055655 L110.622378,59.9944816 C83.5655594,69.7035709 75.7666084,91.4961506 75.7666084,91.4961506 C68.916958,97.2246007 55.3479021,115.241909 55.3479021,115.241909 C51.4685315,117.487846 47.4195804,121.181844 46.1896853,122.342391 C39.9685315,128.821525 28.5568182,143.418368 22.486014,168.577231 C22.3225524,169.001075 22.1311189,169.396954 21.9536713,169.819925 C21.7071678,171.219921 21.4414336,172.803438 21.2229021,174.373846 C20.6215035,177.357359 20.1092657,180.45011 19.7001748,183.686182 L19.9527972,183.338368 C19.8496503,184.006905 19.7884615,184.409776 19.7884615,184.409776 C19.1468531,184.846729 15.2674825,200.352433 15.2674825,200.352433 C14.6258741,202.311729 7.55769231,223.538018 7.55769231,223.538018 L7.51660839,223.503935 C7.50961538,223.538018 7.50961538,223.5922 7.50961538,223.633273 C-11.0856643,288.575807 13.6153846,327.91466 17.8146853,333.984807 C50.6564685,429.520149 143.238636,498.340201 252.340035,498.340201 C335.587413,498.340201 409.225524,458.283872 454.017483,396.864925 C455.280594,394.864555 455.923077,390.781669 455.923077,390.781669 C455.977273,389.436729 456.987762,388.822373 456.987762,388.822373 C460.444056,386.965324 461.631993,385.701657 461.789336,385.497163 C485.758741,348.397256 499.622378,304.490499 499.622378,257.408844 C499.622378,207.746546 484.19493,161.613079 457.766608,123.264361" id="Fill-4" fill="#0F1216"></path>
                </g>
                <path d="M148.564685,76.605676 C149.200175,75.9362644 149.79458,75.3219089 150.306818,74.7626095 C151.132867,73.8948214 151.453671,73.6833363 151.555944,73.7453835 C151.672203,73.6422627 151.740385,73.5740981 151.740385,73.5740981 C151.965909,61.2170753 154.745629,51.3034921 154.745629,51.3034921 C177.233392,19.8970788 214.329545,11.5748774 214.329545,11.5748774 C218.938811,10.2500368 215.954545,12.2914799 215.954545,12.2914799 C192.598776,38.4474694 195.030594,60.055655 195.030594,60.055655 L217.320804,141.369933 C217.320804,141.369933 199.257867,135.014019 185.340035,106.447799 C178.90035,163.436046 232.66521,209.650786 232.66521,209.650786 C235.007867,211.651156 231.31993,209.480375 231.31993,209.480375 C217.86014,202.76179 202.36451,188.594909 198.131119,184.608152 C199.257867,189.011762 225.426573,320.527538 225.501748,320.923417 C225.618007,321.537772 225.993881,322.794448 226.259615,323.654371 L235.335664,301.131207 L242.826923,367.534037 C208.729895,399.241074 172.439685,386.698783 170.186189,385.865951 C171.073427,387.286047 171.75,388.323373 171.763986,388.323373 C171.763986,388.323373 201.230769,446.21349 321.307692,440.08217 C321.307692,440.08217 324.202797,440.055079 323.752622,440.423867 C323.806818,440.526114 323.636364,440.669434 323.103147,440.846837 C320.84965,441.665687 317.312063,442.232851 317.312063,442.232851 C172.344406,480.957349 97.2307692,357.457033 93.9667832,351.940942 C93.0576923,350.677275 86.0244755,340.770683 82.0909091,330.782818 C81.9816434,330.502294 81.8103147,329.512159 82.4798951,330.270709 C82.4798951,330.270709 97.8793706,346.300757 141.408217,350.267413 C141.736014,350.240322 141.906469,350.199249 141.906469,350.199249 C108.252622,312.696471 93.9527972,285.517138 91.8356643,281.373079 C91.8356643,281.345114 91.8155594,281.345114 91.8015734,281.345114 C91.8015734,281.345114 87.7517483,275.275841 82.965035,258.043299 C82.965035,258.043299 83.0804196,257.176385 83.4903846,258.043299 C85.1293706,261.463765 96.2814685,277.890566 109.83042,281.550482 L109.857517,281.550482 C98.3575175,263.000091 91.2141608,233.656095 90.2858392,229.368715 C105.965035,251.297623 133.718531,252.875023 133.718531,252.875023 C133.670455,252.799867 133.630245,252.745685 133.568182,252.670529 C133.630245,252.765785 133.657343,252.820841 133.657343,252.820841 C87.9973776,207.281629 97.8452797,157.708469 116.372378,121.912429 C127.278846,100.788387 141.223776,84.4568424 148.564685,76.605676" id="Fill-6" fill="#FFFFFF"></path>
                <path d="M266.340035,311.556898 L281.746503,231.600669 C283.344406,223.769602 282.422203,231.709907 282.422203,231.709907 L273.646853,315.058637 L292.870629,381.31203 L255.611014,409.891359 C251.780594,412.867881 254.702797,409.318077 254.702797,409.318077 L284.587413,377.891564 L266.340035,311.556898" id="Fill-7" fill="#C1C9CA"></path>
                <path d="M266.340035,311.556898 L281.746503,231.600669 C283.344406,223.769602 282.422203,231.709907 282.422203,231.709907 L273.646853,315.058637 L292.870629,381.31203 L255.611014,409.891359 C251.780594,412.867881 254.702797,409.318077 254.702797,409.318077 L284.587413,377.891564 L266.340035,311.556898 L266.340035,311.556898 Z" id="Stroke-8" stroke="#0F1216" stroke-width="1.04545455"></path>
                <path d="M276.043706,218.744646 C272.738636,220.322046 275.866259,218.1032 275.866259,218.1032 C291.908217,207.43194 294.659965,159.408215 294.980769,151.392755 C295.021853,150.477776 295.431818,151.392755 295.431818,151.392755 C312.716783,205.076765 276.043706,218.744646 276.043706,218.744646" id="Fill-9" fill="#C1C9CA"></path>
                <path d="M276.043706,218.744646 C272.738636,220.322046 275.866259,218.1032 275.866259,218.1032 C291.908217,207.43194 294.659965,159.408215 294.980769,151.392755 C295.021853,150.477776 295.431818,151.392755 295.431818,151.392755 C312.716783,205.076765 276.043706,218.744646 276.043706,218.744646 L276.043706,218.744646 Z" id="Stroke-10" stroke="#0F1216" stroke-width="1.04545455"></path>
                <path d="M291.361888,83.8153958 C291.361888,83.8153958 287.797203,71.8472609 284.48514,67.7844746 C284.48514,67.7844746 303.558566,57.154289 328.942308,65.6337933 C328.942308,65.6337933 329.707168,65.9414081 328.874126,65.914317 C324.141608,65.8933433 303.026224,65.0535201 291.361888,83.8153958" id="Fill-11" fill="#C1C9CA"></path>
                <path d="M291.361888,83.8153958 C291.361888,83.8153958 287.797203,71.8472609 284.48514,67.7844746 C284.48514,67.7844746 303.558566,57.154289 328.942308,65.6337933 C328.942308,65.6337933 329.707168,65.9414081 328.874126,65.914317 C324.141608,65.8933433 303.026224,65.0535201 291.361888,83.8153958 L291.361888,83.8153958 Z" id="Stroke-12" stroke="#0F1216" stroke-width="1.04545455"></path>
                <path d="M265.301573,124.253622 C265.301573,124.253622 275.661713,111.937673 278.577797,84.5730718 C278.577797,84.5730718 295.93007,142.708757 264.83042,209.337054 C264.632867,209.739925 264.421329,209.822072 264.570804,209.220825 C264.570804,209.220825 279.29458,159.05341 278.263112,116.21107 C278.263112,116.21107 269.208042,144.974793 263.717657,150.470785 C263.717657,150.470785 253.507867,114.948277 238.640734,103.451177 C238.640734,103.451177 254.70979,163.395846 252.11451,204.659912 C252.11451,204.659912 251.855769,206.162156 251.691434,204.584757 C250.319056,192.759942 242.533217,138.216009 208.988636,65.8391611 C208.988636,65.8391611 243.892483,84.7574658 265.301573,124.253622" id="Fill-13" fill="#C1C9CA"></path>
                <path d="M265.301573,124.253622 C265.301573,124.253622 275.661713,111.937673 278.577797,84.5730718 C278.577797,84.5730718 295.93007,142.708757 264.83042,209.337054 C264.632867,209.739925 264.421329,209.822072 264.570804,209.220825 C264.570804,209.220825 279.29458,159.05341 278.263112,116.21107 C278.263112,116.21107 269.208042,144.974793 263.717657,150.470785 C263.717657,150.470785 253.507867,114.948277 238.640734,103.451177 C238.640734,103.451177 254.70979,163.395846 252.11451,204.659912 C252.11451,204.659912 251.855769,206.162156 251.691434,204.584757 C250.319056,192.759942 242.533217,138.216009 208.988636,65.8391611 C208.988636,65.8391611 243.892483,84.7574658 265.301573,124.253622 L265.301573,124.253622 Z" id="Stroke-14" stroke="#0F1216" stroke-width="1.04545455" stroke-linejoin="round"></path>
                <g id="Group-18" transform="translate(20.979021, 66.416813)">
                    <path d="M375.516608,367.725422 C375.516608,367.725422 272.725524,454.952545 140.131119,392.481415 C140.131119,392.481415 67.6057692,364.871247 33.4195804,292.911252 C5.13374126,249.051687 0.435314685,215.003457 0.892482517,182.266086 C0.892482517,182.266086 0.728146853,174.121287 1.60926573,180.68956 C1.60926573,180.68956 7.63986014,219.878102 22.2132867,242.169681 C22.2132867,242.169681 26.3653846,250.389636 23.3531469,241.528235 C23.3531469,241.528235 13.6083916,204.790124 13.5192308,179.672335 C13.5192308,179.672335 -3.98339161,112.565137 34.2867133,74.4279037 C34.2867133,74.4279037 24.3164336,96.8488214 23.8793706,116.101832 C23.8793706,116.101832 23.2237762,123.359616 24.9038462,116.314191 C24.9038462,116.314191 32.8391608,84.9418599 58.2840909,56.1440543 C58.2840909,56.1440543 67.284965,27.4283958 81.729021,16.4084483 C81.729021,16.4084483 74.8173077,28.4928126 74.7421329,37.1706935 C74.7421329,37.1706935 99.9012238,5.44355692 116.277098,0.719224168 C116.277098,0.719224168 43.9431818,63.770627 58.2840909,172.571853 C58.2840909,172.571853 40.9589161,144.974793 51.5917832,89.5097636 C51.5917832,89.5097636 -2.29020979,153.885133 79.8234266,256.248298 C79.8234266,256.248298 53.2377622,251.284515 32.5996503,211.289359 C32.5996503,211.289359 34.3138112,319.71568 153.652972,382.295173 C153.652972,382.295173 251.438811,438.621 374.048951,366.688096 C374.048951,366.688096 386.682692,358.535433 375.516608,367.725422" id="Fill-15" fill="#C1C9CA"></path>
                    <path d="M375.516608,367.725422 C375.516608,367.725422 272.725524,454.952545 140.131119,392.481415 C140.131119,392.481415 67.6057692,364.871247 33.4195804,292.911252 C5.13374126,249.051687 0.435314685,215.003457 0.892482517,182.266086 C0.892482517,182.266086 0.728146853,174.121287 1.60926573,180.68956 C1.60926573,180.68956 7.63986014,219.878102 22.2132867,242.169681 C22.2132867,242.169681 26.3653846,250.389636 23.3531469,241.528235 C23.3531469,241.528235 13.6083916,204.790124 13.5192308,179.672335 C13.5192308,179.672335 -3.98339161,112.565137 34.2867133,74.4279037 C34.2867133,74.4279037 24.3164336,96.8488214 23.8793706,116.101832 C23.8793706,116.101832 23.2237762,123.359616 24.9038462,116.314191 C24.9038462,116.314191 32.8391608,84.9418599 58.2840909,56.1440543 C58.2840909,56.1440543 67.284965,27.4283958 81.729021,16.4084483 C81.729021,16.4084483 74.8173077,28.4928126 74.7421329,37.1706935 C74.7421329,37.1706935 99.9012238,5.44355692 116.277098,0.719224168 C116.277098,0.719224168 43.9431818,63.770627 58.2840909,172.571853 C58.2840909,172.571853 40.9589161,144.974793 51.5917832,89.5097636 C51.5917832,89.5097636 -2.29020979,153.885133 79.8234266,256.248298 C79.8234266,256.248298 53.2377622,251.284515 32.5996503,211.289359 C32.5996503,211.289359 34.3138112,319.71568 153.652972,382.295173 C153.652972,382.295173 251.438811,438.621 374.048951,366.688096 C374.048951,366.688096 386.682692,358.535433 375.516608,367.725422 L375.516608,367.725422 Z" id="Stroke-17" stroke="#0F1216" stroke-width="1.04545455" stroke-linejoin="round"></path>
                </g>
                <path d="M258.028846,36.6996585 C367.342657,36.7066497 425.48514,114.825056 425.48514,114.825056 C430.197552,120.280848 416.853147,121.7761 416.853147,121.7761 C340.121503,132.47445 303.244755,98.876282 303.244755,98.876282 C309.513112,81.9312557 342.52535,66.616937 342.52535,66.616937 C309.83479,47.7117408 280.052448,61.7291839 280.052448,61.7291839 C270.553322,49.835331 255.365385,38.1809282 255.365385,38.1809282 C252.101399,36.2356147 258.028846,36.6996585 258.028846,36.6996585" id="Fill-19" fill="#0060A0"></path>
                <path d="M258.028846,36.6996585 C367.342657,36.7066497 425.48514,114.825056 425.48514,114.825056 C430.197552,120.280848 416.853147,121.7761 416.853147,121.7761 C340.121503,132.47445 303.244755,98.876282 303.244755,98.876282 C309.513112,81.9312557 342.52535,66.616937 342.52535,66.616937 C309.83479,47.7117408 280.052448,61.7291839 280.052448,61.7291839 C270.553322,49.835331 255.365385,38.1809282 255.365385,38.1809282 C252.101399,36.2356147 258.028846,36.6996585 258.028846,36.6996585 L258.028846,36.6996585 Z" id="Stroke-20" stroke="#0060A0" stroke-width="1.04545455"></path>
                <path d="M307.594406,224.528152 C380.686189,293.737093 356.006119,409.434306 356.006119,409.434306 C354.687937,413.400963 350.467657,414.46538 350.467657,414.46538 C299.297203,425.806051 265.697552,415.168874 265.697552,415.168874 L302.732517,385.394916 L284,316.007699 L289.142483,269.697702 C305.074301,274.456117 305.074301,314.424182 305.074301,314.424182 C334.903846,251.823715 307.594406,224.528152 307.594406,224.528152" id="Fill-21" fill="#0060A0"></path>
                <path d="M307.594406,224.528152 C380.686189,293.737093 356.006119,409.434306 356.006119,409.434306 C354.687937,413.400963 350.467657,414.46538 350.467657,414.46538 C299.297203,425.806051 265.697552,415.168874 265.697552,415.168874 L302.732517,385.394916 L284,316.007699 L289.142483,269.697702 C305.074301,274.456117 305.074301,314.424182 305.074301,314.424182 C334.903846,251.823715 307.594406,224.528152 307.594406,224.528152 L307.594406,224.528152 Z" id="Stroke-22" stroke="#0060A0" stroke-width="1.04545455" stroke-linejoin="round"></path>
                <path d="M442.401224,361.505837 C442.401224,361.505837 414.490385,396.953189 373.140734,410.355403 C373.140734,410.355403 366.563811,412.874872 368.148601,406.013841 C368.148601,406.013841 398.995629,286.527373 317.20979,206.974888 C317.20979,206.974888 313.446678,204.455419 318.214161,205.718212 C318.214161,205.718212 331.564685,209.780998 340.094406,220.315054 C340.094406,220.315054 338.722028,196.835837 322.809441,178.538879 C322.809441,178.538879 318.289336,173.786581 323.034965,177.357359 C323.034965,177.357359 442.257867,233.75135 446.33479,348.731961 C446.33479,348.731961 447.215909,357.471016 442.401224,361.505837" id="Fill-23" fill="#0060A0"></path>
                <path d="M442.401224,361.505837 C442.401224,361.505837 414.490385,396.953189 373.140734,410.355403 C373.140734,410.355403 366.563811,412.874872 368.148601,406.013841 C368.148601,406.013841 398.995629,286.527373 317.20979,206.974888 C317.20979,206.974888 313.446678,204.455419 318.214161,205.718212 C318.214161,205.718212 331.564685,209.780998 340.094406,220.315054 C340.094406,220.315054 338.722028,196.835837 322.809441,178.538879 C322.809441,178.538879 318.289336,173.786581 323.034965,177.357359 C323.034965,177.357359 442.257867,233.75135 446.33479,348.731961 C446.33479,348.731961 447.215909,357.471016 442.401224,361.505837 L442.401224,361.505837 Z" id="Stroke-24" stroke="#0060A0" stroke-width="1.04545455"></path>
                <path d="M456.243881,326.938508 C453.143357,201.130208 296.237762,128.916781 296.237762,128.916781 C315.160839,128.780452 325.288462,142.605636 325.288462,142.605636 C325.725524,136.372942 323.000874,128.916781 323.000874,128.916781 C360.212413,143.090653 428.31993,129.387816 428.31993,129.387816 C436.370629,128.685196 438.215035,133.286308 438.215035,133.286308 C453.143357,149.877403 471.800699,188.704147 474.901224,235.30865 C479.291958,301.28851 456.694056,345.809622 456.243881,326.938508" id="Fill-25" fill="#0060A0"></path>
                <path d="M456.243881,326.938508 C453.143357,201.130208 296.237762,128.916781 296.237762,128.916781 C315.160839,128.780452 325.288462,142.605636 325.288462,142.605636 C325.725524,136.372942 323.000874,128.916781 323.000874,128.916781 C360.212413,143.090653 428.31993,129.387816 428.31993,129.387816 C436.370629,128.685196 438.215035,133.286308 438.215035,133.286308 C453.143357,149.877403 471.800699,188.704147 474.901224,235.30865 C479.291958,301.28851 456.694056,345.809622 456.243881,326.938508 L456.243881,326.938508 Z" id="Stroke-26" stroke="#0060A0" stroke-width="1.04545455"></path>
                <path d="M200.227273,23.0309037 C200.302448,22.935648 200.397727,22.8465096 200.445804,22.7442627 C200.445804,22.7442627 200.411713,22.7512539 200.397727,22.7582452 C199.066434,23.1401419 175.103147,30.1995499 168.013986,66.7261751 C168.013986,66.7261751 167.95979,67.4025779 168.341783,66.7742399 C170.5,63.2235622 177.98514,51.8907566 184.888986,55.2491751 C184.888986,55.2491751 184.916084,54.9835079 184.964161,54.5124729 C185.340035,51.4197215 187.593531,38.7201278 200.227273,23.0309037" id="Fill-27" fill="#0F1216"></path>
                <path d="M181.863636,353.196744 C176.680944,342.792026 143.429196,270.155629 143.429196,270.155629 C133.083916,273.459865 120.237762,265.034543 120.237762,265.034543 L120.237762,265.061634 C136.61451,308.518329 175.130245,346.513116 181.263112,353.415221 C181.331294,353.456294 181.344406,353.470277 181.365385,353.517468 C182.402972,354.643932 182.402972,354.234944 182.402972,354.234944 C182.266608,354.016468 182.096154,353.660788 181.863636,353.196744" id="Fill-28" fill="#0F1216"></path>
                <path d="M224.661713,370.968485 C225.201049,367.492963 231.613636,326.45349 210.935315,320.746014 C210.935315,320.746014 196.682692,317.100081 197.604895,346.785774 C216.951923,302.311853 224.661713,370.708935 224.661713,370.968485" id="Fill-29" fill="#C1C9CA"></path>
                <path d="M197.604895,346.785774 L204.659091,362.324687 C204.659091,362.324687 208.715909,320.629785 224.682692,370.879347 C224.682692,370.879347 217.505245,299.725093 197.604895,346.785774" id="Fill-30" fill="#0F1216"></path>
                <path d="M148.892483,116.668996 C118.872378,185.277564 186.425699,213.55627 187.31993,213.911075 L187.333916,213.918067 L183.762238,198.119604 L181.727273,189.072935 C180.020105,188.520627 178.449301,187.89928 176.912587,187.215886 C176.40035,186.991292 175.888112,186.744851 175.38986,186.513266 C174.761364,186.205651 174.119755,185.905028 173.532343,185.598287 C144.016608,169.909063 146.871503,132.337247 148.687937,120.123545 C148.701923,120.028289 148.701923,119.95925 148.715035,119.870986 C148.783217,119.51618 148.831294,119.160501 148.892483,118.846769 C149.076923,117.706322 149.214161,116.921555 149.302448,116.511694 C149.343531,116.334291 149.370629,116.197961 149.370629,116.197961 L149.370629,116.156888 C149.445804,115.241909 149.036713,116.286226 148.892483,116.668996" id="Fill-31" fill="#0F1216"></path>
                <path d="M164.374126,155.373394 C164.374126,155.373394 168.382867,168.659378 185.736014,169.396954 C185.736014,169.396954 185.019231,168.379729 183.912587,166.447524 C180.716783,160.794229 172.453671,143.226982 171.31993,124.957116 C171.31993,124.854869 156.350524,138.031615 164.374126,155.373394" id="Fill-32" fill="#0F1216"></path>
                <path d="M193.336538,309.788114 L188.47465,223.586082 L217.477273,319.694706 C217.477273,319.694706 207.965035,296.987147 193.336538,309.788114" id="Fill-33" fill="#C1C9CA"></path>
                <path d="M171.585664,103.676644 C170.73951,118.062002 171.31993,125.175592 171.31993,125.175592 C171.31993,125.175592 154.000874,138.468567 167.243007,160.664891 C148.462413,140.461946 164.155594,114.58648 171.585664,103.676644" id="Fill-34" fill="#C1C9CA"></path>
                <path d="M195.08479,61.9336778 L201.511364,113.480116 C201.511364,113.480116 204.645979,127.558732 185.340035,106.447799 C185.340035,106.447799 194.736888,130.057228 214.055944,140.162196 C215.148601,140.742469 216.27535,141.260695 217.423077,141.752704 C217.539336,141.779795 217.655594,141.84796 217.743881,141.882042 L195.84965,61.8244396 C195.84965,61.8244396 195.439685,60.7460403 195.208042,60.6569019 C195.071678,60.6018459 195.002622,60.8893608 195.08479,61.9336778" id="Fill-35" fill="#C1C9CA"></path>
                <g id="Group-38" transform="translate(197.552448, 330.336252)">
                    <mask id="mask-2" fill="white">
                        <use xlink:href="#path-1"></use>
                    </mask>
                    <g id="Clip-37"></g>
                    <path d="M0.0524475524,16.4495219 L7.10664336,31.9884343 C7.10664336,31.9884343 11.1634615,-9.7064676 27.1302448,40.5430946 C27.1302448,40.5430946 19.9527972,-30.6111594 0.0524475524,16.4495219 L0.0524475524,16.4495219 Z" id="Stroke-36" stroke="#0F1216" stroke-width="1.04545455" mask="url(#mask-2)"></path>
                </g>
                <path d="M171.31993,125.175592 C171.31993,125.175592 154.000874,138.468567 167.243007,160.664891" id="Stroke-39" stroke="#0F1216" stroke-width="1.04545455" stroke-linecap="square"></path>
                <path d="M185.340035,106.447799 C185.340035,106.447799 194.736888,130.057228 214.055944,140.162196 C215.148601,140.742469 216.27535,141.260695 217.423077,141.752704 C217.539336,141.779795 217.655594,141.84796 217.743881,141.882042 L195.84965,61.8244396 C195.84965,61.8244396 195.439685,60.7460403 195.208042,60.6569019" id="Stroke-41" stroke="#0F1216" stroke-width="1.04545455" stroke-linejoin="round"></path>
            </g>
        </g>
    </g>
</svg>