<?xml version="1.0" encoding="UTF-8" standalone="no"?>
<svg width="500px" height="500px" viewBox="0 0 500 500" version="1.1" xmlns="http://www.w3.org/2000/svg" xmlns:xlink="http://www.w3.org/1999/xlink">
    <!-- Generator: Sketch 39.1 (31720) - http://www.bohemiancoding.com/sketch -->
    <title>BKN</title>
    <desc>Created with Sketch.</desc>
    <defs></defs>
    <g id="NBA" stroke="none" stroke-width="1" fill="none" fill-rule="evenodd">
        <g id="BKN">
            <g id="Page-1" transform="translate(2.000000, 0.000000)">
                <g id="Group-3" transform="translate(0.000000, 0.183044)" fill="#221F20">
                    <path d="M488.567278,189.77341 C522.051208,323.217534 441.308935,458.329287 308.568518,491.579769 C175.615239,524.876493 40.8752641,443.528709 7.49824671,310.063391 C-25.777637,176.497881 54.8047486,41.3543353 187.665563,8.19922929 C320.457991,-24.9905588 455.25383,56.2859345 488.567278,189.77341" id="Fill-1"></path>
                </g>
                <path d="M469.134481,194.804528 C499.925365,317.466378 425.714404,441.672543 303.68453,472.239017 C181.445646,502.851734 57.6098128,428.073314 26.9383632,305.39027 C-3.64543721,182.616667 70.4075628,58.3893064 192.524123,27.9085742 C314.621419,-2.58949904 438.513117,72.1157033 469.134481,194.804528" id="Fill-4" fill="#FEFEFE"></path>
                <g id="Group-9" transform="translate(19.263566, 23.304432)">
                    <path d="M29.7201184,107.803276 C29.7201184,107.803276 67.0731359,93.8042389 145.305366,132.919846 C194.000772,157.21657 272.315835,213.752216 320.309084,225.246435 C365.276025,236.121195 390.840704,238.709827 411.985357,224.255106 C415.387303,242.93237 416.883118,260.679961 416.883118,277.217534 C385.122314,293.006551 322.881733,313.141426 263.9227,318.274374 C191.203702,324.448748 158.550031,320.457418 88.0742754,296.978613 C17.6948374,273.497881 0.579159109,241.730058 0.579159109,241.730058 C0.579159109,241.730058 14.2216165,282.141426 76.5575525,308.70501 C136.433531,334.255106 208.46193,344.412139 289.097291,328.16262 C355.886,314.639499 393.357489,302.04027 416.66833,289.621195 C415.722489,306.373603 413.316469,321.629865 409.453161,335.681888 C408.729814,336.110597 408.020915,336.541233 407.494056,336.908285 C402.213913,340.141426 396.893316,342.899615 391.381047,345.917919 C379.754522,352.632755 368.181934,359.37264 356.315578,365.825434 C332.988363,378.458382 309.597578,391.044123 286.062316,403.480539 C279.53293,406.8158 273.128758,410.355299 266.511723,413.644316 C242.378328,425.903468 220.76557,432.81869 193.807173,436.021002 C171.412314,438.704046 150.234913,435.82158 127.458636,428.977649 C120.576727,426.930443 112.978213,425.250289 107.029624,421.696339 C111.69526,429.903468 131.670615,435.511368 143.672779,438.482466 C157.514615,441.891908 171.754242,443.532563 186.210585,443.637572 C195.75183,443.748362 205.132223,442.9921 214.625308,441.558574 C225.448543,439.819653 235.950076,437.166474 246.352401,433.885164 C283.977035,422.225241 318.779556,402.547013 352.038103,381.739692 C365.872233,373.065318 378.074739,366.182852 390.681779,357.348555 C396.28844,353.389981 401.146711,349.780154 406.340169,346.117341 C390.34563,392.581696 358.871853,425.060501 322.147791,438.212717 C355.39189,432.611561 395.443733,394.168401 415.722489,339.433333 C416.883118,338.611561 418.310549,337.735838 419.704268,336.699229 C429.475711,330.26474 430.470675,337.177071 429.260923,334.580732 C429.260923,334.580732 433.289897,333.672254 432.900773,330.37553 C432.437485,326.887091 424.458516,328.2079 418.652477,330.831214 C423.319076,316.10289 426.569803,300.045087 427.764144,283.144316 C430.31175,281.468015 432.494312,279.787861 434.716365,278.109634 C455.956372,261.461272 459.11656,224.720424 459.11656,224.720424 C459.11656,224.720424 453.272958,252.090366 433.107857,267.623121 C431.824903,268.671291 430.183647,269.71368 428.312192,270.880347 C428.663752,253.396724 426.823118,234.843738 422.379977,215.603854 C478.861715,162.303276 421.957142,100.844701 421.957142,100.844701 C421.957142,100.844701 450.69164,148.477649 430.183647,188.284008 C427.365388,193.93237 423.533865,198.874566 419.137919,202.973796 C380.885293,70.6539499 265.650642,-21.9510597 159.991909,5.43911368 C302.133909,-9.72755299 390.235828,129.200193 407.813832,203.737765 C408.418708,205.829287 408.729814,207.863969 409.207551,210.110597 C391.987849,219.456455 367.036715,221.087476 334.468768,212.907322 C278.68726,198.874566 177.130704,133.262813 121.086248,109.468979 C71.6530486,88.4660886 49.8929246,94.3398844 38.6641921,98.7030829 C27.3381785,102.8158 29.7201184,107.803276 29.7201184,107.803276" id="Fill-6" fill="#221F20"></path>
                    <path d="M29.7201184,107.803276 C29.7201184,107.803276 67.0731359,93.8042389 145.305366,132.919846 C194.000772,157.21657 272.315835,213.752216 320.309084,225.246435 C365.276025,236.121195 390.840704,238.709827 411.985357,224.255106 C415.387303,242.93237 416.883118,260.679961 416.883118,277.217534 C385.122314,293.006551 322.881733,313.141426 263.9227,318.274374 C191.203702,324.448748 158.550031,320.457418 88.0742754,296.978613 C17.6948374,273.497881 0.579159109,241.730058 0.579159109,241.730058 C0.579159109,241.730058 14.2216165,282.141426 76.5575525,308.70501 C136.433531,334.255106 208.46193,344.412139 289.097291,328.16262 C355.886,314.639499 393.357489,302.04027 416.66833,289.621195 C415.722489,306.373603 413.316469,321.629865 409.453161,335.681888 C408.729814,336.110597 408.020915,336.541233 407.494056,336.908285 C402.213913,340.141426 396.893316,342.899615 391.381047,345.917919 C379.754522,352.632755 368.181934,359.37264 356.315578,365.825434 C332.988363,378.458382 309.597578,391.044123 286.062316,403.480539 C279.53293,406.8158 273.128758,410.355299 266.511723,413.644316 C242.378328,425.903468 220.76557,432.81869 193.807173,436.021002 C171.412314,438.704046 150.234913,435.82158 127.458636,428.977649 C120.576727,426.930443 112.978213,425.250289 107.029624,421.696339 C111.69526,429.903468 131.670615,435.511368 143.672779,438.482466 C157.514615,441.891908 171.754242,443.532563 186.210585,443.637572 C195.75183,443.748362 205.132223,442.9921 214.625308,441.558574 C225.448543,439.819653 235.950076,437.166474 246.352401,433.885164 C283.977035,422.225241 318.779556,402.547013 352.038103,381.739692 C365.872233,373.065318 378.074739,366.182852 390.681779,357.348555 C396.28844,353.389981 401.146711,349.780154 406.340169,346.117341 C390.34563,392.581696 358.871853,425.060501 322.147791,438.212717 C355.39189,432.611561 395.443733,394.168401 415.722489,339.433333 C416.883118,338.611561 418.310549,337.735838 419.704268,336.699229 C429.475711,330.26474 430.470675,337.177071 429.260923,334.580732 C429.260923,334.580732 433.289897,333.672254 432.900773,330.37553 C432.437485,326.887091 424.458516,328.2079 418.652477,330.831214 C423.319076,316.10289 426.569803,300.045087 427.764144,283.144316 C430.31175,281.468015 432.494312,279.787861 434.716365,278.109634 C455.956372,261.461272 459.11656,224.720424 459.11656,224.720424 C459.11656,224.720424 453.272958,252.090366 433.107857,267.623121 C431.824903,268.671291 430.183647,269.71368 428.312192,270.880347 C428.663752,253.396724 426.823118,234.843738 422.379977,215.603854 C478.861715,162.303276 421.957142,100.844701 421.957142,100.844701 C421.957142,100.844701 450.69164,148.477649 430.183647,188.284008 C427.365388,193.93237 423.533865,198.874566 419.137919,202.973796 C380.885293,70.6539499 265.650642,-21.9510597 159.991909,5.43911368 C302.133909,-9.72755299 390.235828,129.200193 407.813832,203.737765 C408.418708,205.829287 408.729814,207.863969 409.207551,210.110597 C391.987849,219.456455 367.036715,221.087476 334.468768,212.907322 C278.68726,198.874566 177.130704,133.262813 121.086248,109.468979 C71.6530486,88.4660886 49.8929246,94.3398844 38.6641921,98.7030829 C27.3381785,102.8158 29.7201184,107.803276 29.7201184,107.803276" id="Stroke-8" stroke="#221F20" stroke-width="2.91425819"></path>
                </g>
                <path d="M343.74533,297.686416 C343.74533,280.171965 343.74533,254.13632 323.237338,233.926301 C325.443016,230.006262 327.324104,225.728805 328.73227,221.165222 C332.181412,210.723988 332.501187,199.280829 332.308551,191.848266 L332.181412,143.634393 L332.181412,142.942678 C331.640106,124.958092 328.948022,106.042871 314.502274,89.5920039 C301.480104,74.7644509 281.91121,67.0091522 257.889544,67.0091522 L193.208268,67.1604046 C186.13565,67.1604046 179.142976,69.9609827 174.030425,75.1584778 C168.982408,80.2480732 166.042788,87.1825626 166.042788,94.511079 L166.648627,411.092004 C166.648627,420.562139 171.43466,429.213391 179.366433,434.089114 C183.801869,436.791426 188.820028,438.264451 194.04527,438.264451 L259.873691,438.183526 C283.615073,438.120906 303.564422,431.238439 319.055218,417.743256 L319.263265,417.598748 C340.956929,397.922447 343.299379,374.710501 343.857059,352.516859 L343.857059,352.277938 L343.74533,297.686416 Z" id="Fill-10" fill="#FEFEFE"></path>
                <path d="M256.442272,220.829191 C251.137086,222.327264 248.572142,222.824374 236.995702,223.202987 L225.463568,223.258863 C223.48809,223.334971 222.954489,222.366763 222.954489,220.829191 C222.954489,219.896628 222.828313,123.254046 222.828313,123.254046 C222.828313,121.715511 223.400441,120.759827 225.034954,120.608574 L242.832563,120.608574 L244.242656,120.608574 C252.785084,120.895665 262.295506,121.175048 268.387609,124.951541 C271.191421,126.694316 272.887578,128.798362 273.915289,131.602794 C274.783113,134.477553 275.578698,139.513198 276.081477,148.083526 L276.194169,185.870617 C276.081477,186.528613 276.081477,187.466956 276.081477,188.729961 C275.786745,198.500674 275.578698,215.010308 256.442272,220.829191 L256.442272,220.829191 Z M278.248628,378.390848 C273.619594,381.744412 267.981148,383.71262 253.566222,384.20684 C253.566222,384.20684 228.744154,384.277168 226.864993,384.277168 C224.619824,384.277168 223.759706,382.907225 223.759706,380.765607 C223.759706,362.282948 223.48809,260.522832 223.48809,259.64422 C223.48809,258.716474 223.759706,257.421676 225.647535,257.421676 C227.494911,257.421676 238.078315,257.321484 238.078315,257.321484 C251.255557,257.960212 264.978921,258.908189 273.915289,264.70395 C279.100078,267.827264 282.595452,272.31474 284.826173,278.253083 C286.801652,284.339788 287.151285,291.091233 287.151285,297.398555 L287.255309,342.267534 C287.255309,362.737669 285.963687,372.351349 278.248628,378.390848 L278.248628,378.390848 Z M323.986113,297.864836 C323.986113,280.921676 323.986113,260.174085 306.458194,245.516089 C302.873245,242.440944 298.46863,239.767534 293.276136,237.65 C301.391877,232.156744 306.918594,224.549807 309.993059,215.010308 C312.780497,206.546917 312.661063,195.983333 312.541628,191.848459 L312.40582,143.634586 C311.99358,130.274277 310.543997,115.068112 299.830565,102.756936 C290.384675,92.1808285 276.081477,86.738632 257.914008,86.7964355 L193.208654,86.9765896 C191.312156,86.9765896 189.457074,87.7251445 187.99208,89.167341 C186.54346,90.5777457 185.880793,92.4197495 185.880793,94.3320809 L186.438473,411.035356 C186.438473,413.617245 187.760917,416.053661 189.975264,417.36869 C191.138784,418.142293 192.555619,418.53921 194.053361,418.53921 L259.874076,418.381214 C266.849413,418.381214 288.289762,418.300289 306.152867,402.927457 C321.995223,388.387958 323.604694,371.283911 324.083394,352.071002 L323.986113,297.864836 Z" id="Fill-12" fill="#221F20"></path>
            </g>
        </g>
    </g>
</svg>