<?xml version="1.0" encoding="UTF-8" standalone="no"?>
<svg width="500px" height="500px" viewBox="0 0 500 500" version="1.1" xmlns="http://www.w3.org/2000/svg" xmlns:xlink="http://www.w3.org/1999/xlink">
    <!-- Generator: Sketch 50.2 (55047) - http://www.bohemiancoding.com/sketch -->
    <title>DEN</title>
    <desc>Created with Sketch.</desc>
    <defs>
        <polygon id="path-1" points="0 3.18255208 496.778947 3.18255208 496.778947 499.739583 0 499.739583"></polygon>
    </defs>
    <g id="DEN" stroke="none" stroke-width="1" fill="none" fill-rule="evenodd">
        <g id="Group">
            <g id="Group-3" transform="translate(0.000000, 0.077865)">
                <mask id="mask-2" fill="white">
                    <use xlink:href="#path-1"></use>
                </mask>
                <g id="Clip-2"></g>
                <path d="M248.452632,3.17992188 C314.636842,3.17992188 376.952632,29.0190885 423.963158,76.0209115 C470.884211,122.922786 496.778947,185.300807 496.778947,251.403203 C496.778947,388.373932 385.431579,499.742214 248.452632,499.742214 C182.115789,499.742214 119.721053,473.950391 72.7368421,426.932786 C25.9210526,380.01513 0,317.668672 0,251.403203 C0,185.300807 25.9210526,122.922786 72.7368421,76.0209115 C119.721053,29.0190885 182.115789,3.17992188 248.452632,3.17992188" id="Fill-1" fill="#FEC52F" mask="url(#mask-2)"></path>
            </g>
            <path d="M248.452632,480.034599 C374.415789,480.034599 476.868421,377.587984 476.868421,251.485276 C476.868421,125.614026 374.415789,23.072724 248.452632,23.072724 C122.342105,23.072724 19.8315789,125.614026 19.8315789,251.485276 C19.8315789,377.587984 122.342105,480.034599 248.452632,480.034599" id="Fill-4" fill="#8A2433"></path>
            <path d="M36.8057895,251.483698 C36.8057895,134.933906 131.747895,40.0728125 248.453158,40.0728125 C365.137368,40.0728125 459.947895,134.933906 459.947895,251.483698 C459.947895,368.133438 365.137368,463.026094 248.453158,463.026094 C131.747895,463.026094 36.8057895,368.133438 36.8057895,251.483698" id="Fill-6" fill="#0A233F"></path>
            <path d="M415.007895,162.976135 L419.723684,160.340667 L404.523684,136.76874 L400.265789,139.840823 C374.407895,107.2315 328.502632,70.8767604 284.818421,65.3691042 C317.713158,80.3875937 354.713158,118.72551 377.307895,148.278531 L353.565789,165.516917 L356.428947,169.898844 L249.181579,239.5415 L141.939474,169.898844 L144.818421,165.516917 L120.939474,148.278531 C143.686842,118.72551 180.597368,80.3875937 213.534211,65.3691042 C169.897368,70.8715 123.95,107.152594 98.2973684,139.719833 L93.8447368,136.5215 L78.6447368,160.030302 L83.3868421,162.7815 L83.2657895,162.976135 C64.3763158,200.046292 50.5078947,257.353271 64.0184211,299.278792 C63.6657895,263.050302 83.1394737,213.234156 100.634211,180.07249 L126.244737,194.491292 L128.897368,190.446031 L228.481579,253.013427 L97.1236842,338.326865 L96.9184211,338.063844 L79.3184211,342.80874 L79.5078947,343.245354 C78.6447368,346.517333 80.25,352.577333 83.9973684,358.363792 C87.7289474,364.308062 92.45,368.227073 95.9868421,368.879365 L96.2868421,369.358062 L107.981579,355.239104 L107.881579,354.981344 L369.528947,190.446031 L372.086842,194.491292 L397.771053,180.07249 C415.234211,213.234156 434.728947,263.050302 434.507895,299.278792 C448.013158,257.353271 433.971053,200.046292 415.007895,162.976135" id="Fill-8" fill="#FEC52F"></path>
            <path d="M401.505789,338.064896 L401.305789,338.327917 L280.426842,259.84776 L259.258421,272.378073 L390.521579,354.977135 L390.374211,355.240156 L402.042632,369.364375 L402.39,368.875156 C405.921579,368.228125 410.637368,364.309115 414.374211,358.359583 C418.011053,352.573125 419.732105,346.513125 418.868947,343.241146 L419.084737,342.804531 L401.505789,338.064896 Z" id="Fill-10" fill="#FEC52F"></path>
            <polygon id="Fill-12" fill="#FEC52F" points="269.916316 86.5049323 260.821579 98.3776927 248.253158 68.3670156 248.253158 206.957953 290.495263 152.917693 333.000526 163.86988"></polygon>
            <polygon id="Fill-14" fill="#FEFEFE" points="269.916316 118.997474 269.916316 86.5091406 260.821579 98.3766406"></polygon>
            <polygon id="Fill-16" fill="#FEFEFE" points="248.252105 68.3607031 171.588947 161.769922 205.420526 153.16388 248.252105 206.967422"></polygon>
            <path d="M203.253158,417.901187 C214.105789,407.480302 227.921579,401.115198 242.826842,399.715927 L242.826842,378.942542 L185.563684,378.942542 C186.916316,394.06624 193.274211,407.622333 203.253158,417.901187" id="Fill-18" fill="#FEC52F"></path>
            <path d="M242.824737,437.149578 L242.824737,412.578172 C231.708947,413.935359 221.424737,418.61187 212.956316,426.276297 C221.761579,432.141661 231.908947,435.976505 242.824737,437.149578" id="Fill-20" fill="#FEC52F"></path>
            <path d="M255.545789,309.872219 L255.545789,334.37524 C266.635263,333.033833 277.003684,328.430969 285.282632,320.771802 C276.608947,314.859094 266.519474,310.987427 255.545789,309.872219" id="Fill-22" fill="#FEFEFE"></path>
            <path d="M295.065789,329.146911 C284.202632,339.441547 270.423684,345.938161 255.544737,347.248005 L255.544737,366.143422 L312.718421,366.143422 C310.971053,351.829828 304.544737,338.904984 295.065789,329.146911" id="Fill-24" fill="#FEFEFE"></path>
            <path d="M242.824737,334.371557 L242.824737,309.873797 C231.908947,310.989005 221.761579,314.860672 213.103684,320.778641 C221.424737,328.427286 231.708947,333.035411 242.824737,334.371557" id="Fill-26" fill="#FEFEFE"></path>
            <path d="M255.545789,378.940964 L255.545789,399.714349 C270.419474,401.11362 284.298421,407.478724 295.066842,417.90487 C305.061579,407.620755 311.651053,394.064661 312.840526,378.940964 L255.545789,378.940964 Z" id="Fill-28" fill="#FEC52F"></path>
            <path d="M185.690526,366.144474 L242.822105,366.144474 L242.822105,347.254318 C227.916842,345.933953 214.201053,339.442599 203.253684,329.153224 C193.801053,338.900776 187.369474,351.82562 185.690526,366.144474" id="Fill-30" fill="#FEFEFE"></path>
            <path d="M255.545789,437.149578 C266.519474,435.976505 276.608947,432.141661 285.282632,426.276297 C277.003684,418.61187 266.635263,413.935359 255.545789,412.578172 L255.545789,437.149578 Z" id="Fill-32" fill="#FEC52F"></path>
        </g>
    </g>
</svg>