<?xml version="1.0" encoding="UTF-8" standalone="no"?>
<svg width="500px" height="500px" viewBox="0 0 500 500" version="1.1" xmlns="http://www.w3.org/2000/svg" xmlns:xlink="http://www.w3.org/1999/xlink">
    <!-- Generator: Sketch 39.1 (31720) - http://www.bohemiancoding.com/sketch -->
    <title>IND</title>
    <desc>Created with Sketch.</desc>
    <defs></defs>
    <g id="NBA" stroke="none" stroke-width="1" fill="none" fill-rule="evenodd">
        <g id="IND">
            <g id="IPacersP_pms" transform="translate(0.000000, 18.000000)">
                <path d="M459.498433,64.0053514 C425.550157,23.0385405 376.655172,0.252378378 321.844828,0.156756757 L102.630094,0.174 L0.907523511,462.564108 L188.051724,462.691081 L214.907524,350.798108 C240.048589,350.798108 306.139498,350.821622 306.068966,350.821622 C368.760188,351.262108 420.200627,330.02627 454.824451,289.410595 C517.706897,220.918865 506.663009,120.928432 459.498433,64.0053514" id="Fill-1" fill="#B6B7B6"></path>
                <path d="M205.332288,338.616541 L178.482759,450.501676 L16.0407524,450.565946 L112.424765,12.3524324 L321.811912,12.4950811 C373.960815,12.5907027 418.611285,33.7356216 450.126959,71.7789189 C496.567398,127.821027 501.11442,220.965892 445.553292,281.513189 C411.478056,321.476757 361.528213,339.030378 306.152038,338.629081 L205.332288,338.616541" id="Fill-2" fill="#012145"></path>
                <path d="M90.8416928,109.696811 L182.623824,109.761081 C193.166144,109.761081 204.396552,118.622541 199.528213,132.018973 C196.521944,140.305135 194.219436,149.901784 193.145768,158.918432 C192.310345,165.955243 200.170846,170.394595 204.675549,170.394595 L391.721003,170.523135 C395.230408,170.523135 397.095611,169.52773 397.095611,167.853568 C397.095611,166.180973 396.934169,159.978108 396.261755,155.629676 C395.61442,151.478757 394.9279,150.773351 391.573668,150.773351 C368.263323,150.752973 358.752351,140.36 334.319749,124.601243 C309.88558,108.842486 274.048589,99.7741081 243.246082,99.7552973 L93.0736677,99.6518378 L90.8416928,109.696811" id="Fill-3" fill="#F4B53E"></path>
                <path d="M204.161442,230.84627 C200.92163,223.906649 197.929467,215.664378 196.095611,208.077351 C193.777429,198.36627 185.5721,190.47827 171.512539,190.46573 L73.0799373,190.401459 L75.515674,179.357946 L394.564263,179.571135 C397.738245,179.571135 397.064263,180.90827 396.902821,184.421189 C396.719436,187.949784 395.902821,194.483405 395.388715,198.330216 C394.88558,202.175459 391.710031,201.264703 388.678683,201.333676 C381.49373,201.495135 368.147335,203.192811 360.371473,209.024162 C347.145768,218.964108 318.95768,236.409568 303.095611,241.485351 C286.105016,246.895027 222.567398,266.346973 203.968652,230.515514" id="Fill-4" fill="#F4B53E"></path>
                <path d="M55.4278997,270.776919 L222.029781,270.899189 C229.388715,270.899189 235.706897,272.647027 240.626959,276.736811 C254.702194,288.338378 272.956113,296.771892 292.326019,302.377514 C301.025078,304.890324 315.965517,301.647027 329.341693,294.077243 C362.69906,275.224108 384.148903,239.351892 391.18652,216.249081 C393.031348,210.218649 389.514107,210.710865 384.835423,211.040054 C370.785266,212.043297 356.015674,224.757838 336.590909,237.144757 C317.147335,249.514432 277.622257,261.224162 240.111285,261.186541 L57.5705329,261.067405 L55.4278997,270.776919" id="Fill-5" fill="#F4B53E"></path>
                <path d="M299.822884,47.6462162 C302.172414,47.2276757 310.601881,46.7072432 315.289969,48.5538378 C346.940439,61.0191351 376.874608,93.9756757 389.405956,128.992 C391.818182,135.72627 392.409091,140.046486 389.396552,140.386649 C374.89185,141.985568 368.134796,134.835892 351.062696,123.271946 C333.995298,111.703297 318.260188,103.82 296.648903,96.9430811 C275.358934,90.1586486 236.553292,89.1961622 231.532915,89.0268649 C226.523511,88.856 227.15674,86.7538919 229.344828,84.5796757 C247.931034,66.0228108 272.912226,52.5448649 299.822884,47.6462162" id="Fill-6" fill="#F4B53E"></path>
                <path d="M451.658307,167.714054 C451.744514,169.054324 450.327586,170.567027 448.655172,170.567027 C448.482759,170.567027 412.155172,170.535676 412.155172,170.535676 C407.467085,170.535676 407.382445,168.364595 407.233542,165.679351 C407.047022,163.000378 406.299373,157.642432 406.137931,154.457135 C405.978056,151.372162 404.84953,147.832595 408.979624,146.097297 C419.136364,141.80373 428.747649,131.865351 433.111285,123.331514 C434.583072,120.462865 436.793103,115.714703 439.289969,119.749622 C447.926332,133.561459 450.628527,150.599351 451.658307,167.714054" id="Fill-7" fill="#F4B53E"></path>
                <path d="M438.605016,233.291676 C437.971787,234.523784 435.634796,235.443946 434.882445,233.437459 C429.553292,219.191405 416.905956,209.395676 408.19906,204.533081 C405.556426,203.06427 405.346395,201.349351 405.675549,198.751892 C406.020376,196.156 407.112853,187.865135 407.285266,184.356919 C407.42163,181.588595 408.537618,179.585243 410.631661,179.585243 L448.655172,179.608757 C449.996865,179.615027 451.681818,180.820486 451.681818,181.82373 C451.681818,199.963622 446.177116,217.862108 438.605016,233.291676" id="Fill-8" fill="#F4B53E"></path>
                <path d="M339.711599,304.659892 C337.031348,305.045514 331.18652,304.126919 340.402821,298.772108 C368.040752,282.710811 392.655172,245.013946 399.221003,223.365838 C401.730408,215.106324 401.998433,214.672108 405.163009,215.582865 C409.388715,216.783622 416.047022,222.546 421.155172,229.574973 C426.258621,236.607081 428.471787,250.304486 425.518809,254.240649 C405.666144,280.879892 374.098746,299.612324 339.711599,304.659892" id="Fill-9" fill="#F4B53E"></path>
                <path d="M409.996865,134.036432 C403.5721,137.496054 402.327586,136.853351 400.959248,132.01427 C388.952978,89.8968649 353.540752,58.7116757 339.067398,49.4928108 C336.304075,47.7496757 337.021944,46.584973 339.015674,46.853027 C373.683386,51.4663784 407.626959,70.3602703 424.716301,96.2455135 C434.485893,111.07627 416.219436,130.689676 409.996865,134.036432" id="Fill-10" fill="#F4B53E"></path>
            </g>
        </g>
    </g>
</svg>