<?xml version="1.0" encoding="UTF-8" standalone="no"?>
<svg width="500px" height="500px" viewBox="0 0 500 500" version="1.1" xmlns="http://www.w3.org/2000/svg" xmlns:xlink="http://www.w3.org/1999/xlink">
    <!-- Generator: Sketch 39.1 (31720) - http://www.bohemiancoding.com/sketch -->
    <title>NO</title>
    <desc>Created with Sketch.</desc>
    <defs>
        <polygon id="path-1" points="431.754848 499.949495 0.0505263158 499.949495 0.0505263158 0.297979798 215.902687 0.297979798 431.754848 0.297979798 431.754848 499.949495"></polygon>
    </defs>
    <g id="NBA" stroke="none" stroke-width="1" fill="none" fill-rule="evenodd">
        <g id="NO">
            <g id="NOPelicans_2nd_A_pms" transform="translate(34.000000, 0.000000)">
                <g id="Group-6">
                    <mask id="mask-2" fill="white">
                        <use xlink:href="#path-1"></use>
                    </mask>
                    <g id="Clip-2"></g>
                    <path d="M216.021895,401.890572 C159.368421,401.890572 113.262316,355.795455 113.262316,299.135522 C113.262316,242.505051 159.368421,196.43266 216.021895,196.43266 C272.677053,196.43266 318.784,242.505051 318.784,299.135522 C318.784,355.795455 272.677053,401.890572 216.021895,401.890572" id="Fill-1" fill="#AB9157" mask="url(#mask-2)"></path>
                    <path d="M183.491368,452.800505 C156.583579,445.525253 143.000421,414.579966 143.000421,414.579966 C143.621895,414.281987 170.391579,398.555556 179.020632,378.046296 L97.4677895,378.046296 L97.4677895,314.031987 L115.530947,313.916667 L127.160421,313.916667 C123.679158,298.51431 116.092632,282.037037 99.6690526,281.707071 C65.5216842,281.025253 86.2231579,335.117845 86.2231579,335.117845 C86.2231579,335.117845 -0.176842105,339.349327 0,251.399832 C0.0774736842,216.98064 21.8602105,179.618687 70.5372632,173.760943 C74.128,173.324074 77.7002105,173.108586 81.1612632,173.108586 C107.094737,173.108586 127.359158,185.95202 141.221053,203.118687 C110.499368,102.509259 215.776,0.297979798 215.776,0.297979798 C215.776,0.297979798 326.953263,107.409091 288.654316,203.118687 C302.621474,184.984848 323.853474,173.108586 350.600421,173.108586 C354.059789,173.108586 357.641263,173.324074 361.223579,173.760943 C409.900632,179.618687 431.630316,216.98064 431.754105,251.414141 C432.045474,334.005051 346.543158,335.784512 346.543158,335.784512 C348.046316,330.118687 363.908211,285.035354 332.221474,281.707071 C315.823158,279.989057 308.151579,298.521886 304.669474,313.916667 L322.672842,313.916667 L322.672842,314.031987 L334.246737,314.031987 L334.246737,378.046296 L252.228211,378.046296 C259.238737,399.45202 288.300632,414.356902 288.300632,414.356902 C288.300632,414.356902 277.508211,443.959596 247.393684,453.069865 C242.885053,474.906566 215.524211,500 215.524211,500 C215.524211,500 187.672421,474.015993 183.491368,452.800505" id="Fill-3" fill="#AB9157" mask="url(#mask-2)"></path>
                    <path d="M215.852632,261.366162 C208.468211,238.203704 197.705263,224.196128 188.877474,212.680135 C177.623579,198.042929 170.851368,189.20202 170.851368,164.790404 C170.851368,123.909091 198.312421,79.1321549 216.130526,54.4208754 C233.910737,78.5488215 261.223579,122.260101 261.223579,162.957912 C261.223579,187.5 253.945263,197.183502 242.929684,211.828283 C234.064,223.606061 223.279158,237.942761 215.852632,261.366162" id="Fill-4" fill="#002344" mask="url(#mask-2)"></path>
                    <path d="M359.850105,185.223064 C281.090526,175.700337 268.112,287.680135 265.994105,325.571549 L230.196211,325.571549 C230.612211,218.691077 284.320842,234.546296 284.320842,162.965488 C284.320842,91.2845118 215.891368,17.4116162 215.891368,17.4116162 C215.891368,17.4116162 147.748211,93.1170034 147.748211,164.790404 C147.748211,236.378788 201.217684,218.691077 201.510737,325.571549 L165.765895,325.571549 C163.709474,287.680135 150.654316,175.700337 71.9267368,185.223064 C-13.1309474,195.451178 -3.89642105,313.25 71.9267368,322.535354 C71.9267368,322.535354 57.5663158,270.167508 99.6690526,270.167508 C130.167579,270.167508 138.565895,306.035354 140.790737,325.571549 L109.005474,325.571549 L109.005474,366.506734 L196.224842,366.506734 C184.734316,405.931818 158.517895,417.853535 158.517895,417.853535 C158.517895,417.853535 169.616842,439.96633 193.777684,443.271044 C196.010947,453.276094 201.556211,468.288721 215.501474,481.093434 C229.344842,468.350168 234.892632,453.398148 237.132632,443.400673 C261.317053,440.012626 273.290105,417.853535 273.290105,417.853535 C273.290105,417.853535 246.972632,405.931818 235.482947,366.506734 L322.711579,366.506734 L322.711579,325.571549 L291.031579,325.571549 C293.264,306.035354 301.517474,270.167508 332.221474,270.167508 C374.110316,270.167508 359.850105,322.535354 359.850105,322.535354 C435.664842,313.25 444.878316,195.451178 359.850105,185.223064" id="Fill-5" fill="#002344" mask="url(#mask-2)"></path>
                </g>
                <path d="M309.502316,338.767677 L216.934737,338.767677 L216.996211,325.516835 C217.235368,262.431818 235.865263,237.667508 250.824421,217.77862 C262.167579,202.712121 271.119158,190.820707 271.119158,162.965488 C271.119158,113.12037 234.193684,60.746633 216.045474,38.0210438 C197.974737,61.2213805 160.940632,114.88468 160.940632,164.790404 C160.940632,192.560606 169.354947,203.531987 181.022316,218.698653 C195.948632,238.150673 214.534737,262.346801 214.694737,325.532828 L214.734316,338.767677 L122.213895,338.767677 L122.213895,347.583333 L309.502316,347.583333 L309.502316,338.767677" id="Fill-7" fill="#D12138"></path>
                <path d="M222.810105,370.209596 L220.425263,362.005892 L211.281684,362.021886 L208.890105,370.209596 C201.248842,396.462963 187.533474,412.241582 177.272421,420.920034 C181.512421,425.05303 187.718737,429.262626 195.948632,430.275253 L199.907368,430.765993 L202.929684,433.364478 C204.194526,434.446128 207.745684,437.489899 215.324632,453.414983 C224.352842,436.684343 228.133895,433.824074 229.469474,432.828283 L232.292211,430.703704 L235.788632,430.275253 C244.058105,429.262626 250.271158,425.060606 254.520421,420.944444 C244.210526,412.26431 230.466526,396.478114 222.810105,370.209596" id="Fill-8" fill="#D12138"></path>
                <path d="M182.856421,428.166667 C182.856421,428.166667 201.242105,416.143939 201.562947,388.096801 L206.910316,384.762626 C206.910316,384.762626 209.579789,425.499158 203.573053,434.177609 C203.573053,434.177609 194.882526,436.178451 182.856421,428.166667" id="Fill-9" fill="#002344"></path>
                <path d="M249.044211,428.166667 C249.044211,428.166667 230.665263,416.143939 230.328421,388.096801 L224.989474,384.762626 C224.989474,384.762626 222.327579,425.499158 228.333474,434.177609 C228.333474,434.177609 237.017263,436.178451 249.044211,428.166667" id="Fill-10" fill="#002344"></path>
                <path d="M216.021895,207.972222 C165.720421,207.972222 124.812632,248.876263 124.812632,299.135522 C124.812632,349.439394 165.720421,390.351852 216.021895,390.351852 C266.310737,390.351852 307.231158,349.439394 307.231158,299.135522 C307.231158,248.876263 266.310737,207.972222 216.021895,207.972222" id="Fill-11" fill="#002344"></path>
                <path d="M300.642526,299.149832 C300.642526,345.882155 262.757895,383.772727 216.021895,383.772727 C169.264,383.772727 131.386947,345.882155 131.386947,299.149832 C131.386947,252.426768 169.264,214.542088 216.021895,214.542088 C262.757895,214.542088 300.642526,252.426768 300.642526,299.149832" id="Fill-12" fill="#FFFFFF"></path>
                <path d="M283.140211,316.654882 C283.140211,353.725589 253.093053,383.772727 216.021895,383.772727 C178.944,383.772727 148.898526,353.725589 148.898526,316.654882 C148.898526,279.613636 178.944,249.558923 216.021895,249.558923 C253.093053,249.558923 283.140211,279.613636 283.140211,316.654882" id="Fill-13" fill="#AB9157"></path>
                <path d="M260.542316,363.171717 C257.174737,360.526094 252.319158,355.803872 251.459368,349.984007 C251.376,349.462963 251.329684,348.948653 251.282526,348.426768 C268.480842,341.212963 283.008,328.807239 292.826105,312.85101 C289.137684,333.622054 277.210105,351.555556 260.542316,363.171717 L260.542316,363.171717 Z M139.188211,312.79798 C149.020632,328.76936 163.541053,341.205387 180.768842,348.426768 C180.708211,348.948653 180.669474,349.462963 180.576842,349.984007 C179.711158,355.825758 174.886737,360.541246 171.496421,363.186027 C154.805053,351.555556 142.869895,333.575758 139.188211,312.79798 L139.188211,312.79798 Z M157.174737,247.987374 C153.661474,267.239899 161.663158,285.41835 169.002105,302.010101 C174.103579,313.563973 178.974316,324.689394 180.538105,335.929293 C160.412632,325.877946 145.078737,307.453704 139.386947,284.374579 C142.034526,270.612795 148.322526,258.138047 157.174737,247.987374 L157.174737,247.987374 Z M239.733053,340.490741 C233.948632,342.362795 227.897263,343.566498 221.660632,344.01936 L221.660632,221.367003 C234.155789,222.248316 245.861053,226.089226 256.054737,232.207912 C271.557053,254.573232 262.834526,274.522727 252.718316,297.455387 C246.658526,311.218013 240.430316,325.372054 239.733053,340.490741 L239.733053,340.490741 Z M221.660632,355.304714 C228.103579,354.9133 234.385684,353.87963 240.430316,352.222222 C241.688421,359.491582 246.159158,365.25 250.355368,369.212963 C241.557895,373.537879 231.892211,376.23569 221.660632,376.972222 L221.660632,355.304714 L221.660632,355.304714 Z M191.621895,352.222222 C197.644632,353.87963 203.935158,354.9133 210.376421,355.304714 L210.376421,376.972222 C200.16,376.23569 190.457263,373.537879 181.697684,369.220539 C185.886316,365.25 190.357053,359.491582 191.621895,352.222222 L191.621895,352.222222 Z M175.983158,232.207912 C186.170105,226.089226 197.874526,222.248316 210.376421,221.367003 L210.376421,344.03367 C204.141474,343.596801 198.104421,342.416667 192.313263,340.62963 C191.660632,325.464646 185.425684,311.272727 179.311158,297.455387 C169.210947,274.530303 160.481684,254.573232 175.983158,232.207912 L175.983158,232.207912 Z M292.642526,284.460438 C287.027368,307.04798 271.557053,325.472222 251.522526,335.646465 C253.124211,324.505892 257.987368,313.487374 263.050105,302.010101 C270.368,285.394781 278.360421,267.239899 274.862316,247.987374 C283.737263,258.175926 289.996632,270.659091 292.642526,284.460438 L292.642526,284.460438 Z M216.021895,207.972222 C165.720421,207.972222 124.812632,248.876263 124.812632,299.135522 C124.812632,349.439394 165.720421,390.351852 216.021895,390.351852 C266.310737,390.351852 307.231158,349.439394 307.231158,299.135522 C307.231158,248.876263 266.310737,207.972222 216.021895,207.972222 L216.021895,207.972222 Z" id="Fill-14" fill="#002344"></path>
                <path d="M250.293895,94.4890572 L216.130526,54.4132997 L183.438316,93.9638047 C175.116632,101.56229 157.197474,121.907407 152.549895,159.653199 C148.017684,196.31734 171.371789,232.11532 171.371789,232.11532 L179.788632,223.12963 L219.297684,223.12963 L252.218947,226.53367 L259.2,227.93771 C259.2,227.93771 279.411368,196.148148 279.411368,158.947811 C279.411368,122.030303 260.304,102.306397 250.293895,94.4890572" id="Fill-15" fill="#002344"></path>
                <path d="M269.930947,162.996633 C269.930947,143.460438 261.984,127.535354 253.408842,118.073232 C253.408842,118.073232 253.147789,123.632155 243.797053,117.406566 C235.735579,111.878788 226.255158,108.658249 216.076632,108.658249 C205.836632,108.658249 196.356211,111.901515 188.287158,117.445286 C179.265684,123.579125 178.828632,118.073232 178.828632,118.073232 C170.283789,127.535354 162.321684,143.460438 162.321684,162.996633 C162.321684,179.204545 166.287158,187.209596 167.674947,189.478956 C175.729684,210.141414 194.353684,224.647306 216.076632,224.647306 C237.545263,224.647306 255.984842,210.448653 264.184421,190.138047 C264.668632,189.47138 269.930947,181.688552 269.930947,162.996633" id="Fill-16" fill="#FFFFFF"></path>
                <path d="M236.371368,207.098485 C236.295579,207.005892 236.226526,206.882997 236.181895,206.78367 C236.181895,206.78367 230.849684,196.776936 239.609263,189.853535 C239.609263,189.853535 259.468632,194.001684 259.912421,167.711279 C259.912421,167.711279 259.468632,164.928451 262.229053,159.400673 C262.229053,159.400673 257.128421,154.76936 246.082526,163.087542 C234.967579,171.376263 229.000421,194.921717 222.987789,189.393939 C217.050105,183.912458 219.206737,153.244108 216.16,152.10101 L216.045474,152.10101 C212.969263,153.244108 215.141053,183.912458 209.219368,189.393939 C203.212632,194.921717 197.191579,171.376263 186.115368,163.087542 C175.047579,154.76936 169.969684,159.400673 169.969684,159.400673 C172.754526,164.928451 172.262737,167.711279 172.262737,167.711279 C172.754526,194.001684 192.603789,189.853535 192.603789,189.853535 C201.364211,196.776936 196.063158,206.829125 196.063158,206.829125 C196.010947,206.920875 195.948632,207.036195 195.888,207.127946 C172.186105,181.688552 158.417684,185.147306 165.221053,213.638047 C171.894737,241.608586 197.514105,361.768519 201.626105,389.638889 C201.025684,414.679293 198.149895,423.627104 197.376,425.590067 L194.812632,430.728114 L197.659789,436.439394 C202.154105,442.978956 205.291789,450.347643 206.389053,453.153199 L216.183579,477.935185 L225.818105,453.208754 C226.992,450.347643 230.121263,442.978956 234.624,436.439394 L237.591579,431.010943 L234.885053,425.590067 C234.140632,423.711279 231.308632,415.093434 230.657684,390.919192 C234.048,365.931818 260.241684,242.106902 267.038316,213.638047 C273.819789,185.162458 260.058947,181.688552 236.371368,207.098485" id="Fill-17" fill="#002344"></path>
                <path d="M200.053053,332.372054 C191.561263,287.649832 184.857263,254.573232 179.442526,230.590067 C175.322947,212.257576 186.323368,219.587542 192.236632,231.057239 L200.053053,332.372054" id="Fill-18" fill="#D12138"></path>
                <path d="M232.198737,332.372054 C240.704842,287.649832 247.393684,254.573232 252.825263,230.590067 C256.952421,212.257576 245.929263,219.587542 239.978105,231.057239 L232.198737,332.372054" id="Fill-19" fill="#D12138"></path>
                <path d="M186.621474,180.936869 C184.926316,180.469697 183.952,178.728956 184.405053,177.065657 C184.604632,176.39899 185.010526,175.869529 185.531789,175.48569 C184.405053,174.236532 183.109053,172.962963 181.536842,171.851852 C181.536842,171.851852 178.752,184.763468 190.294737,183.391414 C190.294737,183.391414 189.927579,182.240741 189.038316,180.591751 C188.325053,180.999158 187.480421,181.167508 186.621474,180.936869" id="Fill-20" fill="#D12138"></path>
                <path d="M250.709053,171.851852 C249.142737,172.955387 247.846737,174.236532 246.711579,175.48569 C247.225263,175.877104 247.616842,176.39899 247.846737,177.057239 C248.307368,178.72138 247.287579,180.469697 245.614316,180.936869 C244.756211,181.167508 243.897263,181.013468 243.182316,180.607744 C242.332632,182.240741 241.955368,183.391414 241.955368,183.391414 C253.500632,184.763468 250.709053,171.851852 250.709053,171.851852" id="Fill-21" fill="#D12138"></path>
                <path d="M221.530105,348.941077 C225.196632,279.874579 230.726737,230.965488 230.726737,224.862795 C230.726737,222.670034 230.466526,219.878788 229.561263,216.81229 L225.526737,229.946128 L224.298105,206.72138 C222.282105,204.11532 219.535158,201.531145 216.053053,199.008418 L215.852632,199.008418 C212.364632,201.508418 209.978105,204.11532 207.945263,206.72138 L206.734316,229.946128 L202.667789,216.797138 C201.808,219.878788 201.525895,222.670034 201.525895,224.862795 C201.525895,230.965488 207.017263,279.874579 210.683789,348.941077 C214.334316,418.006734 205.798737,430.841751 205.798737,430.841751 C210.760421,438.042088 216.130526,450.806397 216.130526,450.806397 C216.130526,450.806397 221.484632,438.042088 226.454737,430.841751 C226.454737,430.841751 217.902316,418.006734 221.530105,348.941077" id="Fill-22" fill="#D12138"></path>
                <path d="M407.008,251.43771 C406.993684,228.589226 394.176,202.643098 358.270316,198.310606 C355.647158,197.996633 353.070316,197.835859 350.600421,197.835859 C319.626947,197.835859 302.038737,224.37963 292.027789,254.105219 C297.306947,243.60101 305.413895,232.545455 318.230737,221.136364 C351.997474,191.104377 397.075368,213.813973 397.075368,253.66835 C397.075368,279.15404 387.532632,294.113636 380.638316,301.611111 C398.571789,290.47138 407.032421,269.968855 407.008,251.43771" id="Fill-23" fill="#D12138"></path>
                <path d="M113.523368,221.136364 C126.584421,232.760101 134.784842,244.022727 140.047158,254.703704 C130.090947,224.732323 112.441263,197.835859 81.1528421,197.835859 C78.6913684,197.835859 76.1136842,197.996633 73.4896842,198.310606 C37.5856842,202.63468 24.7595789,228.580808 24.7452632,251.421717 C24.7208421,269.968855 33.1907368,290.48569 51.1309474,301.619529 C44.2433684,294.121212 34.6863158,279.169192 34.6863158,253.66835 C34.6863158,213.813973 79.7574737,191.104377 113.523368,221.136364" id="Fill-24" fill="#D12138"></path>
            </g>
        </g>
    </g>
</svg>