<?xml version="1.0" encoding="UTF-8" standalone="no"?>
<svg width="500px" height="500px" viewBox="0 0 500 500" version="1.1" xmlns="http://www.w3.org/2000/svg" xmlns:xlink="http://www.w3.org/1999/xlink">
    <!-- Generator: Sketch 43.2 (39069) - http://www.bohemiancoding.com/sketch -->
    <title>DET</title>
    <desc>Created with Sketch.</desc>
    <defs></defs>
    <g id="Page-1" stroke="none" stroke-width="1" fill="none" fill-rule="evenodd">
        <g id="DET">
            <g id="Page-1">
                <path d="M496.815574,248.405738 C496.815574,385.598361 385.594262,496.811475 248.409836,496.811475 C111.213115,496.811475 0,385.598361 0,248.405738 C0,111.213115 111.213115,-1.42108547e-14 248.409836,-1.42108547e-14 C385.594262,-1.42108547e-14 496.815574,111.213115 496.815574,248.405738" id="Fill-1" fill="#B4B2B2"></path>
                <path d="M489.683197,248.405738 C489.683197,381.655738 381.658607,489.684426 248.408607,489.684426 C115.15041,489.684426 7.12991803,381.655738 7.12991803,248.405738 C7.12991803,115.147541 115.15041,7.12295082 248.408607,7.12295082 C381.658607,7.12295082 489.683197,115.147541 489.683197,248.405738" id="Fill-3" fill="#006AB6"></path>
                <path d="M454.155738,248.405738 C454.155738,362.032787 362.040984,454.143443 248.405738,454.143443 C134.770492,454.143443 42.6598361,362.032787 42.6598361,248.405738 C42.6598361,134.77459 134.770492,42.6639344 248.405738,42.6639344 C362.040984,42.6639344 454.155738,134.77459 454.155738,248.405738" id="Fill-5" fill="#ED174B"></path>
                <path d="M248.407787,442.344672 C166.231557,442.344672 95.8790984,390.95123 67.682377,318.639754 C102.161885,365.832377 170.227459,398.029098 248.407787,398.029098 C326.588115,398.029098 394.653689,365.832377 429.137295,318.639754 C400.940574,390.95123 330.584016,442.344672 248.407787,442.344672 M248.407787,54.4594262 C330.584016,54.4594262 400.944672,105.856967 429.141393,178.172541 C394.653689,130.979918 326.592213,98.7790984 248.407787,98.7790984 C170.227459,98.7790984 102.161885,130.979918 67.6782787,178.172541 C95.875,105.856967 166.231557,54.4594262 248.407787,54.4594262 M54.6127049,254.459426 L92.477459,254.459426 L92.477459,242.352869 L54.6127049,242.352869 C54.7561475,237.770902 55.0020492,233.213525 55.4569672,228.721721 C68.875,161.160246 150.264344,109.033197 248.407787,109.033197 C346.543033,109.033197 427.940574,161.160246 441.362705,228.72582 C441.813525,233.217623 442.067623,237.770902 442.202869,242.352869 L404.338115,242.352869 L404.338115,254.459426 L442.202869,254.459426 C442.067623,259.041393 441.813525,263.594672 441.362705,268.090574 C427.940574,335.647951 346.543033,387.779098 248.407787,387.779098 C150.264344,387.779098 68.875,335.652049 55.4569672,268.090574 C55.0020492,263.594672 54.7561475,259.041393 54.6127049,254.459426 M248.407787,42.6561475 C134.961066,42.6561475 42.6618852,134.955328 42.6618852,248.406148 C42.6618852,361.852869 134.961066,454.147951 248.407787,454.147951 C361.858607,454.147951 454.157787,361.852869 454.157787,248.406148 C454.157787,134.955328 361.858607,42.6561475 248.407787,42.6561475" id="Fill-7" fill="#FEFEFE"></path>
                <polygon id="Fill-9" fill="#FEFEFE" points="161.467213 319.142213 176.020492 319.142213 176.020492 253.777459 161.47541 253.777459"></polygon>
                <path d="M217.229918,253.811066 L216.791393,253.806967 C212.70123,253.778279 197.844672,253.720902 194.992213,253.782377 L194.25041,253.823361 C189.861066,253.823361 187.070082,255.905328 186.385656,259.688115 C186.262705,260.302869 186.262705,260.77418 186.262705,260.77418 C186.25041,260.913525 185.258607,273.163525 186.463525,276.618443 C188.414344,282.241393 192.95123,284.327459 197.131557,285.618443 C197.266803,285.659426 197.410246,285.70041 197.561885,285.737295 C197.828279,285.811066 198.102869,285.884836 198.369262,285.995492 C198.832377,286.179918 199.152049,286.429918 199.344672,286.741393 L199.406148,310.278279 L187.397951,310.315164 L187.443033,319.020082 L203.238115,319.040574 L203.246311,319.040574 C208.729918,318.79877 212.512705,316.397131 213.914344,312.253689 C214.307787,309.056967 214.365164,287.143033 214.045492,282.565164 C213.947131,280.839754 213.156148,279.454508 211.561885,278.196311 C210.938934,277.716803 210.172541,277.220902 209.197131,276.671721 C208.332377,276.225 207.402049,275.765984 206.504508,275.347951 C203.086475,273.679918 199.217623,271.790574 199.217623,267.438115 L199.234016,263.716803 L210.656148,263.716803 C213.00041,263.716803 214.873361,262.573361 216.086475,260.405328 C217.004508,258.745492 217.254508,257.089754 217.25041,256.99959 C217.352869,255.921721 217.295492,254.913525 217.254508,254.24959 L217.229918,253.811066 Z" id="Fill-11" fill="#FEFEFE"></path>
                <path d="M278.942623,268.495082 C279.012295,266.769672 279.155738,265.478689 279.393443,264.454098 L279.655738,264.2 C280.303279,264.101639 280.938525,264.056557 281.709016,264.056557 L282,264.060656 C286.934426,264.122131 287.07377,265.601639 287.07377,274.527869 L287.07377,301.822951 C287.07377,302.634426 287.07377,303.404918 287.020492,304.216393 C286.983607,304.995082 286.897541,305.732787 286.754098,306.421311 L286.487705,306.679508 C285.627049,306.806557 284.790984,306.87623 283.893443,306.87623 C282.086066,306.87623 280.82377,306.478689 280.040984,305.671311 C278.885246,304.478689 278.848361,302.486885 278.922131,300.179508 L278.922131,272.613934 C278.922131,272.613934 278.893443,269.552459 278.942623,268.495082 M283.741803,253.757377 C280.467213,253.757377 277.04918,253.863934 274.29918,254.642623 C267.172131,256.359836 263.709016,261.118033 263.709016,269.195902 L263.709016,308.081148 C263.709016,318.040164 270.836066,320.081148 281.532787,320.081148 C294.491803,320.081148 301.930328,315.503279 301.930328,307.527869 L301.95082,266.99918 C301.95082,253.757377 293.512295,253.757377 283.741803,253.757377" id="Fill-13" fill="#FEFEFE"></path>
                <path d="M335.670082,281.555328 C328.719262,256.387295 317.567623,253.579918 312.94877,253.579918 C311.747951,253.579918 311.022541,253.772541 310.993852,253.780738 L310.645492,253.875 L310.641393,319.190574 L325.375,319.206967 L325.375,292.932377 L335.641393,319.206967 L350.616803,319.206967 L350.616803,253.842213 L335.670082,253.842213 L335.670082,281.555328 Z" id="Fill-15" fill="#FEFEFE"></path>
                <path d="M137.878689,282.780328 L129.690164,282.788525 L129.690164,263.804918 C129.690164,263.804918 134.140984,263.722951 134.804918,263.804918 C136.419672,264.018033 137.915574,264.640984 137.915574,266.583607 C137.915574,267.214754 137.878689,282.780328 137.878689,282.780328 M143.759836,253.755738 L107.034426,253.809016 L106.583607,253.809016 L106.563115,254.251639 C106.559016,254.329508 106.251639,262.034426 114.841803,263.821311 L114.841803,319.161475 L129.89918,319.161475 L129.89918,291.35 L142.567213,291.35 C149.255738,291.35 153.091803,286.948361 153.091803,279.284426 L153.12459,276.940164 C153.12459,258.42377 152.37459,254.714754 143.759836,253.755738" id="Fill-17" fill="#FEFEFE"></path>
                <path d="M259.190574,253.860656 L225.125,253.860656 L225.125,264.135246 L234.834016,264.135246 L234.834016,319.258197 L249.80123,319.245902 L249.817623,264.077869 C250.002049,264.086066 250.182377,264.090164 250.358607,264.090164 C253.034836,264.090164 255.165984,263.27459 256.694672,261.663934 C259.411885,258.79918 259.219262,254.491803 259.211066,254.307377 L259.190574,253.860656 Z" id="Fill-19" fill="#FEFEFE"></path>
                <path d="M390.279918,253.811066 L389.841393,253.806967 C385.75123,253.778279 370.894672,253.720902 368.042213,253.782377 L367.30041,253.823361 C362.911066,253.823361 360.120082,255.905328 359.439754,259.688115 C359.316803,260.302869 359.316803,260.77418 359.316803,260.77418 C359.304508,260.913525 358.308607,273.163525 359.513525,276.618443 C361.464344,282.241393 366.00123,284.327459 370.177459,285.618443 C370.316803,285.659426 370.460246,285.70041 370.611885,285.737295 C370.878279,285.811066 371.152869,285.884836 371.419262,285.995492 C371.882377,286.179918 372.206148,286.429918 372.39877,286.741393 L372.456148,310.278279 L360.447951,310.315164 L360.493033,319.020082 L376.288115,319.040574 L376.30041,319.040574 C381.779918,318.79877 385.562705,316.397131 386.968443,312.253689 C387.357787,309.056967 387.415164,287.143033 387.09959,282.565164 C386.997131,280.839754 386.206148,279.454508 384.611885,278.196311 C383.988934,277.716803 383.222541,277.220902 382.25123,276.671721 C381.382377,276.225 380.452049,275.765984 379.558607,275.347951 C376.136475,273.679918 372.271721,271.790574 372.271721,267.438115 L372.284016,263.716803 L383.706148,263.716803 C386.05041,263.716803 387.923361,262.573361 389.136475,260.405328 C390.054508,258.745492 390.304508,257.089754 390.30041,256.99959 C390.402869,255.921721 390.34959,254.913525 390.304508,254.24959 L390.279918,253.811066 Z" id="Fill-21" fill="#FEFEFE"></path>
                <path d="M256.67623,186.768033 L259.155738,186.759836 L259.54918,186.768033 C263.356557,186.829508 264.77459,186.85 264.67623,193.563115 C264.688525,198.907377 264.67623,199.247541 264.57377,201.886885 L264.561475,202.386885 C264.57377,203.157377 264.245902,204.009836 263.75,204.513934 C263.405738,204.866393 262.995902,205.042623 262.532787,205.042623 L256.67623,205.042623 L256.67623,186.768033 Z M256.635246,213.448361 L259.163934,213.448361 C261.594262,213.497541 265.672131,214.243443 265.672131,218.612295 C265.672131,220.698361 265.860656,227.231148 265.930328,229.686066 L265.959016,230.669672 C265.979508,231.034426 266.139344,234.231148 266.295082,234.837705 C267.336066,238.645082 270.29918,240.927869 274.922131,241.42377 L279.184426,241.42377 L279.184426,218.161475 C279.184426,216.165574 278.094262,213.370492 276.532787,211.370492 L276.221311,210.948361 C278.557377,208.32541 279.463115,205.677869 279.463115,201.640984 L279.483607,199.366393 C279.483607,181.30082 278.758197,177.677869 270.368852,176.751639 L242.090164,176.751639 L242.090164,240.542623 L256.635246,240.542623 L256.635246,213.448361 Z" id="Fill-23" fill="#FEFEFE"></path>
                <polygon id="Fill-25" fill="#FEFEFE" points="346.929508 176.74918 332.745082 176.74918 332.695902 240.507377 346.929508 240.515574"></polygon>
                <path d="M210.720082,240.603279 L225.318443,240.582787 L225.338934,186.693443 C225.523361,186.697541 225.695492,186.701639 225.871721,186.701639 C228.490574,186.701639 230.580738,185.906557 232.068443,184.332787 C234.711885,181.541803 234.523361,177.34918 234.511066,177.177049 L234.490574,176.746721 L201.24877,176.746721 L201.24877,186.763115 L210.720082,186.763115 L210.720082,240.603279 Z" id="Fill-27" fill="#FEFEFE"></path>
                <path d="M363.870082,240.603279 L378.480738,240.582787 L378.480738,186.693443 C378.665164,186.697541 378.845492,186.701639 379.013525,186.701639 C381.644672,186.701639 383.730738,185.902459 385.226639,184.328689 C387.870082,181.537705 387.681557,177.34918 387.673361,177.177049 L387.64877,176.746721 L354.406967,176.746721 L354.406967,186.763115 L363.870082,186.763115 L363.870082,240.603279 Z" id="Fill-29" fill="#FEFEFE"></path>
                <polygon id="Fill-31" fill="#FEFEFE" points="193.606148 230.288115 178.319262 230.288115 178.319262 214.788115 188.79877 214.788115 188.79877 200.906967 178.319262 200.906967 178.319262 186.546311 193.606148 186.546311 193.606148 176.75123 164.130738 176.75123 164.081557 240.509426 193.606148 240.509426"></polygon>
                <path d="M140.545492,230.288115 L132.467623,230.288115 L132.467623,186.75123 C137.471721,186.542213 138.533197,186.984836 138.615164,187.021721 C140.496311,187.763525 140.463525,191.259426 140.463525,191.34959 C140.992213,196.390574 140.59877,226.279918 140.545492,230.288115 M145.582377,176.75123 L109.22582,176.75123 L109.172541,177.140574 C109.147951,177.296311 108.709426,180.956148 111.070082,183.75123 C112.565984,185.529918 114.852869,186.521721 117.881557,186.714344 L117.881557,240.431557 L144.955328,240.431557 C151.131557,240.431557 155.279098,235.185656 155.279098,227.378279 L155.287295,197.788115 C155.29959,181.464344 155.303689,177.075 145.582377,176.75123" id="Fill-33" fill="#FEFEFE"></path>
                <path d="M302.114344,191.177049 C302.184016,189.488525 302.327459,188.22623 302.561066,187.218033 L302.823361,186.97623 C303.458607,186.877869 304.093852,186.832787 304.856148,186.832787 L305.147131,186.836885 C310.044672,186.894262 310.184016,188.34918 310.184016,197.082787 L310.184016,223.791803 C310.184016,224.590984 310.184016,225.345082 310.134836,226.131967 C310.093852,226.898361 310.007787,227.619672 309.868443,228.295902 L309.602049,228.545902 C308.74959,228.672951 307.921721,228.738525 307.02418,228.738525 C305.233197,228.738525 303.983197,228.34918 303.204508,227.562295 C302.056967,226.390164 302.020082,224.439344 302.093852,222.185246 L302.093852,195.209836 C302.093852,195.209836 302.065164,192.213934 302.114344,191.177049 M306.876639,176.75082 C303.626639,176.75082 300.237295,176.853279 297.507787,177.619672 C290.434016,179.3 286.995492,183.959836 286.995492,191.861475 L286.995492,229.918852 C286.995492,239.664754 294.069262,241.660656 304.684016,241.660656 C317.54877,241.660656 324.92582,237.181148 324.92582,229.377869 L324.946311,189.713934 C324.946311,176.75082 316.569262,176.75082 306.876639,176.75082" id="Fill-35" fill="#FEFEFE"></path>
            </g>
        </g>
    </g>
</svg>