<?xml version="1.0" encoding="UTF-8"?>
<svg width="500px" height="500px" viewBox="0 0 500 500" version="1.1" xmlns="http://www.w3.org/2000/svg" xmlns:xlink="http://www.w3.org/1999/xlink">
    <!-- Generator: Sketch 55.2 (78181) - https://sketchapp.com -->
    <title>HOU</title>
    <desc>Created with Sketch.</desc>
    <defs>
        <polygon id="path-1" points="0.0462962963 0.000771604938 377.175926 0.000771604938 377.175926 499.953704 0.0462962963 499.953704"></polygon>
    </defs>
    <g id="HOU" stroke="none" stroke-width="1" fill="none" fill-rule="evenodd">
        <g id="HRockets_Primary_Icon_rgb_onBlkBkgd" transform="translate(61.000000, 0.000000)">
            <g id="Group-3">
                <mask id="mask-2" fill="white">
                    <use xlink:href="#path-1"></use>
                </mask>
                <g id="Clip-2"></g>
                <path d="M334.462963,264.692901 C323.069444,273.684414 292.741512,280.628858 252.706019,284.19213 L253.278549,236.066358 C299.094907,242.041667 336.282407,248.740741 336.282407,259.73534 C336.282407,261.439043 335.656636,263.092593 334.462963,264.692901 L334.462963,264.692901 Z M212.76929,286.488426 C205.102623,286.715278 197.253858,286.83642 189.237654,286.83642 C179.798611,286.83642 170.587963,286.674383 161.669753,286.364969 L162.029321,275.208333 C161.1875,246.95216 162.945988,211.523148 163.520833,173.679012 C186.43287,176.329475 214.074074,182.862654 213.596451,198.984568 L212.76929,286.488426 Z M221.93287,115.378086 C223.798611,129.223765 219.828704,139.674383 212.685957,147.569444 C199.912809,159.146605 179.893519,164.422068 163.613426,166.815586 C163.89892,140.688272 163.51466,113.560957 161.248457,86.9498457 C192.667438,90.304784 219.628086,98.2337963 221.93287,115.378086 L221.93287,115.378086 Z M122.236111,283.844136 C73.3078704,279.125772 40.2445988,269.192901 40.2445988,256.641975 C40.2445988,255.727623 40.5115741,254.849537 41.0216049,254.001543 C52.4853395,245.934414 87.6412037,240.847994 122.847222,235.56713 C122.798611,249.361883 122.592593,264.403549 122.145062,280.954475 L122.236111,283.844136 Z M253.323302,232.147377 L253.854938,187.396605 C253.800154,166.39429 231.974537,162.874228 215.854938,163.138889 C226.665123,159.561728 239.675154,153.452932 249.100309,143.270062 C258.979938,134.146605 266.023148,121.296296 264.807099,103.263889 C262.751543,72.9158951 224.801698,57.7993827 161.89429,63.8996914 C160.861883,64.0007716 159.834105,64.1041667 158.810185,64.2114198 C155.856481,41.7847222 151.267747,20.0601852 144.268519,0.000771604938 L141.156636,3.09645062 C132.793981,29.033179 127.796296,49.720679 124.891204,68.912037 C87.3441358,75.382716 61.0401235,83.9915123 61.0401235,83.9915123 L57.9405864,87.0895062 C57.9405864,87.0895062 88.3009259,84.3356481 122.905864,84.8233025 C119.05787,124.161265 122.976852,161.528549 122.85571,232.117284 C66.9567901,230.542438 17.904321,239.830247 5.91049383,254.760031 C1.9683642,258.007716 -0.127314815,261.574846 0.00617283951,265.401235 C0.611111111,282.510802 51.441358,298.22608 122.875772,304.226852 L125.918981,401.250772 L129.022377,398.145062 L134.042438,332.353395 C134.0625,331.277006 134.190586,330.362654 134.392747,329.589506 C135.891975,329.791667 137.3125,331.708333 137.3125,335.052469 L139.520062,421.70216 L142.631944,418.604938 L147.957562,348.084877 C147.942901,346.513117 148.117284,345.216049 148.410494,344.179784 C149.922068,344.442901 151.315586,346.658951 151.200617,350.630401 L153.662809,440.964506 L156.760802,437.868827 L161.020062,306.400463 C169.233025,306.658951 177.609568,306.802469 186.135802,306.802469 C195.165895,306.802469 204.058642,306.646605 212.770833,306.357253 L217.084877,443.421296 L220.186728,440.325617 L223.871142,368.587963 C223.878858,367.151235 224.039352,365.951389 224.302469,364.979938 C225.712191,365.301698 227.007716,367.402006 226.999228,371.104938 L230.703704,471.709877 L233.79784,468.614198 L237.554784,381.695216 C237.597222,380.454475 237.779321,379.406636 238.058642,378.540123 C239.847222,378.520062 241.652006,380.655093 241.73534,384.804784 L244.824846,500 L247.92284,496.891975 L252.440586,303.994599 C313.491512,298.666667 359.837963,286.35108 371.322531,272.201389 C375.136574,268.998457 377.175926,265.678241 377.175926,262.305556 C376.316358,243.520833 319.842593,229.010802 253.323302,232.147377 L253.323302,232.147377 Z" id="Fill-1" fill="#9EA2A2" mask="url(#mask-2)"></path>
            </g>
            <path d="M252.705247,284.191358 L253.320216,232.563272 C300.530864,238.652006 339.377315,245.417438 339.377315,256.641204 C339.377315,269.510031 304.009259,279.626543 252.705247,284.191358 M161.668981,286.364198 L162.030864,275.209877 C161.162809,246.101852 163.058642,209.385802 163.572531,170.252315 C186.996914,172.664352 217.191358,179.037809 216.689815,195.888117 L215.835648,286.400463 C207.210648,286.688272 198.321759,286.837963 189.236883,286.837963 C179.79784,286.837963 170.587963,286.675926 161.668981,286.364198 M40.2438272,256.641204 C40.2438272,245.04784 83.0717593,238.918981 125.950617,232.472222 C125.904321,246.263889 125.697531,261.300926 125.252315,277.841821 L125.450617,284.145062 C74.7600309,279.55787 40.2438272,269.465278 40.2438272,256.641204 M225.026235,112.283951 C230.141204,150.243827 191.422068,162.727623 163.613426,166.81713 C163.910494,139.5625 163.486111,111.217593 160.950617,83.5092593 C193.79784,86.6520062 222.638117,94.5246914 225.026235,112.283951 M377.177469,262.307099 C376.315586,243.520062 319.844136,229.012346 253.324074,232.146605 L253.854167,187.398148 C253.779321,159.70679 215.864198,162.404321 203.078704,164.099537 C217.996914,161.402778 267.884259,148.944444 264.807099,103.263889 C262.751543,72.9151235 224.800926,57.7986111 161.893519,63.8996914 C160.861883,64.0007716 159.833333,64.1057099 158.810185,64.2106481 C155.85571,41.7839506 151.266975,20.0594136 144.267747,0 C135.516975,27.1273148 130.44213,48.5138889 127.599537,68.4521605 C88.6095679,74.962963 61.0393519,83.9930556 61.0393519,83.9930556 C61.0393519,83.9930556 91.3996914,81.2391975 126.005401,81.7291667 C122.096451,121.655864 126.195216,159.550926 125.952932,232.215278 C59.8256173,229.886574 2.41898148,242.760802 3.11342593,262.307099 C3.70601852,279.415895 54.5408951,295.13966 125.983025,301.142747 L129.022377,398.14429 L134.042438,332.354938 C134.193673,324.195216 140.411265,324.947531 140.411265,331.956019 L142.631173,418.606481 L147.95679,348.084105 C147.873457,338.568673 154.530093,339.017747 154.304012,347.536265 L156.762346,437.868827 L161.122685,303.222994 C170.286265,303.546296 179.674383,303.716821 189.236883,303.716821 C198.266975,303.716821 207.155864,303.5625 215.868056,303.275463 L220.188272,440.324846 L223.87037,368.587191 C223.92284,359.441358 230.112654,359.918981 230.092593,368.01466 L233.797068,468.613426 L237.556327,381.694444 C237.841821,373.153549 244.670525,373.533951 244.824074,381.694444 L247.924383,496.891204 L252.503086,301.286265 L252.503086,301.167438 C324.742284,295.184414 377.177469,279.444444 377.177469,262.307099" id="Fill-4" fill="#CE1141"></path>
        </g>
    </g>
</svg>