<?xml version="1.0" encoding="UTF-8" standalone="no"?>
<svg width="500px" height="500px" viewBox="0 0 500 500" version="1.1" xmlns="http://www.w3.org/2000/svg" xmlns:xlink="http://www.w3.org/1999/xlink">
    <!-- Generator: Sketch 39.1 (31720) - http://www.bohemiancoding.com/sketch -->
    <title>SA</title>
    <desc>Created with Sketch.</desc>
    <defs></defs>
    <g id="NBA" stroke="none" stroke-width="1" fill="none" fill-rule="evenodd">
        <g id="SA">
            <g id="SASpurs_P_pms" transform="translate(48.000000, 0.000000)">
                <polyline id="Fill-1" fill="#FFFFFF" points="350.115754 0.388667992 319.086365 55.3250497 313.691074 99.2375746 258.336108 197.720676 185.842985 197.720676 239.962069 102.168986 239.962069 0.388667992 183.767261 0.388667992 154.05535 54.8280318 149.002365 99.2375746 70.1039507 239.714712 83.3354483 272.82505 132.459261 272.82505 110.100946 329.399602 68.2103251 284.15507 73.1279803 350.565606 0.604009852 353.605368 58.3143153 394.159046 17.2088079 455.327038 83.5454089 433.67992 110.874118 499.294235 131.743803 427.785288 205.725557 446.812127 157.954049 391.663022 216.733064 343.161034 156.060424 346.923459 221.724355 272.82505 308.12065 272.82505 403.806956 103.427435 403.806956 0.388667992 350.115754 0.388667992"></polyline>
                <polyline id="Fill-4" fill="#0F1216" points="350.115754 0.388667992 319.086365 55.3250497 313.691074 99.2375746 258.336108 197.720676 185.842985 197.720676 239.962069 102.168986 239.962069 0.388667992 183.767261 0.388667992 154.05535 54.8280318 149.002365 99.2375746 70.1039507 239.714712 83.3354483 272.82505 132.459261 272.82505 110.100946 329.399602 68.2103251 284.15507 73.1279803 350.565606 0.604009852 353.605368 58.3143153 394.159046 17.2088079 455.327038 83.5454089 433.67992 110.874118 499.294235 131.743803 427.785288 205.725557 446.812127 157.954049 391.663022 216.733064 343.161034 156.060424 346.923459 221.724355 272.82505 308.12065 272.82505 403.806956 103.427435 403.806956 0.388667992 350.115754 0.388667992"></polyline>
                <polyline id="Fill-5" fill="#C1C9CA" points="338.501251 49.3916501 364.707517 49.3916501 382.953192 15.1441352 357.680305 15.1441352 338.501251 49.3916501"></polyline>
                <polygon id="Stroke-6" stroke="#0F1216" stroke-width="0.762425447" points="338.501251 49.3916501 364.707517 49.3916501 382.953192 15.1441352 357.680305 15.1441352"></polygon>
                <polyline id="Fill-7" fill="#C1C9CA" points="173.692138 49.4304175 201.93134 49.3727634 219.90934 15.1441352 192.714966 15.1600398 173.692138 49.4304175"></polyline>
                <polygon id="Stroke-8" stroke="#0F1216" stroke-width="0.762425447" points="173.692138 49.4304175 201.93134 49.3727634 219.90934 15.1441352 192.714966 15.1600398"></polygon>
                <polyline id="Fill-9" fill="#C1C9CA" points="166.995291 92.5318091 192.412463 92.6013917 194.79467 63.2077535 170.162611 63.2077535 166.995291 92.5318091"></polyline>
                <polygon id="Stroke-10" stroke="#0F1216" stroke-width="0.762425447" points="166.995291 92.5318091 192.412463 92.6013917 194.79467 63.2077535 170.162611 63.2077535"></polygon>
                <polyline id="Fill-11" fill="#C1C9CA" points="331.229251 92.5318091 356.689212 92.6013917 359.075399 63.2077535 334.431399 63.2077535 331.229251 92.5318091"></polyline>
                <polygon id="Stroke-12" stroke="#0F1216" stroke-width="0.762425447" points="331.229251 92.5318091 356.689212 92.6013917 359.075399 63.2077535 334.431399 63.2077535"></polygon>
                <path d="M100.500473,398.94334 C94.0553793,398.94334 88.8511429,393.735586 88.8511429,387.310139 C88.8511429,380.863817 94.0553793,375.661034 100.500473,375.661034 C106.944571,375.661034 112.160749,380.863817 112.160749,387.310139 C112.160749,393.735586 106.944571,398.94334 100.500473,398.94334 L100.500473,398.94334 Z M325.791172,110.125249 L268.39531,211.019881 L130.701961,211.019881 L188.089862,110.125249 L161.098483,110.125249 L91.8473103,232.251491 L168.66602,232.251491 L110.411409,362.380716 L86.2967882,335.643141 L87.6461084,367.161034 L48.8103645,369.300199 L80.0895172,391.290258 L57.8048374,424.423459 L93.7518818,412.707753 L108.549626,448.248509 L119.853665,409.512922 L159.959123,419.818091 L134.064315,389.93837 L165.91066,363.647117 L116.75202,365.802187 L207.31867,232.251491 L284.269724,232.251491 L352.35467,110.125249 L325.791172,110.125249 L325.791172,110.125249 Z" id="Fill-13" fill="#C1C9CA"></path>
                <path d="M100.500473,398.94334 C94.0553793,398.94334 88.8511429,393.735586 88.8511429,387.310139 C88.8511429,380.863817 94.0553793,375.661034 100.500473,375.661034 C106.944571,375.661034 112.160749,380.863817 112.160749,387.310139 C112.160749,393.735586 106.944571,398.94334 100.500473,398.94334 L100.500473,398.94334 Z M325.791172,110.125249 L268.39531,211.019881 L130.701961,211.019881 L188.089862,110.125249 L161.098483,110.125249 L91.8473103,232.251491 L168.66602,232.251491 L110.411409,362.380716 L86.2967882,335.643141 L87.6461084,367.161034 L48.8103645,369.300199 L80.0895172,391.290258 L57.8048374,424.423459 L93.7518818,412.707753 L108.549626,448.248509 L119.853665,409.512922 L159.959123,419.818091 L134.064315,389.93837 L165.91066,363.647117 L116.75202,365.802187 L207.31867,232.251491 L284.269724,232.251491 L352.35467,110.125249 L325.791172,110.125249 L325.791172,110.125249 Z" id="Stroke-14" stroke="#0F1216" stroke-width="0.762425447"></path>
            </g>
        </g>
    </g>
</svg>