<?xml version="1.0" encoding="UTF-8" standalone="no"?>
<svg width="500px" height="500px" viewBox="0 0 500 500" version="1.1" xmlns="http://www.w3.org/2000/svg" xmlns:xlink="http://www.w3.org/1999/xlink">
    <!-- Generator: Sketch 39.1 (31720) - http://www.bohemiancoding.com/sketch -->
    <title>PHO</title>
    <desc>Created with Sketch.</desc>
    <defs></defs>
    <g id="NBA" stroke="none" stroke-width="1" fill="none" fill-rule="evenodd">
        <g id="PHO">
            <g id="PSuns_2nd_A_pms" transform="translate(0.000000, 78.000000)">
                <g id="Group-4">
                    <path d="M497.771536,35.3175 C496.691011,34.7325 495.354869,34.9378125 494.484082,35.8096875 C491.437266,38.865 486.337079,43.9565625 486.337079,43.9565625 C479.09176,51.1959375 467.273408,59.8246875 452.208801,59.8246875 C450.068352,59.8246875 447.892322,59.649375 445.731273,59.300625 C440.354869,58.44 435.096442,58.00875 430.108614,58.00875 C411.132022,58.00875 394.638577,64.0284375 378.206929,76.948125 C374.161049,80.1215625 368.441948,82.2553125 363.966292,82.2553125 C361.191011,82.2553125 359.178839,81.474375 358.015918,79.936875 C355.875468,77.1328125 355.097378,74.210625 355.634831,71.0015625 C356.45412,66.1096875 360.791199,58.0303125 376.859551,47.3146875 L377.505618,46.873125 C378.549625,46.1653125 378.985019,44.85375 378.580524,43.663125 C378.17603,42.474375 377.044944,41.6896875 375.779963,41.7778125 C371.134831,42.04875 363.377341,42.495 363.377341,42.495 C343.838015,43.6378125 323.84176,48.0834375 309.965356,72.5953125 C304.255618,82.6753125 298.925094,87.37125 293.164794,87.37125 C291.372659,87.37125 289.499064,86.9353125 287.419476,86.04375 C282.161049,83.7778125 277.270599,72.313125 278.386704,58.8759375 C279.246255,48.4575 285.28839,23.2321875 322.459738,14.1225 C323.273408,13.9228125 323.964419,13.363125 324.323034,12.594375 C324.676966,11.825625 324.66573,10.93875 324.302434,10.1803125 C321.307116,4.0734375 314.425094,0.9815625 303.846442,0.9815625 C295.837079,0.9815625 287.562734,2.7103125 282.616105,3.7453125 C281.572097,3.9609375 280.440075,4.1971875 279.784644,4.314375 C278.218165,3.519375 276.634831,2.833125 275.058989,2.263125 C271.386704,0.9515625 267.699438,0.285 264.104869,0.285 C245.235955,0.285 231.984082,17.9625 221.344569,32.1646875 C215.803371,39.5578125 210.570225,46.5459375 206.709738,47.6578125 C205.695693,47.9559375 204.937266,48.78 204.742509,49.81125 C204.553371,50.8415625 204.937266,51.90375 205.762172,52.5440625 C207.723783,54.076875 210.016854,54.8559375 212.572097,54.8559375 C213.308989,54.8559375 214.026217,54.795 214.727528,54.68625 C212.566479,59.188125 210.677903,64.86375 210.421348,70.5440625 C210.370787,71.565 210.88764,72.5334375 211.757491,73.0621875 C212.628277,73.5946875 213.724719,73.6003125 214.604869,73.0875 C218.512172,70.8103125 221.067416,70.335 222.521536,70.335 C223.340824,70.335 225.850187,70.335 226.024345,73.6303125 C226.269663,78.106875 221.742509,84.84375 212.628277,85.8328125 C211.425094,85.966875 210.339888,86.0334375 209.294944,86.0334375 C200.942884,86.0334375 194.398876,81.63375 189.274345,72.5953125 C175.401685,48.0834375 155.411049,43.6378125 135.870787,42.495 C135.870787,42.495 128.108614,42.04875 123.474719,41.7778125 C122.214419,41.685 121.073034,42.474375 120.662921,43.663125 C120.268727,44.85375 120.70412,46.1653125 121.749064,46.873125 L122.383895,47.3090625 C138.452247,58.0246875 142.794944,66.1096875 143.614232,71.0015625 C144.146067,74.210625 143.372659,77.1328125 141.237828,79.936875 C140.059925,81.474375 138.062734,82.2553125 135.27809,82.2553125 C130.796816,82.2553125 125.077715,80.1215625 121.042135,76.948125 C104.605805,64.0284375 88.1170412,58.00875 69.1460674,58.00875 C64.1535581,58.00875 58.8838951,58.44 53.5224719,59.300625 C51.3567416,59.649375 49.1750936,59.8246875 47.0449438,59.8246875 C31.9700375,59.8246875 20.161985,51.1959375 12.9166667,43.9565625 C12.9166667,43.9565625 7.81741573,38.865 4.76498127,35.8096875 C3.90449438,34.9378125 2.56273408,34.7325 1.47752809,35.3175 C0.392322097,35.8959375 -0.186329588,37.1221875 0.0543071161,38.3315625 L2.3071161,49.545 C11.1451311,93.43125 48.1207865,108.099375 61.6132959,110.053125 C73.9438202,111.852188 79.2490637,119.22 80.0271536,124.977188 C80.2930712,126.945937 79.3511236,131.232187 76.4213483,134.575312 C73.9747191,137.374687 70.7687266,138.794062 66.9129213,138.794062 C61.0299625,138.794062 53.911985,135.579375 45.7490637,129.222187 C44.9044944,128.571562 43.7677903,128.453438 42.8005618,128.925 C41.838015,129.402187 41.238764,130.381875 41.2546816,131.447812 C41.2640449,133.487812 41.2640449,136.87125 41.2640449,136.87125 C40.8745318,179.097188 93.590824,197.0475 105.066479,200.435625 L105.066479,283.33875 C105.066479,284.600625 105.896067,285.696563 107.104869,286.035937 L155.892322,299.78625 C177.122659,326.676562 209.192884,343.441875 244.22191,344.893125 C245.882022,344.964375 247.565543,345 249.214419,345 C249.214419,345 249.209738,345 249.214419,345 C285.504682,345 319.745318,327.959063 342.040262,300.09375 L392.134831,286.035937 C393.332397,285.696563 394.173221,284.604375 394.173221,283.33875 L394.173221,200.445937 C405.652622,197.067187 458.379213,179.19 457.979401,136.907812 C457.979401,136.907812 457.985019,133.4775 457.985019,131.432812 C457.985019,130.365938 457.38015,129.3975 456.417603,128.925 C455.466292,128.453438 454.329588,128.571562 453.488764,129.222187 C445.326779,135.579375 438.214419,138.794062 432.330524,138.794062 C428.470037,138.794062 425.274345,137.374687 422.822097,134.585625 C419.89794,131.232187 418.950375,126.945937 419.206929,124.988438 C420.0103,119.22 425.309925,111.8475 437.625468,110.053125 C451.123596,108.099375 488.103933,93.43125 496.941948,49.539375 L499.195693,38.3371875 C499.441011,37.126875 498.86236,35.9015625 497.771536,35.3175" id="Fill-1" fill="#58666A"></path>
                    <path d="M488.314607,45.9346875 C479.250936,54.9796875 464.437266,65.115 445.29588,62.064375 C419.308989,57.901875 399.027154,64.1409375 379.932584,79.1475 C372.948502,84.628125 360.576779,87.8990625 355.794007,81.63375 C343.320225,65.26875 372.082397,47.18625 375.938202,44.5603125 C371.294007,44.833125 363.542135,45.2784375 363.542135,45.2784375 C345.803371,46.3246875 326.07397,49.7953125 312.392322,73.9696875 C303.892322,88.9809375 295.817416,92.7140625 286.32397,88.6125 C271.529963,82.23375 262.835206,25.858125 321.798689,11.4103125 C314.808989,-2.8425 282.205993,7.2525 279.246255,7.1803125 C277.495318,6.2475 275.785581,5.49375 274.116105,4.89375 C239.88015,-7.359375 221.651685,46.2384375 207.48221,50.3446875 C212.470037,54.2465625 218.798689,50.4525 221.200375,49.303125 C218.106742,53.1946875 213.617041,62.008125 213.206929,70.6725 C234.421348,58.3115625 233.724719,86.356875 212.930712,88.6125 C206.206929,89.34 195.35206,88.9809375 186.846442,73.9696875 C173.174157,49.7953125 153.450375,46.3246875 135.712547,45.2784375 C135.712547,45.2784375 127.949438,44.833125 123.305243,44.5603125 C127.16573,47.18625 155.923221,65.26875 143.449438,81.63375 C138.667603,87.8990625 126.291199,84.628125 119.322097,79.1475 C100.227528,64.1409375 79.928839,57.901875 53.9578652,62.064375 C34.8127341,65.115 20.0037453,54.9796875 10.9410112,45.9346875 C10.9410112,45.9346875 5.83988764,40.839375 2.79868914,37.78875 C3.6329588,41.9821875 5.05243446,48.9853125 5.05243446,48.9853125 C13.8286517,92.65125 50.7780899,105.659063 62.0224719,107.289375 C75.4438202,109.243125 81.82397,117.492188 82.7968165,124.603125 C83.7649813,131.904375 73.8052434,154.60125 44.0337079,131.432813 C44.0599251,133.4775 44.0599251,136.903125 44.0599251,136.903125 C43.6498127,179.769375 101.512172,196.89375 107.856742,198.317813 L107.856742,283.33875 L157.572097,297.350625 C152.666667,291.045 148.381086,284.250938 144.847378,277.017188 C171.894195,272.96625 210.344569,268.501875 248.43633,268.501875 C286.53839,268.501875 325.705993,272.971875 353.38764,277.022813 C349.797753,284.379375 345.445693,291.27 340.462547,297.632813 L391.382022,283.33875 L391.382022,198.323438 C397.633895,196.929375 455.593633,179.809688 455.184457,136.903125 C455.184457,136.903125 455.20412,133.4775 455.20412,131.432813 C425.438202,154.60125 415.478464,131.904375 416.447566,124.603125 C417.429775,117.492188 423.799625,109.243125 437.231273,107.289375 C448.481273,105.659063 485.41573,92.65125 494.203184,48.9853125 C494.203184,48.9853125 495.611423,41.9821875 496.455993,37.78875 C493.409176,40.839375 488.314607,45.9346875 488.314607,45.9346875" id="Fill-3" fill="#151546"></path>
                </g>
                <path d="M124.093633,280.385625 L150.97191,287.953125 C148.749064,284.430938 146.726592,280.770938 144.894195,277.0125 C136.843633,278.211563 129.808989,279.380625 124.093633,280.385625" id="Fill-5" fill="#ED992D"></path>
                <path d="M353.36236,277.022813 C351.47191,280.877813 349.393258,284.63625 347.109551,288.250313 L374.924157,280.4475 C369.0103,279.426563 361.713483,278.2425 353.36236,277.022813" id="Fill-6" fill="#ED992D"></path>
                <path d="M416.574906,99.009375 C405.745318,117.630937 379.814607,109.8525 362.752809,115.764375 C347.621723,121.014375 341.015918,130.539375 328.671348,125.940938 C316.586142,121.455 327.830524,102.151875 346.684457,99.16875 C321.726592,89.70375 316.007491,110.960625 291.141386,108.340312 C264.847378,105.571875 245.411049,88.8375 253.998127,65.330625 C239.301498,76.0003125 248.641386,98.29125 217.641386,106.813125 C186.94382,113.415938 177.470974,89.7290625 152.56367,99.16875 C171.418539,102.151875 182.668539,121.455 170.58427,125.940938 C158.243446,130.539375 151.632022,121.014375 136.500936,115.764375 C119.429775,109.8525 93.4981273,117.630937 82.6685393,99.009375 C86.571161,125.592188 123.008427,120.209062 134.960674,139.9275 C146.588951,159.148125 119.394195,177.088125 100.518727,148.940625 C99.1722846,163.044375 104.610487,177.482813 114.805243,183.820312 L115.11236,183.702188 C123.423221,180.625313 133.639513,177.395625 145.21161,174.355312 C164.967228,134.564063 206.709738,107.976562 253.925094,109.929375 C297.77809,111.745312 334.897004,137.713125 353.116105,174.473437 C364.227528,177.466875 374.181648,180.625313 382.706929,183.634688 L384.059925,184.029375 C394.485019,177.825938 400.102996,163.219688 398.720037,148.940625 C379.845506,177.088125 352.670412,159.148125 364.298689,139.9275 C376.245318,120.209062 412.662921,125.592188 416.574906,99.009375" id="Fill-7" fill="#ED992D"></path>
                <path d="M248.902622,160.306875 C288.606742,160.306875 324.712547,166.838437 353.147004,174.48375 C334.932584,137.713125 297.782772,111.745313 253.925094,109.929375 C206.709738,107.976562 164.945693,134.564063 145.18633,174.355313 C174.152622,166.741875 211.615169,160.306875 248.902622,160.306875" id="Fill-8" fill="#0F1216"></path>
                <path d="M248.43633,268.501875 C210.344569,268.501875 171.894195,272.96625 144.847378,277.017188 C162.970037,314.080313 200.26779,340.27875 244.339888,342.103125 C291.803371,344.072813 333.770599,317.176875 353.38764,277.022813 C325.705993,272.971875 286.53839,268.501875 248.43633,268.501875" id="Fill-9" fill="#0F1216"></path>
                <path d="M304.265918,146.310937 C305.120787,147.418125 305.925094,148.560937 306.744382,149.694375 C311.911049,149.022188 316.391386,147.290625 319.873596,144.080625 C308.224719,133.975312 294.378277,126.315937 279.088015,121.921875 C288.433521,128.571562 296.912921,136.74375 304.265918,146.310937" id="Fill-10" fill="#D75A29"></path>
                <path d="M246.864232,137.805 C250.458801,138.805313 254.181648,139.896562 257.976592,141.014062 C270.823034,144.788438 283.850187,148.6125 295.135768,149.719687 C283.317416,135.10875 268.586142,124.245 252.128277,117.748125 C231.620787,117.174375 212.269663,122.3625 195.623596,131.863125 C208.2397,130.775625 225.04588,131.765625 246.864232,137.805" id="Fill-11" fill="#D75A29"></path>
                <path d="M316.86236,166.41375 C325.986891,168.029063 334.661985,169.875 342.81367,171.848438 C338.225655,163.905937 332.653558,156.590625 326.264045,150.073125 C322.249064,153.8625 317.31367,156.119062 311.757491,157.230938 C313.585206,160.225313 315.285581,163.290938 316.86236,166.41375" id="Fill-12" fill="#D75A29"></path>
                <path d="M248.902622,160.306875 C268.780899,160.306875 287.746255,161.953125 305.325843,164.547188 C304.051498,162.374063 302.7397,160.220625 301.331461,158.117813 C287.041199,157.964063 270.501873,153.114375 255.758427,148.78125 C252.020599,147.675 248.349251,146.597813 244.80618,145.618125 C211.46161,136.384688 183.964419,146.1 170.343633,151.801875 C164.663858,157.84125 159.676966,164.5575 155.478464,171.796875 C182.745318,165.357188 215.884831,160.306875 248.902622,160.306875" id="Fill-13" fill="#D75A29"></path>
                <path d="M322.786517,273.064688 C316.191011,291.358125 305.735019,307.9275 292.022472,321.432188 C289.499064,323.92875 286.871723,326.2725 284.188202,328.502813 C310.544007,319.463438 332.423221,300.478125 345.194757,275.863125 C338.235019,274.910625 330.719101,273.951563 322.786517,273.064688" id="Fill-14" fill="#D75A29"></path>
                <path d="M153.040262,275.833125 C156.497191,282.488438 160.624532,288.752813 165.335206,294.525 C186.611423,288.137813 203.903558,279.2475 218.71161,269.331563 C194.66573,270.614063 171.740637,273.208125 153.040262,275.833125" id="Fill-15" fill="#D75A29"></path>
                <path d="M313.226592,272.049375 C292.888577,269.998125 270.480337,268.501875 248.43633,268.501875 C244.28839,268.501875 240.136704,268.557188 235.993446,268.655625 C220.17603,282.20625 201.363296,296.274375 176.492509,306.302813 C194.599251,322.749375 218.333333,333.1725 244.657303,334.264688 C249.661049,334.47 254.590824,334.300313 259.445693,333.839063 C283.405431,321.139688 302.770599,299.099063 313.226592,272.049375" id="Fill-16" fill="#D75A29"></path>
                <path d="M177.78839,272.695313 C168.970974,273.66375 160.634831,274.725 153.014981,275.78625 C156.476592,282.456563 160.614232,288.737813 165.335206,294.525 C173.650749,292.02375 181.367041,289.1475 188.561798,285.984375 C184.63015,281.847188 181.034644,277.39125 177.78839,272.695313" id="Fill-17" fill="#A75221"></path>
                <path d="M292.022472,321.432188 C289.483146,323.939063 286.846442,326.3025 284.136704,328.543125 C300.445693,322.95 315.050562,313.551563 326.838015,301.369688 C318.071161,307.240313 308.39794,311.834063 298.105805,314.952188 C296.155431,317.176875 294.13764,319.36125 292.022472,321.432188" id="Fill-18" fill="#A75221"></path>
                <path d="M167.121723,169.212188 C170.20412,161.896875 174.050562,154.995 178.576779,148.6125 C175.426966,149.719688 172.667603,150.822188 170.322097,151.806563 C164.638577,157.851563 159.651685,164.562188 155.462547,171.801563 C159.241573,170.904375 163.133895,170.042813 167.121723,169.212188" id="Fill-19" fill="#A75221"></path>
                <path d="M262.374532,319.484062 C238.226592,318.479062 216.253745,309.624375 198.81367,295.479375 C191.93633,299.406563 184.531835,303.0675 176.492509,306.302813 C194.599251,322.749375 218.333333,333.1725 244.657303,334.264688 C249.639513,334.47 254.544944,334.33125 259.374532,333.880313 C267.208801,329.727188 274.557116,324.595313 281.264981,318.601875 C275.109551,319.422188 268.800562,319.74 262.374532,319.484062" id="Fill-20" fill="#A75221"></path>
                <path d="M444.63015,145.336875 C432.228464,163.660312 405.493446,151.37625 402.867978,180.174375 C415.990637,165.751875 441.189139,177.077812 444.63015,145.336875 L444.63015,145.336875 Z M315.566479,90.6890625 C346.991573,85.1259375 334.015918,66.8634375 354.335206,55.1690625 C318.598315,62.3259375 330.667603,78.8559375 315.566479,90.6890625 L315.566479,90.6890625 Z M147.049625,55.1690625 C167.373596,66.8634375 154.402622,85.1259375 185.827715,90.6890625 C170.72191,78.8559375 182.796816,62.3259375 147.049625,55.1690625 L147.049625,55.1690625 Z M462.215356,70.785 C444.855805,75.2353125 439.228464,69.2625 420.892322,71.668125 C402.544944,74.071875 383.142322,89.0071875 372.261236,101.019375 C391.683521,92.2209375 402.366105,87.9196875 427.312734,90.93375 C462.613296,95.205 479.255618,71.1084375 483.905431,58.1578125 C483.905431,58.1578125 479.577715,66.324375 462.215356,70.785 L462.215356,70.785 Z M15.9784644,58.1578125 C20.6282772,71.1084375 37.2752809,95.205 72.571161,90.93375 C97.5177903,87.9196875 108.194757,92.2209375 127.622659,101.019375 C116.741573,89.0071875 97.3389513,74.071875 78.997191,71.668125 C60.6498127,69.2625 55.0383895,75.2353125 37.6741573,70.785 C20.3005618,66.324375 15.9784644,58.1578125 15.9784644,58.1578125 L15.9784644,58.1578125 Z M96.3820225,180.174375 C93.7546816,151.37625 67,163.660312 54.6189139,145.336875 C58.0543071,177.077812 83.247191,165.751875 96.3820225,180.174375 L96.3820225,180.174375 Z M244.109551,63.1153125 C236.4897,35.533125 258.734082,12.81 268.483146,12.260625 C260.500936,18.0703125 264.59176,22.65375 268.335206,20.6334375 C276.625468,16.153125 298.623596,7.19625 306.247191,10.7184375 C306.247191,10.7184375 257.705056,27.4575 244.109551,63.1153125 L244.109551,63.1153125 Z" id="Fill-21" fill="#58666A"></path>
                <path d="M280.014981,246.389063 C280.029963,223.574063 279.994382,200.764688 280.014981,177.949688 C272.502809,177.354375 265.365169,176.995313 257.838015,176.866875 L257.838015,207.921563 C254.222846,207.849375 248.446629,207.818438 244.723783,207.818438 C241.037453,207.818438 235.281835,207.849375 231.691948,207.91125 C231.691948,197.974688 231.697566,187.034063 231.691948,177.175313 C221.651685,177.620625 211.932584,178.4925 201.91573,179.769375 C201.332397,180.235313 200.759363,180.7125 200.175094,181.189688 C203.279026,182.830313 206.432584,184.52625 209.54588,186.27 C209.571161,208.7925 209.515918,231.315938 209.54588,253.84875 C217.021536,253.36125 224.195693,253.002188 231.691948,252.797813 C231.687266,242.595 231.697566,231.0075 231.691948,220.671563 C235.286517,220.605938 241.037453,220.569375 244.723783,220.569375 C248.446629,220.569375 254.222846,220.605938 257.838015,220.677188 L257.838015,252.617813 C267.858614,252.710625 277.521536,253.074375 287.537453,253.684688 C288.116105,253.325625 288.699438,252.945938 289.272472,252.576563 C286.180712,250.505625 283.11236,248.439375 280.014981,246.389063" id="Fill-22" fill="#FFFFFF"></path>
                <path d="M174.372659,216.636563 C167.633895,218.221875 160.900749,219.917813 154.182584,221.73375 C154.172285,214.339688 154.202247,206.946563 154.182584,199.554375 C160.900749,197.99625 167.588015,196.580625 174.326779,195.308438 C174.347378,202.425 174.357678,209.525625 174.372659,216.636563 L174.372659,216.636563 Z M125.491573,196.980938 C124.928839,197.513438 124.350187,198.036563 123.786517,198.574688 C126.833333,199.483125 129.900749,200.445938 132.963483,201.46125 C132.978464,222.051563 132.947566,241.907813 132.963483,262.471875 C142.676966,260.862188 152.093633,259.360313 161.843633,258.042188 C162.411049,257.570625 162.984082,257.10375 163.553371,256.6425 C160.460674,255.25875 157.29588,253.92 154.182584,252.617813 C154.176966,246.209063 154.192884,240.49875 154.182584,234.09 C168.110487,229.802813 181.725655,225.865313 195.741573,222.465938 C195.720037,211.15125 195.755618,199.84125 195.741573,188.53125 C191.73221,186.449063 187.706929,184.44 183.712547,182.5275 C163.942884,185.9775 144.981273,190.94625 125.491573,196.980938 L125.491573,196.980938 Z" id="Fill-23" fill="#FFFFFF"></path>
                <path d="M362.937266,256.411875 C356.003745,245.907187 349.071161,235.155 342.127341,224.240625 C350.945693,213.786562 359.72191,203.97375 368.462547,194.950312 C361.564607,192.909375 354.28839,191.0025 347.350187,189.25875 C342.347378,195.36 337.33427,201.707812 332.30618,208.264687 C327.298689,199.810312 322.290262,191.299687 317.272472,182.77875 C307.523408,181.025625 297.388577,179.65125 287.588951,178.662187 C287.004682,178.995 286.405431,179.34375 285.800562,179.68125 C290.507491,182.097187 295.202247,184.59375 299.893258,187.146562 C306.821161,198.426562 313.729401,209.730937 320.632022,220.959375 C312.222846,231.587812 303.805243,242.732812 295.392322,254.23875 C302.457865,254.765625 309.867041,255.406875 316.913858,256.165312 C321.742509,249.377812 326.550562,242.732812 331.368914,236.282812 C336.147004,244.204687 340.923221,252.054375 345.701311,259.805625 C355.414794,261.205312 364.068352,262.779375 373.746255,264.450937 C374.315543,264.195 374.894195,263.923125 375.472846,263.66625 C370.827715,261.256875 367.587079,258.831562 362.937266,256.411875" id="Fill-24" fill="#FFFFFF"></path>
                <path d="M123.786517,198.574688 C130.382022,197.919375 143.321161,197.134688 143.321161,197.134688 L143.321161,253.925625 C143.321161,253.925625 156.814607,255.597188 163.553371,256.6425 C162.984082,257.10375 162.411049,257.570625 161.843633,258.042188 C152.093633,259.360313 142.676966,260.862188 132.963483,262.471875 C132.947566,241.907813 132.978464,222.04125 132.963483,201.46125 C129.900749,200.445938 126.833333,199.4775 123.786517,198.574688" id="Fill-25" fill="#B6B7B6"></path>
                <path d="M143.342697,197.144063 C146.946629,197.8725 150.582397,198.6825 154.182584,199.554375 C160.900749,197.99625 167.588015,196.580625 174.326779,195.308438 C174.347378,202.425 174.357678,209.525625 174.372659,216.636563 C177.987828,217.42125 181.279963,218.267813 184.91573,219.165 C184.900749,209.952188 184.890449,200.73375 184.865169,191.515313 C182.85206,190.71 180.850187,189.905625 178.843633,189.135938 C166.850187,191.31 155.248127,194.011875 143.342697,197.144063" id="Fill-26" fill="#B6B7B6"></path>
                <path d="M184.91573,219.165 C188.526217,220.210313 192.120787,221.312813 195.741573,222.465938 C181.725655,225.855 168.110487,229.802813 154.182584,234.09 C150.577715,232.924688 146.983146,231.469688 143.378277,230.41875 C157.29588,226.142813 170.911049,222.564375 184.91573,219.165" id="Fill-27" fill="#B6B7B6"></path>
                <path d="M200.175094,181.189688 C207.093633,181.77375 213.667603,182.58375 220.605805,183.599063 C220.632022,204.347813 220.63764,225.096563 220.662921,245.850938 C224.344569,248.116875 228.005618,250.439063 231.691948,252.797813 C224.195693,253.002188 217.027154,253.355625 209.54588,253.84875 C209.515918,231.315938 209.571161,208.7925 209.54588,186.27 C206.432584,184.52625 203.279026,182.830313 200.175094,181.189688" id="Fill-28" fill="#B6B7B6"></path>
                <polyline id="Fill-29" fill="#C1C2C0" points="268.84176 213.935625 268.84176 213.940313 268.847378 213.940313 268.84176 213.935625"></polyline>
                <path d="M268.84176,213.935625 C268.867041,203.594063 268.902622,193.258125 268.934457,182.9175 C265.241573,180.846563 261.544944,178.830938 257.838015,176.866875 L257.838015,207.921563 C261.503745,209.930625 265.17603,211.832813 268.84176,213.935625" id="Fill-30" fill="#B6B7B6"></path>
                <path d="M268.7397,245.440313 C268.770599,234.940313 268.811798,224.445 268.84176,213.940313 C254.171348,213.150938 235.286517,213.099375 220.632022,213.786563 C224.32397,216.0375 228.005618,218.344688 231.691948,220.7025 L231.691948,220.671563 C235.286517,220.605938 241.037453,220.569375 244.723783,220.569375 C248.446629,220.569375 254.222846,220.605938 257.838015,220.677188 L257.838015,220.851563 L257.838015,252.617813 C267.858614,252.710625 277.521536,253.074375 287.537453,253.684688 C288.116105,253.325625 288.699438,252.945938 289.272472,252.576563 C282.319288,250.095938 275.703184,247.701563 268.7397,245.440313" id="Fill-31" fill="#B6B7B6"></path>
                <path d="M285.800562,179.68125 C290.507491,182.097188 295.202247,184.59375 299.893258,187.146563 C306.821161,198.426563 313.729401,209.730938 320.632022,220.959375 C312.222846,231.587813 303.805243,242.732813 295.392322,254.23875 C300.256554,252.628125 305.463483,251.1 310.318352,249.644063 C317.52809,240.0825 324.737828,230.83875 331.926966,222.004688 C324.655431,210.315 317.374532,198.503438 310.067416,186.675 C302.109551,184.116563 293.799625,181.77375 285.800562,179.68125" id="Fill-32" fill="#B6B7B6"></path>
                <path d="M352.603933,254.817188 C345.72191,244.07625 338.829588,233.094375 331.926966,222.004688 C331.743446,226.768125 331.553371,231.520313 331.368914,236.282813 C336.147004,244.204688 340.923221,252.054375 345.701311,259.805625 C355.414794,261.205313 364.068352,262.779375 373.746255,264.450938 C374.315543,264.195 374.894195,263.923125 375.472846,263.66625 C367.504682,260.708438 360.59176,257.745 352.603933,254.817188" id="Fill-33" fill="#B6B7B6"></path>
                <path d="M332.30618,208.264688 C332.167603,212.843437 332.055243,217.42125 331.926966,222.004688 C340.411985,211.34625 353.238764,196.452188 353.238764,196.452188 L347.350187,189.25875 C347.350187,189.25875 337.33427,201.707813 332.30618,208.264688" id="Fill-34" fill="#B6B7B6"></path>
            </g>
        </g>
    </g>
</svg>