<?xml version="1.0" encoding="UTF-8" standalone="no"?>
<svg width="500px" height="500px" viewBox="0 0 500 500" version="1.1" xmlns="http://www.w3.org/2000/svg" xmlns:xlink="http://www.w3.org/1999/xlink">
    <!-- Generator: Sketch 39.1 (31720) - http://www.bohemiancoding.com/sketch -->
    <title>OKC</title>
    <desc>Created with Sketch.</desc>
    <defs></defs>
    <g id="NBA" stroke="none" stroke-width="1" fill="none" fill-rule="evenodd">
        <g id="OKC">
            <g id="Oklahoma_City_Thunder_P_pms" transform="translate(0.000000, 106.000000)">
                <g id="Group-3" transform="translate(25.326797, 86.481586)" fill="#0072AD">
                    <path d="M0.341503268,201.518414 C29.746732,175.58536 62.8831699,150.89813 99.1911765,128.166527 C106.014706,124.723581 112.857026,121.298584 119.699346,117.908669 C122.526144,116.500487 128.08415,113.826901 135.034314,110.504703 C139.712418,115.736023 144.547386,120.834357 149.580065,125.807048 C97.4428105,150.066765 47.5473856,175.440952 0.341503268,201.518414 L0.341503268,201.518414 Z M371.857026,16.1377904 C406.977124,8.32670822 441.433824,3.13210198 474.673203,0.491966006 C437.834967,11.7704703 400.303922,24.2825609 362.295752,38.0168159 C365.678105,30.9285892 368.86683,23.6380283 371.857026,16.1377904 L371.857026,16.1377904 Z" id="Fill-1"></path>
                </g>
                <path d="M0,185.253348 C34.1078431,163.59379 71.8921569,143.867014 112.684641,126.740397 C114.04085,129.473541 115.445261,132.188737 116.868464,134.870482 C114.685458,139.340601 112.486111,143.818878 110.333333,148.31021 C72.4223856,159.999909 35.5898693,172.347195 0,185.253348 L0,185.253348 Z M411.765523,59.345949 C442.11683,58.0576997 471.630719,58.565983 500,60.7753428 C469.449346,65.0855524 438.356209,70.1031161 406.798203,75.845983 C408.528595,70.4555694 410.191993,64.9533824 411.765523,59.345949 L411.765523,59.345949 Z" id="Fill-4" fill="#DE4C36"></path>
                <path d="M250.005719,10.8526232 C307.508987,10.8526232 352.605392,24.2923513 403.488562,49.6208499 C378.59232,143.373416 333.026144,206.340986 250.012255,257.503819 C218.846405,238.239637 192.328431,216.743252 170.187092,192.303229 C180.031046,187.607116 191.14134,182.346425 200.912582,177.734346 C204.861111,178.083535 208.622549,178.300555 212.173203,178.384589 C211.950163,183.790504 210.232026,187.769473 207.513889,190.593178 C209.099673,192.411739 210.714869,194.205008 212.335784,195.992567 C216.628268,192.158006 219.395425,186.499989 219.618464,178.409065 C229.721405,178.240181 239.474673,177.211377 248.522876,175.290833 C248.010621,190.063683 245.94281,200.95302 241.735294,205.24528 C241.584967,205.389688 241.488562,205.503909 241.439542,205.631184 C240.39134,206.761972 239.456699,207.665133 238.625,208.387989 C242.712418,207.629235 246.702614,206.695887 250.638889,205.59447 C255.714869,195.095932 255.793301,176.705541 255.865196,173.532646 C265.281046,171.173167 273.660131,168.764737 281.20098,166.212714 C281.515523,174.833133 284.957516,183.074176 291.558007,186.114085 C294.536765,184.018946 297.417484,181.816113 300.220588,179.492533 C298.544935,179.738924 288.080065,180.474017 288.230392,163.7023 C310.330065,155.377224 324.706699,145.347807 337.383987,130.394652 C340.71732,122.848725 343.388889,114.944635 345.31781,106.758255 C330.174837,130.596986 316.237745,144.541734 289.002451,155.455547 C289.767974,150.645212 291.183824,144.890924 293.420752,138.006663 C301.366013,134.677938 309.660131,130.707943 314.633987,128.648703 L326.545752,116.154561 C329.547386,104.620691 332.519608,93.0745836 335.497549,81.5317394 L326.190359,84.4329518 L337.130719,72.9447705 C339.421569,63.905813 341.688725,54.857881 343.955065,45.809949 C338.468954,46.6168385 332.95915,47.4351501 327.473856,48.2779377 C328.396242,43.7727365 329.059641,39.2936431 329.408497,34.8235241 C326.756536,34.1561473 324.110294,33.5238527 321.446078,32.9307195 C320.89134,37.9458357 319.897059,43.5051331 318.401961,49.7228329 L317.654412,49.8435807 C312.5,50.6977904 307.232026,52.3841813 302.668301,56.2424023 L304.13317,51.7943116 C295.30719,53.3860623 286.507353,55.0055524 277.705065,56.7115241 L268.940359,65.9046799 L269.248366,65.1516374 L272.080882,57.7958074 C263.395425,59.5866289 254.701797,61.4109008 246.003268,63.3037054 C244.20098,51.5919773 242.386438,41.0036941 240.789216,32.4248839 C238.329248,32.7259377 235.875817,33.053915 233.434641,33.4031048 C235.026144,42.0904249 236.870915,52.925915 238.70915,64.9109575 L232.566993,66.3011898 L224.729575,74.5218357 C219.25,68.7455184 208.122549,72.3965099 201.117647,74.1571445 C193.522059,76.0719773 185.926471,78.0610538 178.349673,80.1047932 C176.064542,80.7256657 173.828431,81.4028329 171.616013,82.164034 C165.919118,73.9768385 160.58415,65.5465156 156.189542,56.4504476 L155.375817,54.7762946 C153.084967,55.71617 150.806373,56.669915 148.509804,57.666085 L149.486928,59.6771898 C153.796569,68.561949 158.962418,76.8813144 164.544935,84.9387875 C156.365196,88.5750935 148.805556,93.5983683 142.271242,100.828555 C142.271242,100.828555 131.625,111.934912 130.370915,113.319433 C127.616013,116.476827 125.235294,119.842266 123.137255,123.29745 C111.96732,100.849768 103.099673,76.4056657 96.4566993,49.6477734 C147.364379,24.2980623 192.485294,10.8501756 250.005719,10.8526232 L250.005719,10.8526232 Z M255.647876,152.764827 C260.916667,150.440431 266.209967,148.129088 271.484477,145.835694 L273.968137,143.241246 C275.01634,143.403603 276.209967,143.439501 277.560458,143.32528 C279.610294,142.982618 282.106209,142.268737 284.848856,141.320703 C283.07598,147.785609 282.009804,153.402833 281.521242,158.272725 C273.99183,160.915309 265.552288,163.407773 255.955882,165.86434 C255.93219,161.661824 255.816993,157.279819 255.647876,152.764827 L255.647876,152.764827 Z M219.015523,169.246912 L223.994281,166.922516 L236.719771,156.701371 L239.571078,148.875603 C241.410131,152.608181 242.398693,154.076737 244.231209,157.809314 L248.420752,155.954856 C248.571078,159.999909 248.638072,163.913609 248.638072,167.657609 C239.43219,169.770697 229.498366,170.872113 219.244281,171.052419 L219.015523,169.246912 L219.015523,169.246912 Z" id="Fill-5" fill="#FFFFFF"></path>
                <path d="M280.984477,30.041745 C293.167484,30.041745 305.139706,30.6789348 316.960784,31.9524986 C325.966503,33.8306176 334.857843,36.1060623 343.70098,38.7665949 C347.065359,50.5509348 348.885621,63.0026516 348.885621,75.8671955 C348.885621,86.4921926 347.650327,96.834085 345.31781,106.758255 C330.174837,130.596986 316.237745,144.541734 289.002451,155.455547 C289.767974,150.645212 291.183824,144.890924 293.420752,138.006663 C301.366013,134.677938 309.660131,130.707943 314.633987,128.648703 L326.545752,116.154561 C329.547386,104.620691 332.519608,93.0745836 335.497549,81.5317394 L326.190359,84.4329518 L337.130719,72.9447705 C339.421569,63.905813 341.688725,54.857881 343.955065,45.809949 C338.468954,46.6168385 332.95915,47.4351501 327.473856,48.2779377 C328.396242,43.7727365 329.059641,39.2936431 329.408497,34.8235241 C326.756536,34.1561473 324.110294,33.5238527 321.446078,32.9307195 C320.89134,37.9458357 319.897059,43.5051331 318.401961,49.7228329 L317.654412,49.8435807 C312.5,50.6977904 307.232026,52.3841813 302.668301,56.2424023 L304.13317,51.7943116 C295.30719,53.3860623 286.507353,55.0055524 277.705065,56.7115241 L268.940359,65.9046799 L269.248366,65.1516374 L272.080882,57.7958074 C263.395425,59.5866289 254.701797,61.4109008 246.003268,63.3037054 C244.20098,51.5919773 242.386438,41.0036941 240.789216,32.4248839 C253.978758,30.8331331 267.373366,30.041745 280.984477,30.041745 L280.984477,30.041745 Z M337.383987,130.394652 C328.890523,149.507898 316.086601,166.291037 300.220588,179.492533 C298.544935,179.738924 288.080065,180.474017 288.230392,163.7023 C310.330065,155.377224 324.706699,145.347807 337.383987,130.394652 L337.383987,130.394652 Z M291.558007,186.114085 C279.278595,194.764691 265.468137,201.405008 250.638889,205.59447 C255.714869,195.095932 255.793301,176.705541 255.865196,173.532646 C265.281046,171.173167 273.660131,168.764737 281.20098,166.212714 C281.515523,174.833133 284.957516,183.074176 291.558007,186.114085 L291.558007,186.114085 Z M238.625,208.387989 C234.489379,209.145926 230.270425,209.723558 226.001634,210.102935 C221.294118,205.534912 216.742647,200.826561 212.335784,195.992567 C216.628268,192.158006 219.395425,186.499989 219.618464,178.409065 C229.721405,178.240181 239.474673,177.211377 248.522876,175.290833 C248.010621,190.063683 245.94281,200.95302 241.735294,205.24528 C241.584967,205.389688 241.488562,205.503909 241.439542,205.631184 C240.39134,206.761972 239.456699,207.665133 238.625,208.387989 L238.625,208.387989 Z M207.513889,190.593178 C204.246732,186.836941 201.051471,183.020329 197.964869,179.131105 L200.912582,177.734346 C204.861111,178.083535 208.622549,178.300555 212.173203,178.384589 C211.950163,183.790504 210.232026,187.769473 207.513889,190.593178 L207.513889,190.593178 Z M149.052288,94.3726232 C144.929739,83.9393541 141.294118,73.2547989 138.183824,62.3466969 C141.613562,60.7239433 145.06781,59.1648272 148.509804,57.666085 L149.486928,59.6771898 C153.796569,68.561949 158.962418,76.8813144 164.544935,84.9387875 C159.071078,87.3798527 153.862745,90.4409745 149.052288,94.3726232 L149.052288,94.3726232 Z M155.375817,54.7762946 C180.736928,44.4017677 206.669935,37.2621416 233.434641,33.4031048 C235.026144,42.0904249 236.870915,52.925915 238.70915,64.9109575 L232.566993,66.3011898 L224.729575,74.5218357 C219.25,68.7455184 208.122549,72.3965099 201.117647,74.1571445 C193.522059,76.0719773 185.926471,78.0610538 178.349673,80.1047932 C176.064542,80.7256657 173.828431,81.4028329 171.616013,82.164034 C165.919118,73.9768385 160.58415,65.5465156 156.189542,56.4504476 L155.375817,54.7762946 L155.375817,54.7762946 Z M255.647876,152.764827 C260.916667,150.440431 266.209967,148.129088 271.484477,145.835694 L273.968137,143.241246 C275.01634,143.403603 276.209967,143.439501 277.560458,143.32528 C279.610294,142.982618 282.106209,142.268737 284.848856,141.320703 C283.07598,147.785609 282.009804,153.402833 281.521242,158.272725 C273.99183,160.915309 265.552288,163.407773 255.955882,165.86434 C255.93219,161.661824 255.816993,157.279819 255.647876,152.764827 L255.647876,152.764827 Z M219.015523,169.246912 L223.994281,166.922516 L236.719771,156.701371 L239.571078,148.875603 C241.410131,152.608181 242.398693,154.076737 244.231209,157.809314 L248.420752,155.954856 C248.571078,159.999909 248.638072,163.913609 248.638072,167.657609 C239.43219,169.770697 229.498366,170.872113 219.244281,171.052419 L219.015523,169.246912 L219.015523,169.246912 Z" id="Fill-6" fill="#DE4C36"></path>
                <g id="Group-10" transform="translate(80.882353, 0.000000)">
                    <path d="M171.619281,241.90613 C147.193627,225.375909 125.401144,205.931422 106.599673,184.091558 L117.082516,179.131105 C120.169118,183.020329 123.364379,186.836941 126.631536,190.593178 C128.21732,192.411739 129.832516,194.205008 131.453431,195.992567 C145.402778,211.282674 160.828431,225.291059 177.653595,237.872499 C175.670752,239.245598 173.662582,240.581983 171.619281,241.90613 L171.619281,241.90613 Z M56.4877451,105.948102 C49.3382353,90.3569405 43.3398693,74.112272 38.5359477,57.3258697 C81.1666667,37.2474561 125.263072,26.4054391 172.107026,25.1441133 C194.001634,25.3342096 215.275327,27.6210765 236.078431,31.9524986 C224.257353,30.6789348 212.285131,30.041745 200.102124,30.041745 C186.491013,30.041745 173.096405,30.8445552 159.906863,32.4248839 C157.446895,32.7259377 154.993464,33.053915 152.552288,33.4031048 C125.781046,37.2621416 99.8480392,44.4017677 74.4934641,54.7762946 C72.2026144,55.71617 69.9060458,56.669915 67.627451,57.666085 C64.1854575,59.1648272 60.7377451,60.7239433 57.3014706,62.3466969 C60.4117647,73.2547989 64.0473856,83.9393541 68.1699346,94.3726232 C65.8194444,96.3013258 63.5465686,98.4446006 61.3888889,100.828555 L56.4877451,105.948102 L56.4877451,105.948102 Z" id="Fill-7" fill="#F4B53C"></path>
                    <path d="M3.33088235,44.0468669 C58.3929739,15.7347535 106.719771,0.327161473 169.123366,0.330424929 C231.544935,0.330424929 279.854575,15.7412805 334.921569,44.0493144 C309.344771,146.973008 260.486111,215.129473 169.123366,269.814391 C134.660948,249.177926 104.520425,225.032431 79.4787582,196.986289 C72.5285948,200.308487 66.9705882,202.982074 64.1437908,204.390255 C55.5171569,208.664567 46.9027778,212.974776 38.3186275,217.351071 C28.6372549,222.257677 17.8954248,229.757915 6.70098039,226.862414 C-5.47630719,221.565008 2.55310458,206.761972 6.29738562,198.322674 C15.7794118,177.000068 25.6715686,155.834924 35.9861111,134.870482 C23.5735294,111.628147 13.8504902,86.3657337 7.04493464,58.9600453 L3.33088235,44.0468669 L3.33088235,44.0468669 Z M169.123366,10.8526232 C111.602941,10.8501756 66.4820261,24.2980623 15.5743464,49.6477734 C22.2173203,76.4056657 31.0849673,100.849768 42.254902,123.29745 C44.3529412,119.842266 46.7336601,116.476827 49.4885621,113.319433 C50.7426471,111.934912 61.3888889,100.828555 61.3888889,100.828555 C67.9232026,93.5983683 75.4828431,88.5750935 83.6625817,84.9387875 C78.0800654,76.8813144 72.9142157,68.561949 68.6045752,59.6771898 L67.627451,57.666085 C69.9240196,56.669915 72.2026144,55.71617 74.4934641,54.7762946 L75.3071895,56.4504476 C79.7017974,65.5465156 85.0367647,73.9768385 90.7336601,82.164034 C92.9460784,81.4028329 95.1821895,80.7256657 97.4673203,80.1047932 C105.044118,78.0610538 112.639706,76.0719773 120.235294,74.1571445 C127.240196,72.3965099 138.367647,68.7455184 143.847222,74.5218357 L151.684641,66.3011898 L157.826797,64.9109575 C155.988562,52.925915 154.143791,42.0904249 152.552288,33.4031048 C154.993464,33.053915 157.446895,32.7259377 159.906863,32.4248839 C161.504085,41.0036941 163.318627,51.5919773 165.120915,63.3037054 C173.819444,61.4109008 182.513072,59.5866289 191.198529,57.7958074 L188.366013,65.1516374 L188.058007,65.9046799 L196.822712,56.7115241 C205.625,55.0055524 214.424837,53.3860623 223.250817,51.7943116 L221.785948,56.2424023 C226.349673,52.3841813 231.617647,50.6977904 236.772059,49.8435807 L237.519608,49.7228329 C239.014706,43.5051331 240.008987,37.9458357 240.563725,32.9307195 C243.227941,33.5238527 245.874183,34.1561473 248.526144,34.8235241 C248.177288,39.2936431 247.513889,43.7727365 246.591503,48.2779377 C252.076797,47.4351501 257.586601,46.6168385 263.072712,45.809949 C260.806373,54.857881 258.539216,63.905813 256.248366,72.9447705 L245.308007,84.4329518 L254.615196,81.5317394 C251.637255,93.0745836 248.665033,104.620691 245.663399,116.154561 L233.751634,128.648703 C228.777778,130.707943 220.48366,134.677938 212.538399,138.006663 C210.301471,144.890924 208.885621,150.645212 208.120098,155.455547 C235.355392,144.541734 249.292484,130.596986 264.435458,106.758255 C262.506536,114.944635 259.834967,122.848725 256.501634,130.394652 C243.824346,145.347807 229.447712,155.377224 207.348039,163.7023 C207.197712,180.474017 217.662582,179.738924 219.338235,179.492533 C216.535131,181.816113 213.654412,184.018946 210.675654,186.114085 C204.075163,183.074176 200.63317,174.833133 200.318627,166.212714 C192.777778,168.764737 184.398693,171.173167 174.982843,173.532646 C174.910948,176.705541 174.832516,195.095932 169.756536,205.59447 C165.820261,206.695887 161.830065,207.629235 157.742647,208.387989 C158.574346,207.665133 159.508987,206.761972 160.55719,205.631184 C160.606209,205.503909 160.702614,205.389688 160.852941,205.24528 C165.060458,200.95302 167.128268,190.063683 167.640523,175.290833 C158.59232,177.211377 148.839052,178.240181 138.736111,178.409065 C138.513072,186.499989 135.745915,192.158006 131.453431,195.992567 C129.832516,194.205008 128.21732,192.411739 126.631536,190.593178 C129.349673,187.769473 131.06781,183.790504 131.29085,178.384589 C127.740196,178.300555 123.978758,178.083535 120.030229,177.734346 C110.258987,182.346425 99.1486928,187.607116 89.3047386,192.303229 C111.446078,216.743252 137.964052,238.239637 169.129902,257.503819 C252.143791,206.340986 297.709967,143.373416 322.606209,49.6208499 C271.723039,24.2923513 226.626634,10.8526232 169.123366,10.8526232 L169.123366,10.8526232 Z M174.765523,152.764827 C174.934641,157.279819 175.049837,161.661824 175.073529,165.86434 C184.669935,163.407773 193.109477,160.915309 200.638889,158.272725 C201.127451,153.402833 202.193627,147.785609 203.966503,141.320703 C201.223856,142.268737 198.727941,142.982618 196.678105,143.32528 C195.327614,143.439501 194.133987,143.403603 193.085784,143.241246 L190.602124,145.835694 C185.327614,148.129088 180.034314,150.440431 174.765523,152.764827 L174.765523,152.764827 Z M138.13317,169.246912 L138.361928,171.052419 C148.616013,170.872113 158.549837,169.770697 167.755719,167.657609 C167.755719,163.913609 167.688725,159.999909 167.538399,155.954856 L163.348856,157.809314 C161.51634,154.076737 160.527778,152.608181 158.688725,148.875603 L155.837418,156.701371 L143.111928,166.922516 L138.13317,169.246912 L138.13317,169.246912 Z" id="Fill-9" fill="#00264A"></path>
                </g>
                <path d="M179.308007,84.4060283 C166.352941,87.9183229 154.785131,93.4596714 145.544118,103.69387 C140.23366,109.752476 136.454248,116.724034 132.915033,123.85387 C122.558824,144.872975 112.636438,166.080544 103.135621,187.451286 C100.658497,193.036691 93.0383987,206.606142 101.140523,210.127411 C110.098856,212.450992 121.347222,204.908329 129.232026,200.892646 C137.852124,196.528589 146.478758,192.19472 155.110294,187.914697 C169.825163,180.624136 183.015523,171.786697 191.96732,157.568635 C195.548203,151.560612 198.200163,145.119365 200.803922,138.690357 C206.446078,124.856567 212.167484,111.065201 218.002451,97.3187082 C220.20915,92.1534731 224.006536,85.6526686 222.783497,80.0207592 C220.329248,72.4568839 207.555556,77.0746742 201.985294,78.4706176 C194.408497,80.3944249 186.848856,82.3720793 179.308007,84.4060283 L179.308007,84.4060283 Z M162.941176,163.322924 C156.093954,166.380782 149.263072,169.469643 142.451797,172.582164 C152.343954,149.688204 162.609477,126.936204 173.303922,104.365326 C179.319444,102.465994 185.341503,100.599297 191.363562,98.7636034 C181.568627,120.154742 172.09232,141.68213 162.941176,163.322924 L162.941176,163.322924 Z M280.09232,60.7394448 C270.604575,73.1193654 261.236111,85.5922946 252.001634,98.1378357 C256.305556,86.6545496 260.675654,75.1900283 265.094771,63.7369292 C255.267974,65.765983 245.478758,67.8880453 235.683007,70.1088272 C233.127451,76.0295524 230.625817,81.9445666 228.124183,87.8710028 C230.239379,87.2811331 232.331699,86.7026856 234.447712,86.1185269 C226.761438,104.741439 219.244281,123.414935 211.878268,142.154516 C208.857843,149.754289 205.849673,157.375275 202.871732,164.997076 C212.679739,160.355626 222.535948,155.763127 232.379902,151.235898 C236.852941,138.9343 241.361928,126.638414 245.924837,114.361292 C250.096405,122.737768 254.237745,131.128929 258.360294,139.529881 C264.714869,136.712703 271.09232,133.919184 277.457516,131.141167 C273.564542,122.30128 269.651961,113.472816 265.678922,104.668827 C272.737745,93.9744816 279.851307,83.3201133 287.019608,72.7008272 C289.05719,72.221915 291.081699,71.7527932 293.095588,71.2771445 C294.614379,66.6691445 296.127451,62.0635921 297.640523,57.4555921 C291.781046,58.512136 285.951797,59.6135524 280.09232,60.7394448 L280.09232,60.7394448 Z M318.147876,54.2378244 C312.861111,55.1197734 308.093137,56.8053484 304.150327,60.7631048 C300.925654,64.2305269 299.207516,68.3963286 297.791667,72.8028102 C293.553922,85.9953314 289.328431,99.1756147 285.113562,112.383637 C283.462418,117.599456 280.75,127.119773 289.122549,126.403445 C291.986928,125.937586 294.686275,124.742346 297.357843,123.607479 C305.821078,120.007887 314.32598,116.453167 322.826797,112.952295 C324.990196,104.66638 327.142974,96.3616997 329.264706,88.0725212 C324.803922,89.466017 320.330882,90.8807252 315.869281,92.3068555 C314.827614,96.0484079 313.783497,99.7964873 312.728758,103.537224 C309.629902,104.668827 306.526144,105.800431 303.433824,106.944272 C307.357843,93.5624703 311.288399,80.1774051 315.176471,66.780102 C317.925654,66.1934958 320.680556,65.6036261 323.441176,65.0317054 C322.772059,67.3732351 322.120915,69.7270028 321.500817,72.0807705 C325.502451,71.123762 329.517157,70.1781756 333.531863,69.2570652 C335.05719,63.2253824 336.576797,57.1847252 338.071895,51.1465156 C331.428922,52.1247365 324.803922,53.1543569 318.147876,54.2378244 L318.147876,54.2378244 Z" id="Fill-11" fill="#FFFFFF"></path>
                <path d="M353.88317,42.0023116 C357.897876,43.3117734 361.672386,44.6636601 365.456699,46.0783683 C374.855392,49.5751615 383.234477,53.1510935 390.142157,56.4439207 C368.826797,129.527388 325.152778,190.780011 263.563725,234.393654 L258.535948,237.872499 C240.5,224.376476 229.860294,213.805326 229.860294,213.805326 L238.347222,212.397144 C264.111111,208.104884 288.941993,196.450266 309.46732,177.324782 C344.449346,144.739989 358.633987,98.2006572 351.418301,54.3430708 C351.272876,53.3526119 351.085784,52.3597054 350.89951,51.360272 L350.814542,50.9294958 L350.736928,50.4815864 L350.634804,49.9936997 L350.537582,49.5188669 L350.428922,49.0187422 L350.35049,48.5463569 L350.224673,48.0258357 L350.13317,47.5167365 L350.007353,47.0476147 L349.928922,46.6470255 L349.808007,46.0840793 L349.675654,45.5602946 L349.573529,45.1597054 L349.495098,44.7803286 L349.397876,44.3772918 C349.012255,42.8059377 348.644608,41.4728159 348.301471,40.1902776 C350.187908,40.7866742 352.050654,41.3920453 353.88317,42.0023116 L353.88317,42.0023116 Z M354.552288,42.8516261 C358.332516,44.1341643 362.196078,45.5064476 365.903595,46.8877054 C362.136438,45.4697337 358.356209,44.1243739 354.552288,42.8516261 L354.552288,42.8516261 Z" id="Fill-12" fill="#0072AD"></path>
            </g>
        </g>
    </g>
</svg>