<?xml version="1.0" encoding="UTF-8" standalone="no"?>
<svg width="500px" height="500px" viewBox="0 0 500 500" version="1.1" xmlns="http://www.w3.org/2000/svg" xmlns:xlink="http://www.w3.org/1999/xlink">
    <!-- Generator: Sketch 43.2 (39069) - http://www.bohemiancoding.com/sketch -->
    <title>MIN</title>
    <desc>Created with Sketch.</desc>
    <defs>
        <polygon id="path-1" points="0 489.361702 0 1.38297872 405.04 1.38297872 405.04 489.361702"></polygon>
    </defs>
    <g id="Page-1" stroke="none" stroke-width="1" fill="none" fill-rule="evenodd">
        <g id="MIN">
            <g id="Page-1" transform="translate(43.000000, 0.000000)">
                <path d="M202.390179,18.0138298 L183.129923,45.9606383 C183.129923,45.9606383 197.676205,56.056383 209.658,69.7478723 C188.705821,65.4712766 165.699923,61.5989362 165.699923,61.5989362 L129.233128,81.4074468 L146.322615,53.056383 C146.322615,53.056383 134.819667,43.237234 121.57159,34.6840426 C136.107231,35.1202128 163.752615,37.4074468 163.752615,37.4074468 L202.390179,18.0138298 Z" id="Fill-1" fill="#7AC142"></path>
                <g id="Group-5" transform="translate(0.000000, 9.256383)">
                    <mask id="mask-2" fill="white">
                        <use xlink:href="#path-1"></use>
                    </mask>
                    <g id="Clip-4"></g>
                    <path d="M399.789718,132.329787 C398.289333,130.021277 396.416513,129.223404 396.395231,129.202128 C392.947538,113.5 378.699205,105.265957 378.699205,105.265957 C378.699205,105.265957 395.13959,31.5744681 353.490615,14.106383 C350.894205,8.19148936 347.265615,4.04255319 340.15741,1.38297872 C332.155359,3.15957447 319.003051,12.5425532 311.128692,27.4361702 C290.602154,48.9468085 269.671256,70.0531915 241.270359,106.159574 C241.270359,106.159574 210.964718,106.457447 181.744462,134.56383 C153.811769,161.425532 98.8615128,237.893617 34.8876667,278.351064 C34.8876667,278.351064 53.3285641,294.787234 71.6630513,301.255319 C71.6630513,301.255319 42.081,343.648936 37.8884359,358.787234 L54.5842051,359.617021 C54.5842051,359.617021 27.0984359,412.276596 -0.00425641026,489.361702 C-0.00425641026,489.361702 67.5343333,444.361702 120.994846,430.297872 C120.994846,430.297872 116.366,439.638298 114.588949,457.053191 C186.128564,413.56383 247.591128,399.361702 298.561641,404.925532 C297.41241,396.606383 297.071897,390.542553 297.071897,390.542553 C312.437538,396.819149 333.815359,423.702128 344.669205,457.382979 C387.212026,401.968085 370.846128,355.691489 370.048051,353.755319 C369.952282,353.276596 369.888436,352.93617 369.888436,352.93617 C372.378436,353.946809 378.656641,358.446809 378.656641,358.446809 C377.464846,306.340426 355.554974,287.978723 356.140231,259.56383 C357.012795,217.914894 366.249205,198.414894 385.59459,171.382979 C395.841897,160.255319 400.683564,170.574468 400.683564,170.574468 C408.855872,148.457447 403.769462,137.202128 399.789718,132.329787" id="Fill-3" fill="#002A5B" mask="url(#mask-2)"></path>
                </g>
                <path d="M233.781205,136.976596 C233.781205,136.976596 230.280308,146.657447 229.822744,155.646809 C229.822744,155.646809 207.880949,158.870213 197.335692,166.061702 C197.335692,166.061702 219.224282,144.242553 233.781205,136.976596" id="Fill-6" fill="#7AC142"></path>
                <path d="M381.544615,136.005319 C383.970769,135.420213 385.801026,135.324468 387.152436,135.420213 C386.758718,134.292553 385.992564,132.611702 384.641154,130.973404 C382.704487,128.611702 379.884615,126.845745 379.884615,126.845745 C381.704231,129.654255 381.757436,133.526596 381.544615,136.005319" id="Fill-8" fill="#FEFEFE"></path>
                <path d="M361.756564,145.985106 C364.587077,144.02766 367.162205,142.431915 369.513872,141.112766 C369.088231,140.091489 368.417846,138.634043 367.449513,136.857447 C365.55541,133.506383 360.649897,130.559574 360.649897,130.559574 C362.682333,136.548936 362.246051,142.634043 361.756564,145.985106" id="Fill-10" fill="#FEFEFE"></path>
                <path d="M126.486679,293.991489 C107.843603,301.619149 63.7046282,291.225532 63.7046282,291.225532 C108.301167,288.661702 151.897449,256.725532 151.897449,256.725532 C151.865526,256.789362 151.812321,256.895745 151.801679,256.959574 C138.723859,277.002128 120.697962,288.597872 120.697962,288.597872 C122.687833,291.119149 124.698987,292.821277 126.486679,293.991489" id="Fill-12" fill="#999EA0"></path>
                <path d="M348.74259,28.1 C348.74259,28.1 337.792974,19.5148936 325.342974,32.8446809 C338.665538,8.56808511 346.380282,22.4829787 348.74259,28.1" id="Fill-14" fill="#7AC142"></path>
                <path d="M392.11009,145.762766 C392.11009,145.762766 390.9715,144.98617 390.726756,144.847872 C383.778167,141.156383 371.349449,151.943617 363.219705,156.401064 C355.111244,160.869149 343.278423,170.401064 337.510987,157.284043 C331.73291,144.167021 345.01291,123.656383 349.609833,110.752128 C359.761372,82.2202128 360.133808,65.4010638 357.984321,56.3265957 C367.369705,66.9223404 370.317269,87.2202128 370.317269,87.2202128 C370.317269,87.2202128 373.807526,49.0925532 355.164449,39.0606383 C355.59009,40.4117021 355.100603,45.156383 354.728167,48.9010638 C354.728167,48.9010638 354.696244,48.8478723 354.653679,48.8159574 C345.970603,50.4010638 326.827397,48.2308511 320.613038,44.9755319 C297.064449,70.2308511 271.377013,105.369149 252.063551,137.635106 C243.678423,154.688298 235.474192,174.720213 233.420474,190.996809 C233.420474,190.996809 230.749577,183.624468 230.111115,173.815957 C219.427526,177.943617 183.077782,195.794681 175.309833,250.560638 C175.309833,250.560638 198.400859,226.741489 223.939321,217.454255 C223.939321,217.454255 207.775603,259.794681 238.634577,334.858511 C238.634577,334.858511 251.137782,288.837234 277.282782,277.220213 C293.105987,355.815957 339.500859,357.103191 353.046885,410.571277 C353.046885,410.571277 367.220731,382.879787 350.163167,335.794681 C350.163167,335.794681 356.047654,337.432979 361.027654,343.305319 C361.027654,343.305319 360.2615,329.528723 347.385859,299.826596 C339.000731,283.911702 336.361756,262.454255 336.361756,262.454255 C328.82791,269.284043 326.891244,292.347872 326.891244,292.347872 C303.864064,229.847872 369.242526,167.932979 381.171115,158.794681 C387.013038,154.337234 390.599064,154.262766 392.759192,155.326596 C395.01509,150.688298 394.802269,147.698936 392.11009,145.762766" id="Fill-16" fill="#999EA0"></path>
            </g>
        </g>
    </g>
</svg>