<?xml version="1.0" encoding="UTF-8" standalone="no"?>
<svg width="500px" height="500px" viewBox="0 0 500 500" version="1.1" xmlns="http://www.w3.org/2000/svg" xmlns:xlink="http://www.w3.org/1999/xlink">
    <!-- Generator: Sketch 43.2 (39069) - http://www.bohemiancoding.com/sketch -->
    <title>POR</title>
    <desc>Created with Sketch.</desc>
    <defs></defs>
    <g id="Page-1" stroke="none" stroke-width="1" fill="none" fill-rule="evenodd">
        <g id="POR">
            <g id="Page-1" transform="translate(25.000000, 0.000000)">
                <path d="M395.485658,133.842105 C388.115567,122.928571 379.6518,112.669173 370.327375,103.342105 C366.283408,99.2969925 362.0628,95.4135338 357.691858,91.7105263 L449.3764,0 L182.275408,0 L79.1805667,103.12406 L79.1956,103.12406 C79.1241917,103.199248 79.049025,103.270677 78.9738583,103.342105 C69.6531917,112.669173 61.189425,122.928571 53.8193333,133.842105 C46.3778333,144.857143 39.9886667,156.635338 34.8247167,168.845865 C24.0796417,194.25188 18.6338167,221.240602 18.6338167,249.06015 C18.6338167,276.879699 24.0796417,303.868421 34.8247167,329.274436 C39.9886667,341.484962 46.3778333,353.263158 53.8193333,364.278195 C61.189425,375.191729 69.6531917,385.454887 78.9738583,394.778195 C83.0328583,398.834586 87.2647417,402.729323 91.6507167,406.443609 L0,498.120301 L267.022067,498.120301 L370.534083,394.578947 L370.526567,394.578947 C379.768308,385.308271 388.168183,375.116541 395.485658,364.278195 C402.9234,353.263158 409.316325,341.484962 414.480275,329.274436 C425.221592,303.868421 430.667417,276.879699 430.667417,249.06015 C430.667417,221.240602 425.221592,194.25188 414.480275,168.845865 C409.316325,156.635338 402.9234,144.857143 395.485658,133.842105" id="Fill-1" fill="#051821"></path>
                <path d="M358.258239,115.193609 C354.218031,111.152256 350.042522,107.332707 345.746748,103.734962 L233.639422,215.870301 C239.160414,217.422932 244.373222,220.366541 248.717856,224.701128 L248.747922,224.734962 C262.285439,238.276316 262.285439,260.231203 248.747922,273.772556 L41.1000058,481.479323 L65.4276975,481.479323 L260.913647,285.93797 C281.110931,265.738722 281.171064,233.024436 261.094047,212.746241 L273.256014,200.580827 C300.049172,227.577068 299.989039,271.18609 273.075614,298.103383 L89.7516308,481.479323 L114.083081,481.479323 L285.241339,310.272556 C318.870906,276.633459 318.931039,222.129699 285.421739,188.415414 L297.587464,176.246241 C337.816664,216.682331 337.752772,282.080827 297.407064,322.441729 L138.410772,481.479323 L162.742222,481.479323 L309.569031,334.610902 C356.638397,287.528195 356.698531,211.231203 309.753189,164.077068 L321.918914,151.907895 C375.584156,205.783835 375.524022,292.979323 321.734756,346.780075 L187.073672,481.479323 L211.401364,481.479323 L333.900481,358.945489 C394.405889,298.426692 394.466023,200.336466 334.080881,139.738722 L346.325531,127.490602 C413.471914,194.851504 413.411781,303.907895 346.145131,371.193609 L235.890664,481.479323 L260.222114,481.479323 L358.310856,383.362782 L358.258239,383.31015 C432.274856,309.272556 432.274856,189.231203 358.258239,115.193609" id="Fill-3" fill="#FEFEFE"></path>
                <path d="M91.15612,383.096617 C95.1963283,387.13797 99.3718367,390.957519 103.667612,394.555263 L215.774937,282.419925 C210.253945,280.867293 205.044895,277.923684 200.696503,273.589098 L200.666437,273.555263 C187.12892,260.01391 187.12892,238.059023 200.666437,224.517669 L408.596228,16.5289474 L384.268537,16.5289474 L188.500712,212.352256 C168.303428,232.551504 168.247053,265.265789 188.320312,285.543985 L176.158345,297.709398 C149.368945,270.713158 149.42532,227.104135 176.338745,200.186842 L359.944603,16.5289474 L335.613153,16.5289474 L164.17302,188.017669 C130.543453,221.656767 130.48332,276.160526 163.99262,309.874812 L151.830653,322.043985 C111.597695,281.607895 111.661587,216.209398 152.007295,175.848496 L311.285462,16.5289474 L286.954012,16.5289474 L139.845328,163.679323 C92.7759617,210.76203 92.7158283,287.059023 139.664928,334.213158 L127.495445,346.382331 C73.8339617,292.506391 73.8903367,205.310902 127.679603,151.51015 L262.622562,16.5289474 L238.291112,16.5289474 L115.513878,139.344737 C55.00847,199.867293 54.9483367,297.953759 115.333478,358.551504 L103.088828,370.799624 C35.942445,303.438722 36.0025783,194.382331 103.269228,127.096617 L213.80557,16.5289474 L189.47412,16.5289474 L91.1035033,114.927444 L91.15612,114.980075 C17.1395033,189.017669 17.1395033,309.059023 91.15612,383.096617" id="Fill-5" fill="#E0393D"></path>
            </g>
        </g>
    </g>
</svg>