<?xml version="1.0" encoding="UTF-8"?>
<svg width="500px" height="500px" viewBox="0 0 500 500" version="1.1" xmlns="http://www.w3.org/2000/svg" xmlns:xlink="http://www.w3.org/1999/xlink">
    <!-- Generator: Sketch 55.2 (78181) - https://sketchapp.com -->
    <title>GS</title>
    <desc>Created with Sketch.</desc>
    <defs>
        <polygon id="path-1" points="0 0 500 0 500 499.947917 0 499.947917"></polygon>
    </defs>
    <g id="GS" stroke="none" stroke-width="1" fill="none" fill-rule="evenodd">
        <g id="GSWarriors_Primary_Icon_rgb">
            <g id="Group-3">
                <mask id="mask-2" fill="white">
                    <use xlink:href="#path-1"></use>
                </mask>
                <g id="Clip-2"></g>
                <path d="M500,250 C500,388.071181 388.071181,500 250,500 C111.928819,500 0,388.071181 0,250 C0,111.928819 111.928819,0 250,0 C388.071181,0 500,111.928819 500,250" id="Fill-1" fill="#1D428A" mask="url(#mask-2)"></path>
            </g>
            <path d="M250,468.75 C222.730903,468.75 196.225694,463.791667 171.510417,454.305556 C170.498264,439.342014 169.515625,421.460069 168.574653,401.904514 L148.618056,395.111111 L148.626736,443.947917 C145.442708,442.279514 142.300347,440.529514 139.197917,438.699653 L139.208333,392.333333 L148.618056,392.668403 L148.618056,392.975694 L158.819444,393.030382 L177.241319,393.682292 L407.454861,401.836806 C406.536458,402.788194 405.617187,403.741319 404.679688,404.680556 C363.362847,445.996528 308.430556,468.75 250,468.75 L250,468.75 Z M82.1770833,390.314236 L116.546875,391.53125 C115.861111,402.147569 115.109375,412.230903 114.286458,421.581597 C107.696181,416.348958 101.359375,410.71875 95.3194444,404.680556 C90.6996528,400.060764 86.3263889,395.260417 82.1770833,390.314236 L82.1770833,390.314236 Z M121.142361,283.078125 C120.418403,310.833333 119.394097,339.489583 118.012153,366.164931 L99.1840278,366.798611 L121.142361,283.078125 Z M122.541667,187.512153 C122.505208,206.833333 122.267361,230.09375 121.78125,254.989583 L92.3975694,367.026042 L72.1059028,367.710069 L122.541667,187.512153 Z M46.421875,330.331597 C41.3836806,317.555556 37.5642361,304.289931 35.0190972,290.678819 C43.1024306,284.244792 54.4791667,273.780382 68.0347222,257.472222 L46.421875,330.331597 Z M50.40625,339.78125 L78.9097222,243.701389 C90.4409722,228.359375 103.149306,209.079861 116.494792,184.979167 L65.40625,367.501736 C59.7222222,358.611111 54.7170139,349.348958 50.40625,339.78125 L50.40625,339.78125 Z M148.579861,196.114583 L148.583333,209.571181 L138.392361,209.571181 L138.392361,222.071181 L148.585069,222.071181 L148.586806,235.527778 L138.392361,235.527778 L138.392361,248.027778 L148.590278,248.027778 L148.595486,273.267361 L138.392361,273.267361 L138.392361,285.769097 L148.597222,285.769097 L148.602431,311.727431 L138.392361,311.727431 L138.392361,324.227431 L148.604167,324.227431 L148.612847,365.135417 L139.213542,365.453125 L139.256944,175.161458 L148.576389,175.161458 L148.578125,183.614583 L138.392361,183.614583 L138.392361,196.114583 L148.579861,196.114583 Z M419.197917,356.036458 L413.352431,342.970486 C422.994792,346.861111 432.701389,350.585069 442.463542,354.157986 C442.259549,354.53125 442.053819,354.902778 441.848958,355.276042 L419.197917,356.036458 Z M426.657986,379.071181 C425.178819,381.086806 423.664931,383.079861 422.111979,385.050347 L167.821181,380.069444 L167.713542,377.618056 L426.657986,379.071181 Z M184.09375,363.942708 L166.901042,364.520833 C165.847222,339.350694 164.869792,312.902778 163.993056,287.296875 L184.09375,363.942708 Z M210.616319,363.050347 L190.762153,363.71875 L163.013889,257.920139 C162.135417,230.642361 161.388889,205.413194 160.817708,185.123264 L210.616319,363.050347 Z M240.227431,362.055556 L217.3125,362.826389 L166.881944,182.642361 C171.303819,187.517361 175.833333,192.28125 180.487847,196.916667 C185.373264,201.789931 190.378472,206.539931 195.473958,211.1875 L240.227431,362.055556 Z M267.703125,361.131944 L246.949653,361.829861 L204.697917,219.40625 C207.6875,222.005208 210.701389,224.572917 213.743056,227.107639 C219.081597,231.550347 224.501736,235.890625 229.993056,240.140625 L267.703125,361.131944 Z M296.003472,360.180556 L274.449653,360.904514 L238.923611,246.928819 C247.138889,253.057292 255.501736,258.982639 263.998264,264.713542 L296.003472,360.180556 Z M323.380208,359.260417 L302.789931,359.951389 L272.822917,270.565972 C277.402778,273.550347 282.015625,276.484375 286.664931,279.361111 L296.232639,285.225694 L297.522569,285.982639 L323.380208,359.260417 Z M353.203125,358.255208 L330.199653,359.03125 L306.220486,291.070312 C307.736111,291.951389 309.237847,292.857639 310.770833,293.706597 L315.671875,296.434028 C318.944444,298.244792 322.197917,300.092014 325.487847,301.869792 L333.081597,305.883681 L353.203125,358.255208 Z M377.184028,327.467014 C386.263889,331.597222 395.416667,335.572917 404.626736,339.401042 L412.175347,356.274306 L389.576389,357.032986 L377.184028,327.467014 Z M382.619792,357.267361 L360.085069,358.026042 L341.803819,310.440972 L345.387153,312.237847 L355.421875,317.262153 C358.784722,318.895833 362.175347,320.475694 365.552083,322.085069 C366.508681,322.534722 367.473958,322.972222 368.432292,323.421875 L382.619792,357.267361 Z M95.3194444,95.3194444 C136.637153,54.0034722 191.569444,31.25 250,31.25 C308.430556,31.25 363.362847,54.0034722 404.679688,95.3194444 C445.996528,136.637153 468.75,191.571181 468.75,250 C468.75,281.428819 462.15625,311.840278 449.642361,339.670139 C423.125868,330.727431 396.996528,320.631944 371.421875,309.272569 C368.065972,307.767361 364.694444,306.293403 361.348958,304.765625 L351.369792,300.055556 L346.380208,297.701389 L341.4375,295.246528 L331.560764,290.319444 C328.286458,288.647569 325.048611,286.904514 321.788194,285.199653 L316.902778,282.631944 C315.274306,281.777778 313.682292,280.857639 312.067708,279.977431 L302.413194,274.628472 L292.875,269.081597 C267.501736,254.1875 243.053819,237.682292 220.008681,219.409722 C208.498264,210.260417 197.326389,200.680556 186.689236,190.555556 C181.368056,185.498264 176.197917,180.288194 171.1875,174.946181 C169.939236,173.607639 168.689236,172.269097 167.475694,170.901042 C166.244792,169.548611 165.038194,168.178819 163.847222,166.796875 C162.644097,165.423611 161.484375,164.024306 160.328125,162.625 C160.282986,162.569444 160.236111,162.512153 160.192708,162.456597 C159.758681,146.388889 159.522569,136.789931 159.522569,136.789931 L148.567708,134.210069 L148.571181,148.887153 L139.262153,148.887153 L139.265625,133.477431 L127.520833,136.270833 L127.611111,141.868056 L122.121528,144.855903 C122.272569,149.451389 122.385417,155.451389 122.456597,162.600694 C118.015625,170.352431 69.5277778,254.095486 33.2743056,279.857639 C31.9427083,270.043403 31.25,260.076389 31.25,250 C31.25,191.571181 54.0034722,136.637153 95.3194444,95.3194444 L95.3194444,95.3194444 Z M413.519097,86.4809028 C369.840278,42.8038194 311.769097,18.75 250,18.75 C188.230903,18.75 130.159722,42.8038194 86.4809028,86.4809028 C42.8038194,130.159722 18.75,188.230903 18.75,250 C18.75,311.769097 42.8038194,369.840278 86.4809028,413.519097 C130.159722,457.196181 188.230903,481.25 250,481.25 C311.769097,481.25 369.840278,457.196181 413.519097,413.519097 C457.195312,369.840278 481.249132,311.769097 481.249132,250 C481.249132,188.230903 457.195312,130.159722 413.519097,86.4809028 L413.519097,86.4809028 Z" id="Fill-4" fill="#FDB927"></path>
        </g>
    </g>
</svg>