<?xml version="1.0" encoding="UTF-8" standalone="no"?>
<svg width="500px" height="500px" viewBox="0 0 500 500" version="1.1" xmlns="http://www.w3.org/2000/svg" xmlns:xlink="http://www.w3.org/1999/xlink">
    <!-- Generator: Sketch 39.1 (31720) - http://www.bohemiancoding.com/sketch -->
    <title>WAS</title>
    <desc>Created with Sketch.</desc>
    <defs></defs>
    <g id="NBA" stroke="none" stroke-width="1" fill="none" fill-rule="evenodd">
        <g id="WAS">
            <g id="WWizards_P_pms">
                <g id="Group-4">
                    <path d="M249.931427,6.3847487 L249.5,6.3847487 C114.950194,6.39254766 5.79134549,115.409012 5.56177083,250.018198 L5.56177083,250.448007 C5.57563194,385.086655 114.601068,494.29636 249.240104,494.445407 L249.574503,494.445407 C384.169358,494.408146 493.297885,385.369151 493.460753,250.708839 L493.460753,250.39688 C493.431299,115.810225 384.49596,6.63691508 249.931427,6.3847487" id="Fill-1" fill="#FFFFFF"></path>
                    <path d="M493.460753,250.574523 L493.460753,250.708839 C493.297885,385.369151 384.169358,494.408146 249.574503,494.445407 L249.240104,494.445407 C114.601068,494.29636 5.57563194,385.086655 5.56177083,250.448007 L5.56177083,250.018198 C5.79134549,115.409012 114.950194,6.39254766 249.5,6.3847487 L249.931427,6.3847487 C384.49596,6.63691508 493.431299,115.810225 493.460753,250.39688 L493.460753,250.574523 L493.460753,250.574523 Z M498.985273,249.869151 C498.673398,112.252166 387.07326,0.837088388 249.514727,0.829289428 L248.973278,0.829289428 C111.38529,1.13431542 0.0450486111,112.794627 0.01559375,250.285095 L0,250.559792 L0,250.715771 C0.178461806,388.42201 111.786396,499.934142 249.433293,500 L249.485273,500 L249.485273,499.993068 L249.78242,499.993068 C387.428451,499.829289 498.896042,388.220971 498.985273,250.582322 C498.985273,250.478336 499,250.381282 499,250.240035 C498.985273,250.240035 499,250.143847 498.985273,249.869151 L498.985273,249.869151 Z" id="Fill-3" fill="#848683"></path>
                </g>
                <path d="M167.954217,194.993068 C193.302724,169.65338 203.971448,140.020797 203.971448,140.020797 L209.62938,119.441075 L210.966111,114.636049 L185.001651,100.095321 C185.001651,100.095321 169.854922,89.5788562 135.990495,109.229636 C96.3355885,132.623917 64.0755851,162.872617 47.3842083,194.955806 C38.1405799,212.735702 30.8054531,233.20364 27.0118403,256.471404 C28.1917674,300.504333 42.0909965,341.366551 65.2555122,375.454939 C58.6480938,311.993934 119.954056,242.47227 167.954217,194.993068" id="Fill-5" fill="#111B2B"></path>
                <path d="M363.38029,109.229636 C329.508932,89.5788562 314.37,100.095321 314.37,100.095321 L288.413337,114.636049 L289.742271,119.441075 L295.399337,140.020797 C295.399337,140.020797 306.061997,169.65338 331.416568,194.993068 C379.269455,242.323224 440.366634,311.565858 434.189776,374.870884 C457.451319,340.392548 471.261318,299.033795 472.06353,254.487868 C468.179819,232.030329 460.971175,212.233969 451.986576,194.955806 C435.296066,162.872617 403.021335,132.623917 363.38029,109.229636" id="Fill-6" fill="#111B2B"></path>
                <path d="M281.923738,71.1897747 C370.909472,81.2426343 429.386035,131.761698 459.589396,176.567591 C436.870168,111.907279 385.164759,60.9228769 320.057387,39.1733102 C305.697276,43.4142114 289.779523,52.3448873 281.923738,71.1897747" id="Fill-7" fill="#BE2531"></path>
                <path d="M217.447913,71.1897747 C209.554877,52.2487002 193.502844,43.3180243 179.083823,39.110052 C113.576212,60.9523397 61.6256337,112.415945 39.0831354,177.62565 C69.0803125,132.560659 127.771722,81.3197574 217.447913,71.1897747" id="Fill-8" fill="#BE2531"></path>
                <path d="M232.015075,68.6793761 L249.678462,42.6715771 L267.363507,68.6793761 C274.455198,49.2928943 285.636783,38.6091854 296.847823,32.7868284 C281.663842,29.4965338 265.915887,27.729636 249.752099,27.7140381 C233.506877,27.6958406 217.692215,29.47487 202.427667,32.7642981 C213.668161,38.5684575 224.894795,49.229636 232.015075,68.6793761" id="Fill-9" fill="#BE2531"></path>
                <path d="M370.612325,263.771231 C334.424429,205.205373 252.261826,146.065858 249.678462,144.224437 C247.109825,146.065858 164.955019,205.205373 128.759326,263.771231 C79.9127708,342.814558 86.2602934,388.398614 98.8972951,414.418544 C130.378477,443.368284 170.211845,463.357019 214.381142,470.363951 L233.418512,200.384749 L249.292083,184.461872 L249.5,184.246967 L249.5,184.253899 L249.514727,184.246967 L249.714847,184.461872 L265.582354,200.384749 L284.760068,470.145581 L284.500172,470.293761 C329.010799,463.260832 369.149111,443.108319 400.763707,413.812825 C413.207519,387.694107 419.102823,342.216638 370.612325,263.771231" id="Fill-10" fill="#111B2B"></path>
                <polyline id="Fill-11" fill="#848683" points="265.582354 200.384749 249.714847 184.461872 249.901106 490.018198 284.760068 470.145581 265.582354 200.384749"></polyline>
                <path d="M249.589231,123.719237 L242.669071,128.828423 L213.638707,150.246967 L221.241526,122.635182 L222.548802,117.844887 L225.109642,108.590988 L216.668226,104.045927 L189.360104,89.3266898 C203.140648,86.2885615 217.217472,84.3058925 231.443304,83.3994801 L238.392918,82.9618718 L238.675339,82.389948 L241.458823,76.7010399 L241.897181,75.812825 L241.904977,75.8058925 L249.678462,59.9835355 L257.727436,76.3405546 L257.727436,76.347487 L257.897234,76.7010399 L260.696312,82.389948 L260.978733,82.9618718 L267.935278,83.3994801 C282.154179,84.3058925 296.231003,86.2885615 310.011547,89.3266898 L282.711222,104.045927 L274.268939,108.590988 L276.822849,117.844887 L278.137056,122.635182 L285.732944,150.246967 L256.70951,128.828423 L249.789351,123.719237 L249.789351,123.57799 L249.678462,123.659445 L249.589231,123.57799 L249.589231,123.719237" id="Fill-12" fill="#848683"></path>
                <path d="M249.789351,123.57799 L249.789351,123.719237 L256.70951,128.828423 L285.732944,150.246967 L278.137056,122.635182 L276.822849,117.844887 L274.268939,108.590988 L282.711222,104.045927 L310.011547,89.3266898 C296.231003,86.2885615 282.154179,84.3058925 267.935278,83.3994801 L260.978733,82.9618718 L260.696312,82.389948 L257.897234,76.7010399 L257.727436,76.347487 L257.727436,76.3405546 L249.678462,59.9835355 L241.904977,75.8058925 L241.897181,75.812825 L241.458823,76.7010399 L238.675339,82.389948 L238.392918,82.9618718 L231.443304,83.3994801 C217.217472,84.3058925 203.140648,86.2885615 189.360104,89.3266898 L216.668226,104.045927 L225.109642,108.590988 L222.548802,117.844887 L221.241526,122.635182 L213.638707,150.246967 L242.669071,128.828423 L249.589231,123.719237 L249.589231,123.57799 L249.678462,123.659445 L249.789351,123.57799" id="Fill-13" fill="#848683"></path>
            </g>
        </g>
    </g>
</svg>